G04 #@! TF.GenerationSoftware,KiCad,Pcbnew,(6.99.0-1917-g23fb4c7433)*
G04 #@! TF.CreationDate,2022-06-21T14:10:18+10:00*
G04 #@! TF.ProjectId,JtagArm20Adapter,4a746167-4172-46d3-9230-416461707465,rev?*
G04 #@! TF.SameCoordinates,PX8404630PY68290a0*
G04 #@! TF.FileFunction,Paste,Top*
G04 #@! TF.FilePolarity,Positive*
%FSLAX46Y46*%
G04 Gerber Fmt 4.6, Leading zero omitted, Abs format (unit mm)*
G04 Created by KiCad (PCBNEW (6.99.0-1917-g23fb4c7433)) date 2022-06-21 14:10:18*
%MOMM*%
%LPD*%
G01*
G04 APERTURE LIST*
G04 Aperture macros list*
%AMRoundRect*
0 Rectangle with rounded corners*
0 $1 Rounding radius*
0 $2 $3 $4 $5 $6 $7 $8 $9 X,Y pos of 4 corners*
0 Add a 4 corners polygon primitive as box body*
4,1,4,$2,$3,$4,$5,$6,$7,$8,$9,$2,$3,0*
0 Add four circle primitives for the rounded corners*
1,1,$1+$1,$2,$3*
1,1,$1+$1,$4,$5*
1,1,$1+$1,$6,$7*
1,1,$1+$1,$8,$9*
0 Add four rect primitives between the rounded corners*
20,1,$1+$1,$2,$3,$4,$5,0*
20,1,$1+$1,$4,$5,$6,$7,0*
20,1,$1+$1,$6,$7,$8,$9,0*
20,1,$1+$1,$8,$9,$2,$3,0*%
G04 Aperture macros list end*
%ADD10R,2.400000X0.740000*%
%ADD11RoundRect,0.225000X0.250000X-0.225000X0.250000X0.225000X-0.250000X0.225000X-0.250000X-0.225000X0*%
%ADD12RoundRect,0.200000X-0.200000X-0.275000X0.200000X-0.275000X0.200000X0.275000X-0.200000X0.275000X0*%
%ADD13RoundRect,0.200000X0.200000X0.275000X-0.200000X0.275000X-0.200000X-0.275000X0.200000X-0.275000X0*%
%ADD14R,3.150000X1.000000*%
%ADD15RoundRect,0.150000X-0.587500X-0.150000X0.587500X-0.150000X0.587500X0.150000X-0.587500X0.150000X0*%
%ADD16RoundRect,0.225000X-0.250000X0.225000X-0.250000X-0.225000X0.250000X-0.225000X0.250000X0.225000X0*%
%ADD17R,0.600000X1.450000*%
%ADD18R,0.300000X1.450000*%
G04 #@! TA.AperFunction,Profile*
%ADD19C,0.050000*%
G04 #@! TD*
G04 APERTURE END LIST*
D10*
X27019999Y5679999D03*
X23119999Y5679999D03*
X27019999Y6949999D03*
X23119999Y6949999D03*
X27019999Y8219999D03*
X23119999Y8219999D03*
X27019999Y9489999D03*
X23119999Y9489999D03*
X27019999Y10759999D03*
X23119999Y10759999D03*
D11*
X22070000Y14195000D03*
X22070000Y15745000D03*
D12*
X8495000Y20970000D03*
X10145000Y20970000D03*
D13*
X14895000Y20970000D03*
X13245000Y20970000D03*
D14*
X13344999Y11179999D03*
X8294999Y11179999D03*
X13344999Y13719999D03*
X8294999Y13719999D03*
X13344999Y16259999D03*
X8294999Y16259999D03*
D15*
X23882500Y19920000D03*
X23882500Y18020000D03*
X25757500Y18970000D03*
D14*
X26844999Y23579999D03*
X21794999Y23579999D03*
X26844999Y26119999D03*
X21794999Y26119999D03*
X26844999Y28659999D03*
X21794999Y28659999D03*
D16*
X27820000Y19495000D03*
X27820000Y17945000D03*
D11*
X27820000Y14195000D03*
X27820000Y15745000D03*
D17*
X15069999Y23424999D03*
X14269999Y23424999D03*
D18*
X13069999Y23424999D03*
X12069999Y23424999D03*
X11569999Y23424999D03*
X10569999Y23424999D03*
D17*
X9369999Y23424999D03*
X8569999Y23424999D03*
X8569999Y23424999D03*
X9369999Y23424999D03*
D18*
X10069999Y23424999D03*
X11069999Y23424999D03*
X12569999Y23424999D03*
X13569999Y23424999D03*
D17*
X14269999Y23424999D03*
X15069999Y23424999D03*
D15*
X23882500Y15920000D03*
X23882500Y14020000D03*
X25757500Y14970000D03*
D11*
X22070000Y18195000D03*
X22070000Y19745000D03*
D19*
X1667462Y-1320D02*
G75*
G03*
X1667462Y-1320I-1666666J0D01*
G01*
X-2499204Y-1320D02*
X2500796Y-1320D01*
X796Y2498680D02*
X796Y-2501320D01*
X0Y0D02*
X0Y30480000D01*
X29570000Y30480000D02*
X29570000Y0D01*
X0Y30480000D02*
X29570000Y30480000D01*
X29570000Y0D02*
X0Y0D01*
M02*
