G04 #@! TF.GenerationSoftware,KiCad,Pcbnew,(6.99.0-1917-g23fb4c7433)*
G04 #@! TF.CreationDate,2022-06-21T14:10:18+10:00*
G04 #@! TF.ProjectId,JtagArm20Adapter,4a746167-4172-46d3-9230-416461707465,rev?*
G04 #@! TF.SameCoordinates,PX8404630PY68290a0*
G04 #@! TF.FileFunction,Copper,L2,Bot*
G04 #@! TF.FilePolarity,Positive*
%FSLAX46Y46*%
G04 Gerber Fmt 4.6, Leading zero omitted, Abs format (unit mm)*
G04 Created by KiCad (PCBNEW (6.99.0-1917-g23fb4c7433)) date 2022-06-21 14:10:18*
%MOMM*%
%LPD*%
G01*
G04 APERTURE LIST*
G04 #@! TA.AperFunction,ComponentPad*
%ADD10R,1.700000X1.700000*%
G04 #@! TD*
G04 #@! TA.AperFunction,ComponentPad*
%ADD11O,1.700000X1.700000*%
G04 #@! TD*
G04 #@! TA.AperFunction,ComponentPad*
%ADD12O,1.000000X2.100000*%
G04 #@! TD*
G04 #@! TA.AperFunction,ComponentPad*
%ADD13O,1.000000X1.600000*%
G04 #@! TD*
G04 #@! TA.AperFunction,ViaPad*
%ADD14C,0.450000*%
G04 #@! TD*
G04 #@! TA.AperFunction,Conductor*
%ADD15C,0.200000*%
G04 #@! TD*
G04 #@! TA.AperFunction,Profile*
%ADD16C,0.050000*%
G04 #@! TD*
G04 APERTURE END LIST*
D10*
X3809999Y26669999D03*
D11*
X1269999Y26669999D03*
X3809999Y24129999D03*
X1269999Y24129999D03*
X3809999Y21589999D03*
X1269999Y21589999D03*
X3809999Y19049999D03*
X1269999Y19049999D03*
X3809999Y16509999D03*
X1269999Y16509999D03*
X3809999Y13969999D03*
X1269999Y13969999D03*
X3809999Y11429999D03*
X1269999Y11429999D03*
X3809999Y8889999D03*
X1269999Y8889999D03*
X3809999Y6349999D03*
X1269999Y6349999D03*
X3809999Y3809999D03*
X1269999Y3809999D03*
D10*
X7689999Y2129999D03*
D11*
X10229999Y2129999D03*
X12769999Y2129999D03*
X15309999Y2129999D03*
X17849999Y2129999D03*
X20389999Y2129999D03*
D12*
X16139999Y24339999D03*
D13*
X16139999Y28519999D03*
D12*
X7499999Y24339999D03*
D13*
X7499999Y28519999D03*
D14*
X8107355Y9572475D03*
X16463820Y5266211D03*
X15421808Y17719253D03*
X6570000Y22220000D03*
X20827086Y11326911D03*
X1970000Y1220000D03*
X20586903Y18116568D03*
X28670000Y27320000D03*
X19862388Y14984791D03*
X11794980Y21220000D03*
X26270000Y7020000D03*
X25435696Y12998961D03*
X27859398Y7020000D03*
X2570000Y29220000D03*
X18115995Y8615821D03*
X11820000Y29220000D03*
X23878364Y14938183D03*
X23861273Y17023273D03*
X7191152Y12372945D03*
X18570000Y26220000D03*
X27992182Y21032571D03*
X24327902Y27220000D03*
X13465073Y6816218D03*
X23878364Y18971636D03*
X24261392Y28939885D03*
X22570000Y4620000D03*
X9265574Y12459379D03*
X11285619Y10348185D03*
X5962831Y4946500D03*
X19191753Y5266211D03*
X26229283Y16904654D03*
X25519091Y21637817D03*
X26853761Y1769647D03*
X28680908Y16869455D03*
X11794980Y24995020D03*
X8262936Y18457916D03*
X7225725Y15000546D03*
X9248287Y14948686D03*
X15491923Y14844562D03*
X15270000Y9520000D03*
X9870000Y9520000D03*
X25070000Y10520000D03*
X24570000Y3220000D03*
D15*
X3810000Y11430000D02*
X2369511Y9989511D01*
X18980000Y720000D02*
X20390000Y2130000D01*
X4470000Y720000D02*
X18980000Y720000D01*
X2369511Y2820489D02*
X4470000Y720000D01*
X2369511Y9989511D02*
X2369511Y2820489D01*
X9870000Y9520000D02*
X15270000Y9520000D01*
X25370000Y4020000D02*
X24570000Y3220000D01*
X25370000Y10220000D02*
X25370000Y4020000D01*
X25070000Y10520000D02*
X25370000Y10220000D01*
G04 #@! TA.AperFunction,Conductor*
G36*
X29530148Y30440148D02*
G01*
X29544500Y30405500D01*
X29544500Y74500D01*
X29530148Y39852D01*
X29495500Y25500D01*
X1741162Y25500D01*
X1706514Y39852D01*
X1692299Y70838D01*
X1678891Y249765D01*
X1678891Y249767D01*
X1678754Y251591D01*
X1629018Y469500D01*
X1622726Y497067D01*
X1622725Y497071D01*
X1622318Y498853D01*
X1529660Y734942D01*
X1524573Y743754D01*
X1487933Y807216D01*
X1402850Y954584D01*
X1244720Y1152873D01*
X1241105Y1156228D01*
X1149083Y1241611D01*
X1058803Y1325378D01*
X962551Y1391002D01*
X850768Y1467215D01*
X850762Y1467218D01*
X849252Y1468248D01*
X620747Y1578290D01*
X378394Y1653046D01*
X127606Y1690846D01*
X75296Y1690846D01*
X40648Y1705198D01*
X26296Y1739846D01*
X26296Y2503752D01*
X25769Y2505025D01*
X25500Y2507754D01*
X25500Y3067394D01*
X39852Y3102042D01*
X74500Y3116394D01*
X109148Y3102042D01*
X115521Y3094194D01*
X193564Y2974740D01*
X196044Y2971554D01*
X345730Y2808951D01*
X348699Y2806218D01*
X523099Y2670478D01*
X526484Y2668266D01*
X720847Y2563082D01*
X724542Y2561461D01*
X933572Y2489701D01*
X937484Y2488710D01*
X1006388Y2477212D01*
X1013654Y2478893D01*
X1016000Y2482651D01*
X1016000Y2485355D01*
X1524000Y2485355D01*
X1526855Y2478463D01*
X1530948Y2476767D01*
X1602516Y2488710D01*
X1606428Y2489701D01*
X1815458Y2561461D01*
X1819153Y2563082D01*
X2013516Y2668266D01*
X2016901Y2670478D01*
X2075043Y2715731D01*
X2111200Y2725687D01*
X2145882Y2704286D01*
X2153454Y2692953D01*
X2188910Y2639888D01*
X2192924Y2637206D01*
X2192925Y2637205D01*
X2205819Y2628590D01*
X2213244Y2622496D01*
X4272007Y563733D01*
X4278101Y556308D01*
X4289399Y539399D01*
X4342464Y503943D01*
X4372259Y484034D01*
X4376993Y483092D01*
X4376994Y483092D01*
X4465264Y465534D01*
X4470000Y464592D01*
X4489940Y468558D01*
X4499497Y469500D01*
X18950503Y469500D01*
X18960060Y468558D01*
X18980000Y464592D01*
X18984736Y465534D01*
X19073006Y483092D01*
X19073007Y483092D01*
X19077741Y484034D01*
X19107536Y503943D01*
X19160601Y539399D01*
X19171899Y556308D01*
X19177993Y563733D01*
X19855871Y1241611D01*
X19890519Y1255963D01*
X19913617Y1250177D01*
X19957140Y1226914D01*
X19975190Y1217266D01*
X20005273Y1201186D01*
X20193868Y1143976D01*
X20196256Y1143741D01*
X20196260Y1143740D01*
X20387604Y1124895D01*
X20390000Y1124659D01*
X20392396Y1124895D01*
X20583740Y1143740D01*
X20583744Y1143741D01*
X20586132Y1143976D01*
X20610718Y1151434D01*
X20772418Y1200485D01*
X20772423Y1200487D01*
X20774727Y1201186D01*
X20776853Y1202322D01*
X20776857Y1202324D01*
X20946414Y1292954D01*
X20946419Y1292957D01*
X20948538Y1294090D01*
X21100883Y1419117D01*
X21225910Y1571462D01*
X21227043Y1573581D01*
X21227046Y1573586D01*
X21317676Y1743143D01*
X21317678Y1743147D01*
X21318814Y1745273D01*
X21319513Y1747577D01*
X21319515Y1747582D01*
X21375326Y1931567D01*
X21376024Y1933868D01*
X21395341Y2130000D01*
X21376024Y2326132D01*
X21355513Y2393747D01*
X21319515Y2512418D01*
X21319513Y2512423D01*
X21318814Y2514727D01*
X21317678Y2516853D01*
X21317676Y2516857D01*
X21227046Y2686414D01*
X21227043Y2686419D01*
X21225910Y2688538D01*
X21114758Y2823976D01*
X21102412Y2839020D01*
X21100883Y2840883D01*
X20948538Y2965910D01*
X20946419Y2967043D01*
X20946414Y2967046D01*
X20776857Y3057676D01*
X20776853Y3057678D01*
X20774727Y3058814D01*
X20772423Y3059513D01*
X20772418Y3059515D01*
X20588433Y3115326D01*
X20586132Y3116024D01*
X20583744Y3116259D01*
X20583740Y3116260D01*
X20392396Y3135105D01*
X20390000Y3135341D01*
X20387604Y3135105D01*
X20196260Y3116260D01*
X20196256Y3116259D01*
X20193868Y3116024D01*
X20191567Y3115326D01*
X20007582Y3059515D01*
X20007577Y3059513D01*
X20005273Y3058814D01*
X20003147Y3057678D01*
X20003143Y3057676D01*
X19833586Y2967046D01*
X19833581Y2967043D01*
X19831462Y2965910D01*
X19679117Y2840883D01*
X19677588Y2839020D01*
X19665242Y2823976D01*
X19554090Y2688538D01*
X19552957Y2686419D01*
X19552954Y2686414D01*
X19462324Y2516857D01*
X19462322Y2516853D01*
X19461186Y2514727D01*
X19460487Y2512423D01*
X19460485Y2512418D01*
X19424487Y2393747D01*
X19403976Y2326132D01*
X19384659Y2130000D01*
X19403976Y1933868D01*
X19461186Y1745273D01*
X19462318Y1743154D01*
X19462319Y1743153D01*
X19510177Y1653618D01*
X19513853Y1616295D01*
X19501611Y1595871D01*
X18890592Y984852D01*
X18855944Y970500D01*
X13633966Y970500D01*
X13599318Y984852D01*
X13584966Y1019500D01*
X13599318Y1054148D01*
X13603870Y1058168D01*
X13691301Y1126218D01*
X13694270Y1128951D01*
X13843956Y1291554D01*
X13846432Y1294735D01*
X13967313Y1479756D01*
X13969230Y1483299D01*
X14058011Y1685698D01*
X14059317Y1689502D01*
X14104152Y1866553D01*
X14103076Y1873933D01*
X14100305Y1876000D01*
X11443203Y1876000D01*
X11436311Y1873145D01*
X11434988Y1869951D01*
X11480683Y1689502D01*
X11481989Y1685698D01*
X11570770Y1483299D01*
X11572687Y1479756D01*
X11693568Y1294735D01*
X11696044Y1291554D01*
X11845730Y1128951D01*
X11848699Y1126218D01*
X11936130Y1058168D01*
X11954658Y1025561D01*
X11944702Y989404D01*
X11912095Y970876D01*
X11906034Y970500D01*
X4594056Y970500D01*
X4559408Y984852D01*
X4279080Y1265180D01*
X6689500Y1265180D01*
X6698233Y1221278D01*
X6731496Y1171496D01*
X6781278Y1138233D01*
X6825180Y1129500D01*
X8554820Y1129500D01*
X8598722Y1138233D01*
X8648504Y1171496D01*
X8681767Y1221278D01*
X8690500Y1265180D01*
X8690500Y2130000D01*
X9224659Y2130000D01*
X9243976Y1933868D01*
X9244674Y1931567D01*
X9300485Y1747582D01*
X9300487Y1747577D01*
X9301186Y1745273D01*
X9302322Y1743147D01*
X9302324Y1743143D01*
X9392954Y1573586D01*
X9392957Y1573581D01*
X9394090Y1571462D01*
X9519117Y1419117D01*
X9671462Y1294090D01*
X9673581Y1292957D01*
X9673586Y1292954D01*
X9843143Y1202324D01*
X9843147Y1202322D01*
X9845273Y1201186D01*
X9847577Y1200487D01*
X9847582Y1200485D01*
X10009282Y1151434D01*
X10033868Y1143976D01*
X10036256Y1143741D01*
X10036260Y1143740D01*
X10227604Y1124895D01*
X10230000Y1124659D01*
X10232396Y1124895D01*
X10423740Y1143740D01*
X10423744Y1143741D01*
X10426132Y1143976D01*
X10450718Y1151434D01*
X10612418Y1200485D01*
X10612423Y1200487D01*
X10614727Y1201186D01*
X10616853Y1202322D01*
X10616857Y1202324D01*
X10786414Y1292954D01*
X10786419Y1292957D01*
X10788538Y1294090D01*
X10940883Y1419117D01*
X11065910Y1571462D01*
X11067043Y1573581D01*
X11067046Y1573586D01*
X11157676Y1743143D01*
X11157678Y1743147D01*
X11158814Y1745273D01*
X11159513Y1747577D01*
X11159515Y1747582D01*
X11215326Y1931567D01*
X11216024Y1933868D01*
X11235341Y2130000D01*
X14304659Y2130000D01*
X14323976Y1933868D01*
X14324674Y1931567D01*
X14380485Y1747582D01*
X14380487Y1747577D01*
X14381186Y1745273D01*
X14382322Y1743147D01*
X14382324Y1743143D01*
X14472954Y1573586D01*
X14472957Y1573581D01*
X14474090Y1571462D01*
X14599117Y1419117D01*
X14751462Y1294090D01*
X14753581Y1292957D01*
X14753586Y1292954D01*
X14923143Y1202324D01*
X14923147Y1202322D01*
X14925273Y1201186D01*
X14927577Y1200487D01*
X14927582Y1200485D01*
X15089282Y1151434D01*
X15113868Y1143976D01*
X15116256Y1143741D01*
X15116260Y1143740D01*
X15307604Y1124895D01*
X15310000Y1124659D01*
X15312396Y1124895D01*
X15503740Y1143740D01*
X15503744Y1143741D01*
X15506132Y1143976D01*
X15530718Y1151434D01*
X15692418Y1200485D01*
X15692423Y1200487D01*
X15694727Y1201186D01*
X15696853Y1202322D01*
X15696857Y1202324D01*
X15866414Y1292954D01*
X15866419Y1292957D01*
X15868538Y1294090D01*
X16020883Y1419117D01*
X16145910Y1571462D01*
X16147043Y1573581D01*
X16147046Y1573586D01*
X16237676Y1743143D01*
X16237678Y1743147D01*
X16238814Y1745273D01*
X16239513Y1747577D01*
X16239515Y1747582D01*
X16295326Y1931567D01*
X16296024Y1933868D01*
X16315341Y2130000D01*
X16844659Y2130000D01*
X16863976Y1933868D01*
X16864674Y1931567D01*
X16920485Y1747582D01*
X16920487Y1747577D01*
X16921186Y1745273D01*
X16922322Y1743147D01*
X16922324Y1743143D01*
X17012954Y1573586D01*
X17012957Y1573581D01*
X17014090Y1571462D01*
X17139117Y1419117D01*
X17291462Y1294090D01*
X17293581Y1292957D01*
X17293586Y1292954D01*
X17463143Y1202324D01*
X17463147Y1202322D01*
X17465273Y1201186D01*
X17467577Y1200487D01*
X17467582Y1200485D01*
X17629282Y1151434D01*
X17653868Y1143976D01*
X17656256Y1143741D01*
X17656260Y1143740D01*
X17847604Y1124895D01*
X17850000Y1124659D01*
X17852396Y1124895D01*
X18043740Y1143740D01*
X18043744Y1143741D01*
X18046132Y1143976D01*
X18070718Y1151434D01*
X18232418Y1200485D01*
X18232423Y1200487D01*
X18234727Y1201186D01*
X18236853Y1202322D01*
X18236857Y1202324D01*
X18406414Y1292954D01*
X18406419Y1292957D01*
X18408538Y1294090D01*
X18560883Y1419117D01*
X18685910Y1571462D01*
X18687043Y1573581D01*
X18687046Y1573586D01*
X18777676Y1743143D01*
X18777678Y1743147D01*
X18778814Y1745273D01*
X18779513Y1747577D01*
X18779515Y1747582D01*
X18835326Y1931567D01*
X18836024Y1933868D01*
X18855341Y2130000D01*
X18836024Y2326132D01*
X18815513Y2393747D01*
X18779515Y2512418D01*
X18779513Y2512423D01*
X18778814Y2514727D01*
X18777678Y2516853D01*
X18777676Y2516857D01*
X18687046Y2686414D01*
X18687043Y2686419D01*
X18685910Y2688538D01*
X18574758Y2823976D01*
X18562412Y2839020D01*
X18560883Y2840883D01*
X18408538Y2965910D01*
X18406419Y2967043D01*
X18406414Y2967046D01*
X18236857Y3057676D01*
X18236853Y3057678D01*
X18234727Y3058814D01*
X18232423Y3059513D01*
X18232418Y3059515D01*
X18048433Y3115326D01*
X18046132Y3116024D01*
X18043744Y3116259D01*
X18043740Y3116260D01*
X17852396Y3135105D01*
X17850000Y3135341D01*
X17847604Y3135105D01*
X17656260Y3116260D01*
X17656256Y3116259D01*
X17653868Y3116024D01*
X17651567Y3115326D01*
X17467582Y3059515D01*
X17467577Y3059513D01*
X17465273Y3058814D01*
X17463147Y3057678D01*
X17463143Y3057676D01*
X17293586Y2967046D01*
X17293581Y2967043D01*
X17291462Y2965910D01*
X17139117Y2840883D01*
X17137588Y2839020D01*
X17125242Y2823976D01*
X17014090Y2688538D01*
X17012957Y2686419D01*
X17012954Y2686414D01*
X16922324Y2516857D01*
X16922322Y2516853D01*
X16921186Y2514727D01*
X16920487Y2512423D01*
X16920485Y2512418D01*
X16884487Y2393747D01*
X16863976Y2326132D01*
X16844659Y2130000D01*
X16315341Y2130000D01*
X16296024Y2326132D01*
X16275513Y2393747D01*
X16239515Y2512418D01*
X16239513Y2512423D01*
X16238814Y2514727D01*
X16237678Y2516853D01*
X16237676Y2516857D01*
X16147046Y2686414D01*
X16147043Y2686419D01*
X16145910Y2688538D01*
X16034758Y2823976D01*
X16022412Y2839020D01*
X16020883Y2840883D01*
X15868538Y2965910D01*
X15866419Y2967043D01*
X15866414Y2967046D01*
X15696857Y3057676D01*
X15696853Y3057678D01*
X15694727Y3058814D01*
X15692423Y3059513D01*
X15692418Y3059515D01*
X15508433Y3115326D01*
X15506132Y3116024D01*
X15503744Y3116259D01*
X15503740Y3116260D01*
X15312396Y3135105D01*
X15310000Y3135341D01*
X15307604Y3135105D01*
X15116260Y3116260D01*
X15116256Y3116259D01*
X15113868Y3116024D01*
X15111567Y3115326D01*
X14927582Y3059515D01*
X14927577Y3059513D01*
X14925273Y3058814D01*
X14923147Y3057678D01*
X14923143Y3057676D01*
X14753586Y2967046D01*
X14753581Y2967043D01*
X14751462Y2965910D01*
X14599117Y2840883D01*
X14597588Y2839020D01*
X14585242Y2823976D01*
X14474090Y2688538D01*
X14472957Y2686419D01*
X14472954Y2686414D01*
X14382324Y2516857D01*
X14382322Y2516853D01*
X14381186Y2514727D01*
X14380487Y2512423D01*
X14380485Y2512418D01*
X14344487Y2393747D01*
X14323976Y2326132D01*
X14304659Y2130000D01*
X11235341Y2130000D01*
X11216024Y2326132D01*
X11195604Y2393447D01*
X11435848Y2393447D01*
X11436924Y2386067D01*
X11439695Y2384000D01*
X12506253Y2384000D01*
X12513145Y2386855D01*
X12516000Y2393747D01*
X13024000Y2393747D01*
X13026855Y2386855D01*
X13033747Y2384000D01*
X14096797Y2384000D01*
X14103689Y2386855D01*
X14105012Y2390049D01*
X14059317Y2570498D01*
X14058011Y2574302D01*
X13969230Y2776701D01*
X13967313Y2780244D01*
X13846432Y2965265D01*
X13843956Y2968446D01*
X13694270Y3131049D01*
X13691301Y3133782D01*
X13580527Y3220000D01*
X24169570Y3220000D01*
X24189168Y3096260D01*
X24246045Y2984633D01*
X24334633Y2896045D01*
X24338066Y2894296D01*
X24338067Y2894295D01*
X24361562Y2882324D01*
X24446260Y2839168D01*
X24450065Y2838565D01*
X24450066Y2838565D01*
X24566193Y2820173D01*
X24570000Y2819570D01*
X24573807Y2820173D01*
X24689934Y2838565D01*
X24689935Y2838565D01*
X24693740Y2839168D01*
X24778438Y2882324D01*
X24801933Y2894295D01*
X24801934Y2894296D01*
X24805367Y2896045D01*
X24893955Y2984633D01*
X24950832Y3096260D01*
X24970430Y3220000D01*
X24968023Y3235199D01*
X24976778Y3271666D01*
X24981772Y3277512D01*
X25248216Y3543955D01*
X25526270Y3822009D01*
X25533695Y3828103D01*
X25546590Y3836719D01*
X25550601Y3839399D01*
X25605966Y3922260D01*
X25620500Y3995326D01*
X25625408Y4020000D01*
X25621442Y4039940D01*
X25620500Y4049497D01*
X25620500Y10190503D01*
X25621442Y10200063D01*
X25624466Y10215265D01*
X25625408Y10220000D01*
X25605966Y10317741D01*
X25577517Y10360317D01*
X25550601Y10400601D01*
X25533692Y10411899D01*
X25526267Y10417993D01*
X25481772Y10462488D01*
X25467420Y10497136D01*
X25468023Y10504801D01*
X25469827Y10516192D01*
X25469827Y10516193D01*
X25470430Y10520000D01*
X25458696Y10594090D01*
X25451435Y10639934D01*
X25451435Y10639935D01*
X25450832Y10643740D01*
X25414934Y10714194D01*
X25395705Y10751933D01*
X25395704Y10751934D01*
X25393955Y10755367D01*
X25305367Y10843955D01*
X25301934Y10845704D01*
X25301933Y10845705D01*
X25203476Y10895871D01*
X25193740Y10900832D01*
X25189935Y10901435D01*
X25189934Y10901435D01*
X25073807Y10919827D01*
X25070000Y10920430D01*
X25066193Y10919827D01*
X24950066Y10901435D01*
X24950065Y10901435D01*
X24946260Y10900832D01*
X24936524Y10895871D01*
X24838067Y10845705D01*
X24838066Y10845704D01*
X24834633Y10843955D01*
X24746045Y10755367D01*
X24744296Y10751934D01*
X24744295Y10751933D01*
X24725066Y10714194D01*
X24689168Y10643740D01*
X24688565Y10639935D01*
X24688565Y10639934D01*
X24681304Y10594090D01*
X24669570Y10520000D01*
X24670173Y10516193D01*
X24688056Y10403284D01*
X24689168Y10396260D01*
X24690918Y10392826D01*
X24729176Y10317741D01*
X24746045Y10284633D01*
X24834633Y10196045D01*
X24838066Y10194296D01*
X24838067Y10194295D01*
X24885529Y10170112D01*
X24946260Y10139168D01*
X24950065Y10138565D01*
X24950066Y10138565D01*
X25030140Y10125883D01*
X25070000Y10119570D01*
X25071415Y10119794D01*
X25105148Y10105821D01*
X25119500Y10071173D01*
X25119500Y4144057D01*
X25105148Y4109409D01*
X24627512Y3631772D01*
X24592864Y3617420D01*
X24585199Y3618023D01*
X24573808Y3619827D01*
X24573807Y3619827D01*
X24570000Y3620430D01*
X24550995Y3617420D01*
X24450066Y3601435D01*
X24450065Y3601435D01*
X24446260Y3600832D01*
X24390446Y3572393D01*
X24338067Y3545705D01*
X24338066Y3545704D01*
X24334633Y3543955D01*
X24246045Y3455367D01*
X24244296Y3451934D01*
X24244295Y3451933D01*
X24231888Y3427582D01*
X24189168Y3343740D01*
X24169570Y3220000D01*
X13580527Y3220000D01*
X13516901Y3269522D01*
X13513516Y3271734D01*
X13319153Y3376918D01*
X13315458Y3378539D01*
X13106428Y3450299D01*
X13102516Y3451290D01*
X13033612Y3462788D01*
X13026346Y3461107D01*
X13024000Y3457349D01*
X13024000Y2393747D01*
X12516000Y2393747D01*
X12516000Y3454645D01*
X12513145Y3461537D01*
X12509052Y3463233D01*
X12437484Y3451290D01*
X12433572Y3450299D01*
X12224542Y3378539D01*
X12220847Y3376918D01*
X12026484Y3271734D01*
X12023099Y3269522D01*
X11848699Y3133782D01*
X11845730Y3131049D01*
X11696044Y2968446D01*
X11693568Y2965265D01*
X11572687Y2780244D01*
X11570770Y2776701D01*
X11481989Y2574302D01*
X11480683Y2570498D01*
X11435848Y2393447D01*
X11195604Y2393447D01*
X11195513Y2393747D01*
X11159515Y2512418D01*
X11159513Y2512423D01*
X11158814Y2514727D01*
X11157678Y2516853D01*
X11157676Y2516857D01*
X11067046Y2686414D01*
X11067043Y2686419D01*
X11065910Y2688538D01*
X10954758Y2823976D01*
X10942412Y2839020D01*
X10940883Y2840883D01*
X10788538Y2965910D01*
X10786419Y2967043D01*
X10786414Y2967046D01*
X10616857Y3057676D01*
X10616853Y3057678D01*
X10614727Y3058814D01*
X10612423Y3059513D01*
X10612418Y3059515D01*
X10428433Y3115326D01*
X10426132Y3116024D01*
X10423744Y3116259D01*
X10423740Y3116260D01*
X10232396Y3135105D01*
X10230000Y3135341D01*
X10227604Y3135105D01*
X10036260Y3116260D01*
X10036256Y3116259D01*
X10033868Y3116024D01*
X10031567Y3115326D01*
X9847582Y3059515D01*
X9847577Y3059513D01*
X9845273Y3058814D01*
X9843147Y3057678D01*
X9843143Y3057676D01*
X9673586Y2967046D01*
X9673581Y2967043D01*
X9671462Y2965910D01*
X9519117Y2840883D01*
X9517588Y2839020D01*
X9505242Y2823976D01*
X9394090Y2688538D01*
X9392957Y2686419D01*
X9392954Y2686414D01*
X9302324Y2516857D01*
X9302322Y2516853D01*
X9301186Y2514727D01*
X9300487Y2512423D01*
X9300485Y2512418D01*
X9264487Y2393747D01*
X9243976Y2326132D01*
X9224659Y2130000D01*
X8690500Y2130000D01*
X8690500Y2994820D01*
X8681767Y3038722D01*
X8648504Y3088504D01*
X8598722Y3121767D01*
X8554820Y3130500D01*
X6825180Y3130500D01*
X6781278Y3121767D01*
X6731496Y3088504D01*
X6698233Y3038722D01*
X6689500Y2994820D01*
X6689500Y1265180D01*
X4279080Y1265180D01*
X2634363Y2909897D01*
X2620011Y2944545D01*
X2620011Y3810000D01*
X2804659Y3810000D01*
X2804895Y3807604D01*
X2823567Y3618023D01*
X2823976Y3613868D01*
X2824674Y3611567D01*
X2880485Y3427582D01*
X2880487Y3427577D01*
X2881186Y3425273D01*
X2882322Y3423147D01*
X2882324Y3423143D01*
X2972954Y3253586D01*
X2972957Y3253581D01*
X2974090Y3251462D01*
X2975619Y3249599D01*
X3096717Y3102042D01*
X3099117Y3099117D01*
X3100980Y3097588D01*
X3172708Y3038722D01*
X3251462Y2974090D01*
X3253581Y2972957D01*
X3253586Y2972954D01*
X3423143Y2882324D01*
X3423147Y2882322D01*
X3425273Y2881186D01*
X3427577Y2880487D01*
X3427582Y2880485D01*
X3611567Y2824674D01*
X3613868Y2823976D01*
X3616256Y2823741D01*
X3616260Y2823740D01*
X3807604Y2804895D01*
X3810000Y2804659D01*
X3812396Y2804895D01*
X4003740Y2823740D01*
X4003744Y2823741D01*
X4006132Y2823976D01*
X4008433Y2824674D01*
X4192418Y2880485D01*
X4192423Y2880487D01*
X4194727Y2881186D01*
X4196853Y2882322D01*
X4196857Y2882324D01*
X4366414Y2972954D01*
X4366419Y2972957D01*
X4368538Y2974090D01*
X4447292Y3038722D01*
X4519020Y3097588D01*
X4520883Y3099117D01*
X4523284Y3102042D01*
X4644381Y3249599D01*
X4645910Y3251462D01*
X4647043Y3253581D01*
X4647046Y3253586D01*
X4737676Y3423143D01*
X4737678Y3423147D01*
X4738814Y3425273D01*
X4739513Y3427577D01*
X4739515Y3427582D01*
X4795326Y3611567D01*
X4796024Y3613868D01*
X4796434Y3618023D01*
X4815105Y3807604D01*
X4815341Y3810000D01*
X4812709Y3836719D01*
X4796260Y4003740D01*
X4796259Y4003744D01*
X4796024Y4006132D01*
X4782869Y4049497D01*
X4739515Y4192418D01*
X4739513Y4192423D01*
X4738814Y4194727D01*
X4737678Y4196853D01*
X4737676Y4196857D01*
X4647046Y4366414D01*
X4647043Y4366419D01*
X4645910Y4368538D01*
X4520883Y4520883D01*
X4368538Y4645910D01*
X4366419Y4647043D01*
X4366414Y4647046D01*
X4196857Y4737676D01*
X4196853Y4737678D01*
X4194727Y4738814D01*
X4192423Y4739513D01*
X4192418Y4739515D01*
X4008433Y4795326D01*
X4006132Y4796024D01*
X4003744Y4796259D01*
X4003740Y4796260D01*
X3812396Y4815105D01*
X3810000Y4815341D01*
X3807604Y4815105D01*
X3616260Y4796260D01*
X3616256Y4796259D01*
X3613868Y4796024D01*
X3611567Y4795326D01*
X3427582Y4739515D01*
X3427577Y4739513D01*
X3425273Y4738814D01*
X3423147Y4737678D01*
X3423143Y4737676D01*
X3253586Y4647046D01*
X3253581Y4647043D01*
X3251462Y4645910D01*
X3099117Y4520883D01*
X2974090Y4368538D01*
X2972957Y4366419D01*
X2972954Y4366414D01*
X2882324Y4196857D01*
X2882322Y4196853D01*
X2881186Y4194727D01*
X2880487Y4192423D01*
X2880485Y4192418D01*
X2837131Y4049497D01*
X2823976Y4006132D01*
X2823741Y4003744D01*
X2823740Y4003740D01*
X2807291Y3836719D01*
X2804659Y3810000D01*
X2620011Y3810000D01*
X2620011Y6350000D01*
X2804659Y6350000D01*
X2823976Y6153868D01*
X2824674Y6151567D01*
X2880485Y5967582D01*
X2880487Y5967577D01*
X2881186Y5965273D01*
X2882322Y5963147D01*
X2882324Y5963143D01*
X2972954Y5793586D01*
X2972957Y5793581D01*
X2974090Y5791462D01*
X2975619Y5789599D01*
X3096717Y5642042D01*
X3099117Y5639117D01*
X3251462Y5514090D01*
X3253581Y5512957D01*
X3253586Y5512954D01*
X3423143Y5422324D01*
X3423147Y5422322D01*
X3425273Y5421186D01*
X3427577Y5420487D01*
X3427582Y5420485D01*
X3611567Y5364674D01*
X3613868Y5363976D01*
X3616256Y5363741D01*
X3616260Y5363740D01*
X3807604Y5344895D01*
X3810000Y5344659D01*
X3812396Y5344895D01*
X4003740Y5363740D01*
X4003744Y5363741D01*
X4006132Y5363976D01*
X4008433Y5364674D01*
X4192418Y5420485D01*
X4192423Y5420487D01*
X4194727Y5421186D01*
X4196853Y5422322D01*
X4196857Y5422324D01*
X4366414Y5512954D01*
X4366419Y5512957D01*
X4368538Y5514090D01*
X4520883Y5639117D01*
X4523284Y5642042D01*
X4644381Y5789599D01*
X4645910Y5791462D01*
X4647043Y5793581D01*
X4647046Y5793586D01*
X4737676Y5963143D01*
X4737678Y5963147D01*
X4738814Y5965273D01*
X4739513Y5967577D01*
X4739515Y5967582D01*
X4795326Y6151567D01*
X4796024Y6153868D01*
X4815341Y6350000D01*
X4796024Y6546132D01*
X4793334Y6555000D01*
X4739515Y6732418D01*
X4739513Y6732423D01*
X4738814Y6734727D01*
X4737678Y6736853D01*
X4737676Y6736857D01*
X4647046Y6906414D01*
X4647043Y6906419D01*
X4645910Y6908538D01*
X4520883Y7060883D01*
X4368538Y7185910D01*
X4366419Y7187043D01*
X4366414Y7187046D01*
X4196857Y7277676D01*
X4196853Y7277678D01*
X4194727Y7278814D01*
X4192423Y7279513D01*
X4192418Y7279515D01*
X4008433Y7335326D01*
X4006132Y7336024D01*
X4003744Y7336259D01*
X4003740Y7336260D01*
X3812396Y7355105D01*
X3810000Y7355341D01*
X3807604Y7355105D01*
X3616260Y7336260D01*
X3616256Y7336259D01*
X3613868Y7336024D01*
X3611567Y7335326D01*
X3427582Y7279515D01*
X3427577Y7279513D01*
X3425273Y7278814D01*
X3423147Y7277678D01*
X3423143Y7277676D01*
X3253586Y7187046D01*
X3253581Y7187043D01*
X3251462Y7185910D01*
X3099117Y7060883D01*
X2974090Y6908538D01*
X2972957Y6906419D01*
X2972954Y6906414D01*
X2882324Y6736857D01*
X2882322Y6736853D01*
X2881186Y6734727D01*
X2880487Y6732423D01*
X2880485Y6732418D01*
X2826666Y6555000D01*
X2823976Y6546132D01*
X2804659Y6350000D01*
X2620011Y6350000D01*
X2620011Y8890000D01*
X2804659Y8890000D01*
X2823976Y8693868D01*
X2824674Y8691567D01*
X2880485Y8507582D01*
X2880487Y8507577D01*
X2881186Y8505273D01*
X2882322Y8503147D01*
X2882324Y8503143D01*
X2972954Y8333586D01*
X2972957Y8333581D01*
X2974090Y8331462D01*
X2975619Y8329599D01*
X3096717Y8182042D01*
X3099117Y8179117D01*
X3251462Y8054090D01*
X3253581Y8052957D01*
X3253586Y8052954D01*
X3423143Y7962324D01*
X3423147Y7962322D01*
X3425273Y7961186D01*
X3427577Y7960487D01*
X3427582Y7960485D01*
X3611567Y7904674D01*
X3613868Y7903976D01*
X3616256Y7903741D01*
X3616260Y7903740D01*
X3807604Y7884895D01*
X3810000Y7884659D01*
X3812396Y7884895D01*
X4003740Y7903740D01*
X4003744Y7903741D01*
X4006132Y7903976D01*
X4008433Y7904674D01*
X4192418Y7960485D01*
X4192423Y7960487D01*
X4194727Y7961186D01*
X4196853Y7962322D01*
X4196857Y7962324D01*
X4366414Y8052954D01*
X4366419Y8052957D01*
X4368538Y8054090D01*
X4520883Y8179117D01*
X4523284Y8182042D01*
X4644381Y8329599D01*
X4645910Y8331462D01*
X4647043Y8333581D01*
X4647046Y8333586D01*
X4737676Y8503143D01*
X4737678Y8503147D01*
X4738814Y8505273D01*
X4739513Y8507577D01*
X4739515Y8507582D01*
X4795326Y8691567D01*
X4796024Y8693868D01*
X4815341Y8890000D01*
X4796024Y9086132D01*
X4785698Y9120173D01*
X4739515Y9272418D01*
X4739513Y9272423D01*
X4738814Y9274727D01*
X4737678Y9276853D01*
X4737676Y9276857D01*
X4647046Y9446414D01*
X4647043Y9446419D01*
X4645910Y9448538D01*
X4587262Y9520000D01*
X9469570Y9520000D01*
X9470173Y9516193D01*
X9481225Y9446414D01*
X9489168Y9396260D01*
X9546045Y9284633D01*
X9634633Y9196045D01*
X9638066Y9194296D01*
X9638067Y9194295D01*
X9690447Y9167606D01*
X9746260Y9139168D01*
X9750065Y9138565D01*
X9750066Y9138565D01*
X9866193Y9120173D01*
X9870000Y9119570D01*
X9873807Y9120173D01*
X9989934Y9138565D01*
X9989935Y9138565D01*
X9993740Y9139168D01*
X10049553Y9167606D01*
X10101933Y9194295D01*
X10101934Y9194296D01*
X10105367Y9196045D01*
X10164470Y9255148D01*
X10199118Y9269500D01*
X14940882Y9269500D01*
X14975530Y9255148D01*
X15034633Y9196045D01*
X15038066Y9194296D01*
X15038067Y9194295D01*
X15090447Y9167606D01*
X15146260Y9139168D01*
X15150065Y9138565D01*
X15150066Y9138565D01*
X15266193Y9120173D01*
X15270000Y9119570D01*
X15273807Y9120173D01*
X15389934Y9138565D01*
X15389935Y9138565D01*
X15393740Y9139168D01*
X15449553Y9167606D01*
X15501933Y9194295D01*
X15501934Y9194296D01*
X15505367Y9196045D01*
X15593955Y9284633D01*
X15650832Y9396260D01*
X15658776Y9446414D01*
X15669827Y9516193D01*
X15670430Y9520000D01*
X15654188Y9622550D01*
X15651435Y9639934D01*
X15651435Y9639935D01*
X15650832Y9643740D01*
X15593955Y9755367D01*
X15505367Y9843955D01*
X15501934Y9845704D01*
X15501933Y9845705D01*
X15407576Y9893782D01*
X15393740Y9900832D01*
X15389935Y9901435D01*
X15389934Y9901435D01*
X15273807Y9919827D01*
X15270000Y9920430D01*
X15266193Y9919827D01*
X15150066Y9901435D01*
X15150065Y9901435D01*
X15146260Y9900832D01*
X15132424Y9893782D01*
X15038067Y9845705D01*
X15038066Y9845704D01*
X15034633Y9843955D01*
X14975530Y9784852D01*
X14940882Y9770500D01*
X10199118Y9770500D01*
X10164470Y9784852D01*
X10105367Y9843955D01*
X10101934Y9845704D01*
X10101933Y9845705D01*
X10007576Y9893782D01*
X9993740Y9900832D01*
X9989935Y9901435D01*
X9989934Y9901435D01*
X9873807Y9919827D01*
X9870000Y9920430D01*
X9866193Y9919827D01*
X9750066Y9901435D01*
X9750065Y9901435D01*
X9746260Y9900832D01*
X9732424Y9893782D01*
X9638067Y9845705D01*
X9638066Y9845704D01*
X9634633Y9843955D01*
X9546045Y9755367D01*
X9489168Y9643740D01*
X9488565Y9639935D01*
X9488565Y9639934D01*
X9485812Y9622550D01*
X9469570Y9520000D01*
X4587262Y9520000D01*
X4520883Y9600883D01*
X4473300Y9639934D01*
X4370401Y9724381D01*
X4368538Y9725910D01*
X4366419Y9727043D01*
X4366414Y9727046D01*
X4196857Y9817676D01*
X4196853Y9817678D01*
X4194727Y9818814D01*
X4192423Y9819513D01*
X4192418Y9819515D01*
X4008433Y9875326D01*
X4006132Y9876024D01*
X4003744Y9876259D01*
X4003740Y9876260D01*
X3812396Y9895105D01*
X3810000Y9895341D01*
X3807604Y9895105D01*
X3616260Y9876260D01*
X3616256Y9876259D01*
X3613868Y9876024D01*
X3611567Y9875326D01*
X3427582Y9819515D01*
X3427577Y9819513D01*
X3425273Y9818814D01*
X3423147Y9817678D01*
X3423143Y9817676D01*
X3253586Y9727046D01*
X3253581Y9727043D01*
X3251462Y9725910D01*
X3249599Y9724381D01*
X3146701Y9639934D01*
X3099117Y9600883D01*
X2974090Y9448538D01*
X2972957Y9446419D01*
X2972954Y9446414D01*
X2882324Y9276857D01*
X2882322Y9276853D01*
X2881186Y9274727D01*
X2880487Y9272423D01*
X2880485Y9272418D01*
X2834302Y9120173D01*
X2823976Y9086132D01*
X2804659Y8890000D01*
X2620011Y8890000D01*
X2620011Y9865455D01*
X2634363Y9900103D01*
X3275871Y10541611D01*
X3310519Y10555963D01*
X3333617Y10550177D01*
X3425273Y10501186D01*
X3613868Y10443976D01*
X3616256Y10443741D01*
X3616260Y10443740D01*
X3807604Y10424895D01*
X3810000Y10424659D01*
X3812396Y10424895D01*
X4003740Y10443740D01*
X4003744Y10443741D01*
X4006132Y10443976D01*
X4067158Y10462488D01*
X4192418Y10500485D01*
X4192423Y10500487D01*
X4194727Y10501186D01*
X4196853Y10502322D01*
X4196857Y10502324D01*
X4366414Y10592954D01*
X4366419Y10592957D01*
X4368538Y10594090D01*
X4520883Y10719117D01*
X4523284Y10722042D01*
X4644381Y10869599D01*
X4645910Y10871462D01*
X4647043Y10873581D01*
X4647046Y10873586D01*
X4737676Y11043143D01*
X4737678Y11043147D01*
X4738814Y11045273D01*
X4739513Y11047577D01*
X4739515Y11047582D01*
X4795326Y11231567D01*
X4796024Y11233868D01*
X4815341Y11430000D01*
X4796024Y11626132D01*
X4775513Y11693747D01*
X4739515Y11812418D01*
X4739513Y11812423D01*
X4738814Y11814727D01*
X4737678Y11816853D01*
X4737676Y11816857D01*
X4647046Y11986414D01*
X4647043Y11986419D01*
X4645910Y11988538D01*
X4520883Y12140883D01*
X4368538Y12265910D01*
X4366419Y12267043D01*
X4366414Y12267046D01*
X4196857Y12357676D01*
X4196853Y12357678D01*
X4194727Y12358814D01*
X4192423Y12359513D01*
X4192418Y12359515D01*
X4008433Y12415326D01*
X4006132Y12416024D01*
X4003744Y12416259D01*
X4003740Y12416260D01*
X3812396Y12435105D01*
X3810000Y12435341D01*
X3807604Y12435105D01*
X3616260Y12416260D01*
X3616256Y12416259D01*
X3613868Y12416024D01*
X3611567Y12415326D01*
X3427582Y12359515D01*
X3427577Y12359513D01*
X3425273Y12358814D01*
X3423147Y12357678D01*
X3423143Y12357676D01*
X3253586Y12267046D01*
X3253581Y12267043D01*
X3251462Y12265910D01*
X3099117Y12140883D01*
X2974090Y11988538D01*
X2972957Y11986419D01*
X2972954Y11986414D01*
X2882324Y11816857D01*
X2882322Y11816853D01*
X2881186Y11814727D01*
X2880487Y11812423D01*
X2880485Y11812418D01*
X2844487Y11693747D01*
X2823976Y11626132D01*
X2804659Y11430000D01*
X2823976Y11233868D01*
X2881186Y11045273D01*
X2882318Y11043154D01*
X2882319Y11043153D01*
X2930177Y10953618D01*
X2933853Y10916295D01*
X2921611Y10895871D01*
X2213244Y10187504D01*
X2205819Y10181410D01*
X2188910Y10170112D01*
X2153454Y10117047D01*
X2133545Y10087252D01*
X2130347Y10071173D01*
X2123455Y10036526D01*
X2102620Y10005344D01*
X2065837Y9998028D01*
X2045301Y10007418D01*
X2016901Y10029522D01*
X2013516Y10031734D01*
X1856132Y10116906D01*
X1832490Y10146019D01*
X1836359Y10183321D01*
X1856132Y10203094D01*
X2013516Y10288266D01*
X2016901Y10290478D01*
X2191301Y10426218D01*
X2194270Y10428951D01*
X2343956Y10591554D01*
X2346432Y10594735D01*
X2467313Y10779756D01*
X2469230Y10783299D01*
X2558011Y10985698D01*
X2559317Y10989502D01*
X2604152Y11166553D01*
X2603076Y11173933D01*
X2600305Y11176000D01*
X1533747Y11176000D01*
X1526855Y11173145D01*
X1524000Y11166253D01*
X1524000Y9153747D01*
X1526855Y9146855D01*
X1533747Y9144000D01*
X2070011Y9144000D01*
X2104659Y9129648D01*
X2119011Y9095000D01*
X2119011Y8685000D01*
X2104659Y8650352D01*
X2070011Y8636000D01*
X1533747Y8636000D01*
X1526855Y8633145D01*
X1524000Y8626253D01*
X1524000Y6613747D01*
X1526855Y6606855D01*
X1533747Y6604000D01*
X2070011Y6604000D01*
X2104659Y6589648D01*
X2119011Y6555000D01*
X2119011Y6145000D01*
X2104659Y6110352D01*
X2070011Y6096000D01*
X1533747Y6096000D01*
X1526855Y6093145D01*
X1524000Y6086253D01*
X1524000Y4073747D01*
X1526855Y4066855D01*
X1533747Y4064000D01*
X2070011Y4064000D01*
X2104659Y4049648D01*
X2119011Y4015000D01*
X2119011Y3605000D01*
X2104659Y3570352D01*
X2070011Y3556000D01*
X1533747Y3556000D01*
X1526855Y3553145D01*
X1524000Y3546253D01*
X1524000Y2485355D01*
X1016000Y2485355D01*
X1016000Y11693747D01*
X1524000Y11693747D01*
X1526855Y11686855D01*
X1533747Y11684000D01*
X2596797Y11684000D01*
X2603689Y11686855D01*
X2605012Y11690049D01*
X2559317Y11870498D01*
X2558011Y11874302D01*
X2469230Y12076701D01*
X2467313Y12080244D01*
X2346432Y12265265D01*
X2343956Y12268446D01*
X2194270Y12431049D01*
X2191301Y12433782D01*
X2016901Y12569522D01*
X2013516Y12571734D01*
X1856132Y12656906D01*
X1832490Y12686019D01*
X1836359Y12723321D01*
X1856132Y12743094D01*
X2013516Y12828266D01*
X2016901Y12830478D01*
X2191301Y12966218D01*
X2194270Y12968951D01*
X2343956Y13131554D01*
X2346432Y13134735D01*
X2467313Y13319756D01*
X2469230Y13323299D01*
X2558011Y13525698D01*
X2559317Y13529502D01*
X2604152Y13706553D01*
X2603076Y13713933D01*
X2600305Y13716000D01*
X1533747Y13716000D01*
X1526855Y13713145D01*
X1524000Y13706253D01*
X1524000Y11693747D01*
X1016000Y11693747D01*
X1016000Y13970000D01*
X2804659Y13970000D01*
X2823976Y13773868D01*
X2824674Y13771567D01*
X2880485Y13587582D01*
X2880487Y13587577D01*
X2881186Y13585273D01*
X2882322Y13583147D01*
X2882324Y13583143D01*
X2972954Y13413586D01*
X2972957Y13413581D01*
X2974090Y13411462D01*
X2975619Y13409599D01*
X3096717Y13262042D01*
X3099117Y13259117D01*
X3251462Y13134090D01*
X3253581Y13132957D01*
X3253586Y13132954D01*
X3423143Y13042324D01*
X3423147Y13042322D01*
X3425273Y13041186D01*
X3427577Y13040487D01*
X3427582Y13040485D01*
X3611567Y12984674D01*
X3613868Y12983976D01*
X3616256Y12983741D01*
X3616260Y12983740D01*
X3807604Y12964895D01*
X3810000Y12964659D01*
X3812396Y12964895D01*
X4003740Y12983740D01*
X4003744Y12983741D01*
X4006132Y12983976D01*
X4008433Y12984674D01*
X4192418Y13040485D01*
X4192423Y13040487D01*
X4194727Y13041186D01*
X4196853Y13042322D01*
X4196857Y13042324D01*
X4366414Y13132954D01*
X4366419Y13132957D01*
X4368538Y13134090D01*
X4520883Y13259117D01*
X4523284Y13262042D01*
X4644381Y13409599D01*
X4645910Y13411462D01*
X4647043Y13413581D01*
X4647046Y13413586D01*
X4737676Y13583143D01*
X4737678Y13583147D01*
X4738814Y13585273D01*
X4739513Y13587577D01*
X4739515Y13587582D01*
X4795326Y13771567D01*
X4796024Y13773868D01*
X4815341Y13970000D01*
X4796024Y14166132D01*
X4775513Y14233747D01*
X4739515Y14352418D01*
X4739513Y14352423D01*
X4738814Y14354727D01*
X4737678Y14356853D01*
X4737676Y14356857D01*
X4647046Y14526414D01*
X4647043Y14526419D01*
X4645910Y14528538D01*
X4520883Y14680883D01*
X4368538Y14805910D01*
X4366419Y14807043D01*
X4366414Y14807046D01*
X4196857Y14897676D01*
X4196853Y14897678D01*
X4194727Y14898814D01*
X4192423Y14899513D01*
X4192418Y14899515D01*
X4008433Y14955326D01*
X4006132Y14956024D01*
X4003744Y14956259D01*
X4003740Y14956260D01*
X3812396Y14975105D01*
X3810000Y14975341D01*
X3807604Y14975105D01*
X3616260Y14956260D01*
X3616256Y14956259D01*
X3613868Y14956024D01*
X3611567Y14955326D01*
X3427582Y14899515D01*
X3427577Y14899513D01*
X3425273Y14898814D01*
X3423147Y14897678D01*
X3423143Y14897676D01*
X3253586Y14807046D01*
X3253581Y14807043D01*
X3251462Y14805910D01*
X3099117Y14680883D01*
X2974090Y14528538D01*
X2972957Y14526419D01*
X2972954Y14526414D01*
X2882324Y14356857D01*
X2882322Y14356853D01*
X2881186Y14354727D01*
X2880487Y14352423D01*
X2880485Y14352418D01*
X2844487Y14233747D01*
X2823976Y14166132D01*
X2804659Y13970000D01*
X1016000Y13970000D01*
X1016000Y14233747D01*
X1524000Y14233747D01*
X1526855Y14226855D01*
X1533747Y14224000D01*
X2596797Y14224000D01*
X2603689Y14226855D01*
X2605012Y14230049D01*
X2559317Y14410498D01*
X2558011Y14414302D01*
X2469230Y14616701D01*
X2467313Y14620244D01*
X2346432Y14805265D01*
X2343956Y14808446D01*
X2194270Y14971049D01*
X2191301Y14973782D01*
X2016901Y15109522D01*
X2013516Y15111734D01*
X1856132Y15196906D01*
X1832490Y15226019D01*
X1836359Y15263321D01*
X1856132Y15283094D01*
X2013516Y15368266D01*
X2016901Y15370478D01*
X2191301Y15506218D01*
X2194270Y15508951D01*
X2343956Y15671554D01*
X2346432Y15674735D01*
X2467313Y15859756D01*
X2469230Y15863299D01*
X2558011Y16065698D01*
X2559317Y16069502D01*
X2604152Y16246553D01*
X2603076Y16253933D01*
X2600305Y16256000D01*
X1533747Y16256000D01*
X1526855Y16253145D01*
X1524000Y16246253D01*
X1524000Y14233747D01*
X1016000Y14233747D01*
X1016000Y16510000D01*
X2804659Y16510000D01*
X2823976Y16313868D01*
X2824674Y16311567D01*
X2880485Y16127582D01*
X2880487Y16127577D01*
X2881186Y16125273D01*
X2882322Y16123147D01*
X2882324Y16123143D01*
X2972954Y15953586D01*
X2972957Y15953581D01*
X2974090Y15951462D01*
X2975619Y15949599D01*
X3096717Y15802042D01*
X3099117Y15799117D01*
X3251462Y15674090D01*
X3253581Y15672957D01*
X3253586Y15672954D01*
X3423143Y15582324D01*
X3423147Y15582322D01*
X3425273Y15581186D01*
X3427577Y15580487D01*
X3427582Y15580485D01*
X3611567Y15524674D01*
X3613868Y15523976D01*
X3616256Y15523741D01*
X3616260Y15523740D01*
X3807604Y15504895D01*
X3810000Y15504659D01*
X3812396Y15504895D01*
X4003740Y15523740D01*
X4003744Y15523741D01*
X4006132Y15523976D01*
X4008433Y15524674D01*
X4192418Y15580485D01*
X4192423Y15580487D01*
X4194727Y15581186D01*
X4196853Y15582322D01*
X4196857Y15582324D01*
X4366414Y15672954D01*
X4366419Y15672957D01*
X4368538Y15674090D01*
X4520883Y15799117D01*
X4523284Y15802042D01*
X4644381Y15949599D01*
X4645910Y15951462D01*
X4647043Y15953581D01*
X4647046Y15953586D01*
X4737676Y16123143D01*
X4737678Y16123147D01*
X4738814Y16125273D01*
X4739513Y16127577D01*
X4739515Y16127582D01*
X4795326Y16311567D01*
X4796024Y16313868D01*
X4815341Y16510000D01*
X4796024Y16706132D01*
X4775513Y16773747D01*
X4739515Y16892418D01*
X4739513Y16892423D01*
X4738814Y16894727D01*
X4737678Y16896853D01*
X4737676Y16896857D01*
X4647046Y17066414D01*
X4647043Y17066419D01*
X4645910Y17068538D01*
X4520883Y17220883D01*
X4368538Y17345910D01*
X4366419Y17347043D01*
X4366414Y17347046D01*
X4196857Y17437676D01*
X4196853Y17437678D01*
X4194727Y17438814D01*
X4192423Y17439513D01*
X4192418Y17439515D01*
X4008433Y17495326D01*
X4006132Y17496024D01*
X4003744Y17496259D01*
X4003740Y17496260D01*
X3812396Y17515105D01*
X3810000Y17515341D01*
X3807604Y17515105D01*
X3616260Y17496260D01*
X3616256Y17496259D01*
X3613868Y17496024D01*
X3611567Y17495326D01*
X3427582Y17439515D01*
X3427577Y17439513D01*
X3425273Y17438814D01*
X3423147Y17437678D01*
X3423143Y17437676D01*
X3253586Y17347046D01*
X3253581Y17347043D01*
X3251462Y17345910D01*
X3099117Y17220883D01*
X2974090Y17068538D01*
X2972957Y17066419D01*
X2972954Y17066414D01*
X2882324Y16896857D01*
X2882322Y16896853D01*
X2881186Y16894727D01*
X2880487Y16892423D01*
X2880485Y16892418D01*
X2844487Y16773747D01*
X2823976Y16706132D01*
X2804659Y16510000D01*
X1016000Y16510000D01*
X1016000Y16773747D01*
X1524000Y16773747D01*
X1526855Y16766855D01*
X1533747Y16764000D01*
X2596797Y16764000D01*
X2603689Y16766855D01*
X2605012Y16770049D01*
X2559317Y16950498D01*
X2558011Y16954302D01*
X2469230Y17156701D01*
X2467313Y17160244D01*
X2346432Y17345265D01*
X2343956Y17348446D01*
X2194270Y17511049D01*
X2191301Y17513782D01*
X2016901Y17649522D01*
X2013516Y17651734D01*
X1856132Y17736906D01*
X1832490Y17766019D01*
X1836359Y17803321D01*
X1856132Y17823094D01*
X2013516Y17908266D01*
X2016901Y17910478D01*
X2191301Y18046218D01*
X2194270Y18048951D01*
X2343956Y18211554D01*
X2346432Y18214735D01*
X2467313Y18399756D01*
X2469230Y18403299D01*
X2558011Y18605698D01*
X2559317Y18609502D01*
X2604152Y18786553D01*
X2603076Y18793933D01*
X2600305Y18796000D01*
X1533747Y18796000D01*
X1526855Y18793145D01*
X1524000Y18786253D01*
X1524000Y16773747D01*
X1016000Y16773747D01*
X1016000Y19050000D01*
X2804659Y19050000D01*
X2823976Y18853868D01*
X2824674Y18851567D01*
X2880485Y18667582D01*
X2880487Y18667577D01*
X2881186Y18665273D01*
X2882322Y18663147D01*
X2882324Y18663143D01*
X2972954Y18493586D01*
X2972957Y18493581D01*
X2974090Y18491462D01*
X2975619Y18489599D01*
X3096717Y18342042D01*
X3099117Y18339117D01*
X3251462Y18214090D01*
X3253581Y18212957D01*
X3253586Y18212954D01*
X3423143Y18122324D01*
X3423147Y18122322D01*
X3425273Y18121186D01*
X3427577Y18120487D01*
X3427582Y18120485D01*
X3611567Y18064674D01*
X3613868Y18063976D01*
X3616256Y18063741D01*
X3616260Y18063740D01*
X3807604Y18044895D01*
X3810000Y18044659D01*
X3812396Y18044895D01*
X4003740Y18063740D01*
X4003744Y18063741D01*
X4006132Y18063976D01*
X4008433Y18064674D01*
X4192418Y18120485D01*
X4192423Y18120487D01*
X4194727Y18121186D01*
X4196853Y18122322D01*
X4196857Y18122324D01*
X4366414Y18212954D01*
X4366419Y18212957D01*
X4368538Y18214090D01*
X4520883Y18339117D01*
X4523284Y18342042D01*
X4644381Y18489599D01*
X4645910Y18491462D01*
X4647043Y18493581D01*
X4647046Y18493586D01*
X4737676Y18663143D01*
X4737678Y18663147D01*
X4738814Y18665273D01*
X4739513Y18667577D01*
X4739515Y18667582D01*
X4795326Y18851567D01*
X4796024Y18853868D01*
X4815341Y19050000D01*
X4796024Y19246132D01*
X4775513Y19313747D01*
X4739515Y19432418D01*
X4739513Y19432423D01*
X4738814Y19434727D01*
X4737678Y19436853D01*
X4737676Y19436857D01*
X4647046Y19606414D01*
X4647043Y19606419D01*
X4645910Y19608538D01*
X4520883Y19760883D01*
X4368538Y19885910D01*
X4366419Y19887043D01*
X4366414Y19887046D01*
X4196857Y19977676D01*
X4196853Y19977678D01*
X4194727Y19978814D01*
X4192423Y19979513D01*
X4192418Y19979515D01*
X4008433Y20035326D01*
X4006132Y20036024D01*
X4003744Y20036259D01*
X4003740Y20036260D01*
X3812396Y20055105D01*
X3810000Y20055341D01*
X3807604Y20055105D01*
X3616260Y20036260D01*
X3616256Y20036259D01*
X3613868Y20036024D01*
X3611567Y20035326D01*
X3427582Y19979515D01*
X3427577Y19979513D01*
X3425273Y19978814D01*
X3423147Y19977678D01*
X3423143Y19977676D01*
X3253586Y19887046D01*
X3253581Y19887043D01*
X3251462Y19885910D01*
X3099117Y19760883D01*
X2974090Y19608538D01*
X2972957Y19606419D01*
X2972954Y19606414D01*
X2882324Y19436857D01*
X2882322Y19436853D01*
X2881186Y19434727D01*
X2880487Y19432423D01*
X2880485Y19432418D01*
X2844487Y19313747D01*
X2823976Y19246132D01*
X2804659Y19050000D01*
X1016000Y19050000D01*
X1016000Y19313747D01*
X1524000Y19313747D01*
X1526855Y19306855D01*
X1533747Y19304000D01*
X2596797Y19304000D01*
X2603689Y19306855D01*
X2605012Y19310049D01*
X2559317Y19490498D01*
X2558011Y19494302D01*
X2469230Y19696701D01*
X2467313Y19700244D01*
X2346432Y19885265D01*
X2343956Y19888446D01*
X2194270Y20051049D01*
X2191301Y20053782D01*
X2016901Y20189522D01*
X2013516Y20191734D01*
X1856132Y20276906D01*
X1832490Y20306019D01*
X1836359Y20343321D01*
X1856132Y20363094D01*
X2013516Y20448266D01*
X2016901Y20450478D01*
X2191301Y20586218D01*
X2194270Y20588951D01*
X2343956Y20751554D01*
X2346432Y20754735D01*
X2467313Y20939756D01*
X2469230Y20943299D01*
X2558011Y21145698D01*
X2559317Y21149502D01*
X2604152Y21326553D01*
X2603076Y21333933D01*
X2600305Y21336000D01*
X1533747Y21336000D01*
X1526855Y21333145D01*
X1524000Y21326253D01*
X1524000Y19313747D01*
X1016000Y19313747D01*
X1016000Y21590000D01*
X2804659Y21590000D01*
X2823976Y21393868D01*
X2824674Y21391567D01*
X2880485Y21207582D01*
X2880487Y21207577D01*
X2881186Y21205273D01*
X2882322Y21203147D01*
X2882324Y21203143D01*
X2972954Y21033586D01*
X2972957Y21033581D01*
X2974090Y21031462D01*
X2975619Y21029599D01*
X3096717Y20882042D01*
X3099117Y20879117D01*
X3251462Y20754090D01*
X3253581Y20752957D01*
X3253586Y20752954D01*
X3423143Y20662324D01*
X3423147Y20662322D01*
X3425273Y20661186D01*
X3427577Y20660487D01*
X3427582Y20660485D01*
X3611567Y20604674D01*
X3613868Y20603976D01*
X3616256Y20603741D01*
X3616260Y20603740D01*
X3807604Y20584895D01*
X3810000Y20584659D01*
X3812396Y20584895D01*
X4003740Y20603740D01*
X4003744Y20603741D01*
X4006132Y20603976D01*
X4008433Y20604674D01*
X4192418Y20660485D01*
X4192423Y20660487D01*
X4194727Y20661186D01*
X4196853Y20662322D01*
X4196857Y20662324D01*
X4366414Y20752954D01*
X4366419Y20752957D01*
X4368538Y20754090D01*
X4520883Y20879117D01*
X4523284Y20882042D01*
X4644381Y21029599D01*
X4645910Y21031462D01*
X4647043Y21033581D01*
X4647046Y21033586D01*
X4737676Y21203143D01*
X4737678Y21203147D01*
X4738814Y21205273D01*
X4739513Y21207577D01*
X4739515Y21207582D01*
X4795326Y21391567D01*
X4796024Y21393868D01*
X4815341Y21590000D01*
X4796024Y21786132D01*
X4775513Y21853747D01*
X4739515Y21972418D01*
X4739513Y21972423D01*
X4738814Y21974727D01*
X4737678Y21976853D01*
X4737676Y21976857D01*
X4647046Y22146414D01*
X4647043Y22146419D01*
X4645910Y22148538D01*
X4520883Y22300883D01*
X4368538Y22425910D01*
X4366419Y22427043D01*
X4366414Y22427046D01*
X4196857Y22517676D01*
X4196853Y22517678D01*
X4194727Y22518814D01*
X4192423Y22519513D01*
X4192418Y22519515D01*
X4008433Y22575326D01*
X4006132Y22576024D01*
X4003744Y22576259D01*
X4003740Y22576260D01*
X3812396Y22595105D01*
X3810000Y22595341D01*
X3807604Y22595105D01*
X3616260Y22576260D01*
X3616256Y22576259D01*
X3613868Y22576024D01*
X3611567Y22575326D01*
X3427582Y22519515D01*
X3427577Y22519513D01*
X3425273Y22518814D01*
X3423147Y22517678D01*
X3423143Y22517676D01*
X3253586Y22427046D01*
X3253581Y22427043D01*
X3251462Y22425910D01*
X3099117Y22300883D01*
X2974090Y22148538D01*
X2972957Y22146419D01*
X2972954Y22146414D01*
X2882324Y21976857D01*
X2882322Y21976853D01*
X2881186Y21974727D01*
X2880487Y21972423D01*
X2880485Y21972418D01*
X2844487Y21853747D01*
X2823976Y21786132D01*
X2804659Y21590000D01*
X1016000Y21590000D01*
X1016000Y21853747D01*
X1524000Y21853747D01*
X1526855Y21846855D01*
X1533747Y21844000D01*
X2596797Y21844000D01*
X2603689Y21846855D01*
X2605012Y21850049D01*
X2559317Y22030498D01*
X2558011Y22034302D01*
X2469230Y22236701D01*
X2467313Y22240244D01*
X2346432Y22425265D01*
X2343956Y22428446D01*
X2194270Y22591049D01*
X2191301Y22593782D01*
X2016901Y22729522D01*
X2013516Y22731734D01*
X1856132Y22816906D01*
X1832490Y22846019D01*
X1836359Y22883321D01*
X1856132Y22903094D01*
X2013516Y22988266D01*
X2016901Y22990478D01*
X2191301Y23126218D01*
X2194270Y23128951D01*
X2343956Y23291554D01*
X2346432Y23294735D01*
X2467313Y23479756D01*
X2469230Y23483299D01*
X2558011Y23685698D01*
X2559317Y23689502D01*
X2604152Y23866553D01*
X2603076Y23873933D01*
X2600305Y23876000D01*
X1533747Y23876000D01*
X1526855Y23873145D01*
X1524000Y23866253D01*
X1524000Y21853747D01*
X1016000Y21853747D01*
X1016000Y24130000D01*
X2804659Y24130000D01*
X2804895Y24127604D01*
X2809953Y24076253D01*
X2823976Y23933868D01*
X2824674Y23931567D01*
X2880485Y23747582D01*
X2880487Y23747577D01*
X2881186Y23745273D01*
X2882322Y23743147D01*
X2882324Y23743143D01*
X2972954Y23573586D01*
X2972957Y23573581D01*
X2974090Y23571462D01*
X2975619Y23569599D01*
X3096717Y23422042D01*
X3099117Y23419117D01*
X3251462Y23294090D01*
X3253581Y23292957D01*
X3253586Y23292954D01*
X3423143Y23202324D01*
X3423147Y23202322D01*
X3425273Y23201186D01*
X3427577Y23200487D01*
X3427582Y23200485D01*
X3611567Y23144674D01*
X3613868Y23143976D01*
X3616256Y23143741D01*
X3616260Y23143740D01*
X3807604Y23124895D01*
X3810000Y23124659D01*
X3812396Y23124895D01*
X4003740Y23143740D01*
X4003744Y23143741D01*
X4006132Y23143976D01*
X4008433Y23144674D01*
X4192418Y23200485D01*
X4192423Y23200487D01*
X4194727Y23201186D01*
X4196853Y23202322D01*
X4196857Y23202324D01*
X4366414Y23292954D01*
X4366419Y23292957D01*
X4368538Y23294090D01*
X4520883Y23419117D01*
X4523284Y23422042D01*
X4644381Y23569599D01*
X4645910Y23571462D01*
X4647043Y23573581D01*
X4647046Y23573586D01*
X4736897Y23741686D01*
X6492000Y23741686D01*
X6492118Y23739283D01*
X6506349Y23594789D01*
X6507283Y23590096D01*
X6563523Y23404699D01*
X6565362Y23400260D01*
X6656688Y23229401D01*
X6659351Y23225416D01*
X6782264Y23075645D01*
X6785645Y23072264D01*
X6935416Y22949351D01*
X6939401Y22946688D01*
X7110260Y22855362D01*
X7114699Y22853523D01*
X7236673Y22816522D01*
X7244097Y22817254D01*
X7246000Y22819573D01*
X7246000Y22823440D01*
X7754000Y22823440D01*
X7756855Y22816548D01*
X7759627Y22815400D01*
X7885301Y22853523D01*
X7889740Y22855362D01*
X8060599Y22946688D01*
X8064584Y22949351D01*
X8214355Y23072264D01*
X8217736Y23075645D01*
X8340649Y23225416D01*
X8343312Y23229401D01*
X8434638Y23400260D01*
X8436477Y23404699D01*
X8492717Y23590096D01*
X8493651Y23594789D01*
X8507882Y23739283D01*
X8508000Y23741686D01*
X15132000Y23741686D01*
X15132118Y23739283D01*
X15146349Y23594789D01*
X15147283Y23590096D01*
X15203523Y23404699D01*
X15205362Y23400260D01*
X15296688Y23229401D01*
X15299351Y23225416D01*
X15422264Y23075645D01*
X15425645Y23072264D01*
X15575416Y22949351D01*
X15579401Y22946688D01*
X15750260Y22855362D01*
X15754699Y22853523D01*
X15876673Y22816522D01*
X15884097Y22817254D01*
X15886000Y22819573D01*
X15886000Y22823440D01*
X16394000Y22823440D01*
X16396855Y22816548D01*
X16399627Y22815400D01*
X16525301Y22853523D01*
X16529740Y22855362D01*
X16700599Y22946688D01*
X16704584Y22949351D01*
X16854355Y23072264D01*
X16857736Y23075645D01*
X16980649Y23225416D01*
X16983312Y23229401D01*
X17074638Y23400260D01*
X17076477Y23404699D01*
X17132717Y23590096D01*
X17133651Y23594789D01*
X17147882Y23739283D01*
X17148000Y23741686D01*
X17148000Y24076253D01*
X17145145Y24083145D01*
X17138253Y24086000D01*
X16403747Y24086000D01*
X16396855Y24083145D01*
X16394000Y24076253D01*
X16394000Y22823440D01*
X15886000Y22823440D01*
X15886000Y24076253D01*
X15883145Y24083145D01*
X15876253Y24086000D01*
X15141747Y24086000D01*
X15134855Y24083145D01*
X15132000Y24076253D01*
X15132000Y23741686D01*
X8508000Y23741686D01*
X8508000Y24076253D01*
X8505145Y24083145D01*
X8498253Y24086000D01*
X7763747Y24086000D01*
X7756855Y24083145D01*
X7754000Y24076253D01*
X7754000Y22823440D01*
X7246000Y22823440D01*
X7246000Y24076253D01*
X7243145Y24083145D01*
X7236253Y24086000D01*
X6501747Y24086000D01*
X6494855Y24083145D01*
X6492000Y24076253D01*
X6492000Y23741686D01*
X4736897Y23741686D01*
X4737676Y23743143D01*
X4737678Y23743147D01*
X4738814Y23745273D01*
X4739513Y23747577D01*
X4739515Y23747582D01*
X4795326Y23931567D01*
X4796024Y23933868D01*
X4810048Y24076253D01*
X4815105Y24127604D01*
X4815341Y24130000D01*
X4814298Y24140592D01*
X4796260Y24323740D01*
X4796259Y24323744D01*
X4796024Y24326132D01*
X4756146Y24457593D01*
X4739515Y24512418D01*
X4739513Y24512423D01*
X4738814Y24514727D01*
X4737678Y24516853D01*
X4737676Y24516857D01*
X4691232Y24603747D01*
X6492000Y24603747D01*
X6494855Y24596855D01*
X6501747Y24594000D01*
X7236253Y24594000D01*
X7243145Y24596855D01*
X7246000Y24603747D01*
X7754000Y24603747D01*
X7756855Y24596855D01*
X7763747Y24594000D01*
X8392217Y24594000D01*
X8426865Y24579648D01*
X8431091Y24574829D01*
X8519549Y24459549D01*
X8639767Y24367302D01*
X8642730Y24366075D01*
X8642733Y24366073D01*
X8776798Y24310541D01*
X8776802Y24310540D01*
X8779764Y24309313D01*
X8782945Y24308894D01*
X8782946Y24308894D01*
X8804363Y24306075D01*
X8892280Y24294500D01*
X8967720Y24294500D01*
X9055637Y24306075D01*
X9077054Y24308894D01*
X9077055Y24308894D01*
X9080236Y24309313D01*
X9083198Y24310540D01*
X9083202Y24310541D01*
X9217267Y24366073D01*
X9217270Y24366075D01*
X9220233Y24367302D01*
X9340451Y24459549D01*
X9432698Y24579767D01*
X9438594Y24594000D01*
X9489459Y24716798D01*
X9489460Y24716802D01*
X9490687Y24719764D01*
X9510466Y24870000D01*
X14129534Y24870000D01*
X14149313Y24719764D01*
X14150540Y24716802D01*
X14150541Y24716798D01*
X14201406Y24594000D01*
X14207302Y24579767D01*
X14299549Y24459549D01*
X14419767Y24367302D01*
X14422730Y24366075D01*
X14422733Y24366073D01*
X14556798Y24310541D01*
X14556802Y24310540D01*
X14559764Y24309313D01*
X14562945Y24308894D01*
X14562946Y24308894D01*
X14584363Y24306075D01*
X14672280Y24294500D01*
X14747720Y24294500D01*
X14835637Y24306075D01*
X14857054Y24308894D01*
X14857055Y24308894D01*
X14860236Y24309313D01*
X14863198Y24310540D01*
X14863202Y24310541D01*
X14997267Y24366073D01*
X14997270Y24366075D01*
X15000233Y24367302D01*
X15120451Y24459549D01*
X15208909Y24574829D01*
X15241387Y24593581D01*
X15247783Y24594000D01*
X15876253Y24594000D01*
X15883145Y24596855D01*
X15886000Y24603747D01*
X16394000Y24603747D01*
X16396855Y24596855D01*
X16403747Y24594000D01*
X17138253Y24594000D01*
X17145145Y24596855D01*
X17148000Y24603747D01*
X17148000Y24938314D01*
X17147882Y24940717D01*
X17133651Y25085211D01*
X17132717Y25089904D01*
X17076477Y25275301D01*
X17074638Y25279740D01*
X16983312Y25450599D01*
X16980649Y25454584D01*
X16857736Y25604355D01*
X16854355Y25607736D01*
X16704584Y25730649D01*
X16700599Y25733312D01*
X16529740Y25824638D01*
X16525301Y25826477D01*
X16403327Y25863478D01*
X16395903Y25862746D01*
X16394000Y25860427D01*
X16394000Y24603747D01*
X15886000Y24603747D01*
X15886000Y25856560D01*
X15883145Y25863452D01*
X15880373Y25864600D01*
X15754699Y25826477D01*
X15750260Y25824638D01*
X15579401Y25733312D01*
X15575416Y25730649D01*
X15425645Y25607736D01*
X15422264Y25604355D01*
X15299351Y25454584D01*
X15296688Y25450599D01*
X15206548Y25281958D01*
X15177558Y25258166D01*
X15140236Y25261842D01*
X15124463Y25275222D01*
X15120451Y25280451D01*
X15000233Y25372698D01*
X14997270Y25373925D01*
X14997267Y25373927D01*
X14863202Y25429459D01*
X14863198Y25429460D01*
X14860236Y25430687D01*
X14857055Y25431106D01*
X14857054Y25431106D01*
X14835637Y25433925D01*
X14747720Y25445500D01*
X14672280Y25445500D01*
X14584363Y25433925D01*
X14562946Y25431106D01*
X14562945Y25431106D01*
X14559764Y25430687D01*
X14556802Y25429460D01*
X14556798Y25429459D01*
X14422733Y25373927D01*
X14422730Y25373925D01*
X14419767Y25372698D01*
X14299549Y25280451D01*
X14207302Y25160233D01*
X14206075Y25157270D01*
X14206073Y25157267D01*
X14150541Y25023202D01*
X14150540Y25023198D01*
X14149313Y25020236D01*
X14148894Y25017055D01*
X14148894Y25017054D01*
X14138844Y24940717D01*
X14129534Y24870000D01*
X9510466Y24870000D01*
X9501156Y24940717D01*
X9491106Y25017054D01*
X9491106Y25017055D01*
X9490687Y25020236D01*
X9489460Y25023198D01*
X9489459Y25023202D01*
X9433927Y25157267D01*
X9433925Y25157270D01*
X9432698Y25160233D01*
X9340451Y25280451D01*
X9220233Y25372698D01*
X9217270Y25373925D01*
X9217267Y25373927D01*
X9083202Y25429459D01*
X9083198Y25429460D01*
X9080236Y25430687D01*
X9077055Y25431106D01*
X9077054Y25431106D01*
X9055637Y25433925D01*
X8967720Y25445500D01*
X8892280Y25445500D01*
X8804363Y25433925D01*
X8782946Y25431106D01*
X8782945Y25431106D01*
X8779764Y25430687D01*
X8776802Y25429460D01*
X8776798Y25429459D01*
X8642733Y25373927D01*
X8642730Y25373925D01*
X8639767Y25372698D01*
X8519549Y25280451D01*
X8515537Y25275223D01*
X8483059Y25256475D01*
X8446834Y25266183D01*
X8433452Y25281958D01*
X8343312Y25450599D01*
X8340649Y25454584D01*
X8217736Y25604355D01*
X8214355Y25607736D01*
X8064584Y25730649D01*
X8060599Y25733312D01*
X7889740Y25824638D01*
X7885301Y25826477D01*
X7763327Y25863478D01*
X7755903Y25862746D01*
X7754000Y25860427D01*
X7754000Y24603747D01*
X7246000Y24603747D01*
X7246000Y25856560D01*
X7243145Y25863452D01*
X7240373Y25864600D01*
X7114699Y25826477D01*
X7110260Y25824638D01*
X6939401Y25733312D01*
X6935416Y25730649D01*
X6785645Y25607736D01*
X6782264Y25604355D01*
X6659351Y25454584D01*
X6656688Y25450599D01*
X6565362Y25279740D01*
X6563523Y25275301D01*
X6507283Y25089904D01*
X6506349Y25085211D01*
X6492118Y24940717D01*
X6492000Y24938314D01*
X6492000Y24603747D01*
X4691232Y24603747D01*
X4647046Y24686414D01*
X4647043Y24686419D01*
X4645910Y24688538D01*
X4520883Y24840883D01*
X4368538Y24965910D01*
X4366419Y24967043D01*
X4366414Y24967046D01*
X4196857Y25057676D01*
X4196853Y25057678D01*
X4194727Y25058814D01*
X4192423Y25059513D01*
X4192418Y25059515D01*
X4008433Y25115326D01*
X4006132Y25116024D01*
X4003744Y25116259D01*
X4003740Y25116260D01*
X3812396Y25135105D01*
X3810000Y25135341D01*
X3807604Y25135105D01*
X3616260Y25116260D01*
X3616256Y25116259D01*
X3613868Y25116024D01*
X3611567Y25115326D01*
X3427582Y25059515D01*
X3427577Y25059513D01*
X3425273Y25058814D01*
X3423147Y25057678D01*
X3423143Y25057676D01*
X3253586Y24967046D01*
X3253581Y24967043D01*
X3251462Y24965910D01*
X3099117Y24840883D01*
X2974090Y24688538D01*
X2972957Y24686419D01*
X2972954Y24686414D01*
X2882324Y24516857D01*
X2882322Y24516853D01*
X2881186Y24514727D01*
X2880487Y24512423D01*
X2880485Y24512418D01*
X2863854Y24457593D01*
X2823976Y24326132D01*
X2823741Y24323744D01*
X2823740Y24323740D01*
X2805702Y24140592D01*
X2804659Y24130000D01*
X1016000Y24130000D01*
X1016000Y24393747D01*
X1524000Y24393747D01*
X1526855Y24386855D01*
X1533747Y24384000D01*
X2596797Y24384000D01*
X2603689Y24386855D01*
X2605012Y24390049D01*
X2559317Y24570498D01*
X2558011Y24574302D01*
X2469230Y24776701D01*
X2467313Y24780244D01*
X2346432Y24965265D01*
X2343956Y24968446D01*
X2194270Y25131049D01*
X2191301Y25133782D01*
X2016901Y25269522D01*
X2013516Y25271734D01*
X1819153Y25376918D01*
X1815458Y25378539D01*
X1606428Y25450299D01*
X1602516Y25451290D01*
X1533612Y25462788D01*
X1526346Y25461107D01*
X1524000Y25457349D01*
X1524000Y24393747D01*
X1016000Y24393747D01*
X1016000Y25454645D01*
X1013145Y25461537D01*
X1009052Y25463233D01*
X937484Y25451290D01*
X933572Y25450299D01*
X724542Y25378539D01*
X720847Y25376918D01*
X526484Y25271734D01*
X523099Y25269522D01*
X348699Y25133782D01*
X345730Y25131049D01*
X196044Y24968446D01*
X193564Y24965260D01*
X115521Y24845806D01*
X84556Y24824649D01*
X47700Y24831585D01*
X26543Y24862550D01*
X25500Y24872606D01*
X25500Y26670000D01*
X264659Y26670000D01*
X283976Y26473868D01*
X284674Y26471567D01*
X340485Y26287582D01*
X340487Y26287577D01*
X341186Y26285273D01*
X342322Y26283147D01*
X342324Y26283143D01*
X432954Y26113586D01*
X432957Y26113581D01*
X434090Y26111462D01*
X559117Y25959117D01*
X711462Y25834090D01*
X713581Y25832957D01*
X713586Y25832954D01*
X883143Y25742324D01*
X883147Y25742322D01*
X885273Y25741186D01*
X887577Y25740487D01*
X887582Y25740485D01*
X1071567Y25684674D01*
X1073868Y25683976D01*
X1076256Y25683741D01*
X1076260Y25683740D01*
X1267604Y25664895D01*
X1270000Y25664659D01*
X1272396Y25664895D01*
X1463740Y25683740D01*
X1463744Y25683741D01*
X1466132Y25683976D01*
X1468433Y25684674D01*
X1652418Y25740485D01*
X1652423Y25740487D01*
X1654727Y25741186D01*
X1656853Y25742322D01*
X1656857Y25742324D01*
X1765233Y25800252D01*
X2759500Y25800252D01*
X2771133Y25741769D01*
X2815448Y25675448D01*
X2881769Y25631133D01*
X2940252Y25619500D01*
X4679748Y25619500D01*
X4738231Y25631133D01*
X4804552Y25675448D01*
X4848867Y25741769D01*
X4860500Y25800252D01*
X4860500Y27539748D01*
X4848867Y27598231D01*
X4804552Y27664552D01*
X4738231Y27708867D01*
X4679748Y27720500D01*
X2940252Y27720500D01*
X2881769Y27708867D01*
X2815448Y27664552D01*
X2771133Y27598231D01*
X2759500Y27539748D01*
X2759500Y25800252D01*
X1765233Y25800252D01*
X1826414Y25832954D01*
X1826419Y25832957D01*
X1828538Y25834090D01*
X1980883Y25959117D01*
X2105910Y26111462D01*
X2107043Y26113581D01*
X2107046Y26113586D01*
X2197676Y26283143D01*
X2197678Y26283147D01*
X2198814Y26285273D01*
X2199513Y26287577D01*
X2199515Y26287582D01*
X2255326Y26471567D01*
X2256024Y26473868D01*
X2275341Y26670000D01*
X2256024Y26866132D01*
X2255326Y26868433D01*
X2199515Y27052418D01*
X2199513Y27052423D01*
X2198814Y27054727D01*
X2197678Y27056853D01*
X2197676Y27056857D01*
X2107046Y27226414D01*
X2107043Y27226419D01*
X2105910Y27228538D01*
X1980883Y27380883D01*
X1828538Y27505910D01*
X1826419Y27507043D01*
X1826414Y27507046D01*
X1656857Y27597676D01*
X1656853Y27597678D01*
X1654727Y27598814D01*
X1652423Y27599513D01*
X1652418Y27599515D01*
X1468433Y27655326D01*
X1466132Y27656024D01*
X1463744Y27656259D01*
X1463740Y27656260D01*
X1272396Y27675105D01*
X1270000Y27675341D01*
X1267604Y27675105D01*
X1076260Y27656260D01*
X1076256Y27656259D01*
X1073868Y27656024D01*
X1071567Y27655326D01*
X887582Y27599515D01*
X887577Y27599513D01*
X885273Y27598814D01*
X883147Y27597678D01*
X883143Y27597676D01*
X713586Y27507046D01*
X713581Y27507043D01*
X711462Y27505910D01*
X559117Y27380883D01*
X434090Y27228538D01*
X432957Y27226419D01*
X432954Y27226414D01*
X342324Y27056857D01*
X342322Y27056853D01*
X341186Y27054727D01*
X340487Y27052423D01*
X340485Y27052418D01*
X284674Y26868433D01*
X283976Y26866132D01*
X264659Y26670000D01*
X25500Y26670000D01*
X25500Y28171686D01*
X6492000Y28171686D01*
X6492118Y28169283D01*
X6506349Y28024789D01*
X6507283Y28020096D01*
X6563523Y27834699D01*
X6565362Y27830260D01*
X6656688Y27659401D01*
X6659351Y27655416D01*
X6782264Y27505645D01*
X6785645Y27502264D01*
X6935416Y27379351D01*
X6939401Y27376688D01*
X7110260Y27285362D01*
X7114699Y27283523D01*
X7236673Y27246522D01*
X7244097Y27247254D01*
X7246000Y27249573D01*
X7246000Y27253440D01*
X7754000Y27253440D01*
X7756855Y27246548D01*
X7759627Y27245400D01*
X7885301Y27283523D01*
X7889740Y27285362D01*
X8060599Y27376688D01*
X8064584Y27379351D01*
X8214355Y27502264D01*
X8217736Y27505645D01*
X8340649Y27655416D01*
X8343312Y27659401D01*
X8434638Y27830260D01*
X8436477Y27834699D01*
X8492717Y28020096D01*
X8493651Y28024789D01*
X8507882Y28169283D01*
X8508000Y28171686D01*
X15132000Y28171686D01*
X15132118Y28169283D01*
X15146349Y28024789D01*
X15147283Y28020096D01*
X15203523Y27834699D01*
X15205362Y27830260D01*
X15296688Y27659401D01*
X15299351Y27655416D01*
X15422264Y27505645D01*
X15425645Y27502264D01*
X15575416Y27379351D01*
X15579401Y27376688D01*
X15750260Y27285362D01*
X15754699Y27283523D01*
X15876673Y27246522D01*
X15884097Y27247254D01*
X15886000Y27249573D01*
X15886000Y27253440D01*
X16394000Y27253440D01*
X16396855Y27246548D01*
X16399627Y27245400D01*
X16525301Y27283523D01*
X16529740Y27285362D01*
X16700599Y27376688D01*
X16704584Y27379351D01*
X16854355Y27502264D01*
X16857736Y27505645D01*
X16980649Y27655416D01*
X16983312Y27659401D01*
X17074638Y27830260D01*
X17076477Y27834699D01*
X17132717Y28020096D01*
X17133651Y28024789D01*
X17147882Y28169283D01*
X17148000Y28171686D01*
X17148000Y28256253D01*
X17145145Y28263145D01*
X17138253Y28266000D01*
X16403747Y28266000D01*
X16396855Y28263145D01*
X16394000Y28256253D01*
X16394000Y27253440D01*
X15886000Y27253440D01*
X15886000Y28256253D01*
X15883145Y28263145D01*
X15876253Y28266000D01*
X15141747Y28266000D01*
X15134855Y28263145D01*
X15132000Y28256253D01*
X15132000Y28171686D01*
X8508000Y28171686D01*
X8508000Y28256253D01*
X8505145Y28263145D01*
X8498253Y28266000D01*
X7763747Y28266000D01*
X7756855Y28263145D01*
X7754000Y28256253D01*
X7754000Y27253440D01*
X7246000Y27253440D01*
X7246000Y28256253D01*
X7243145Y28263145D01*
X7236253Y28266000D01*
X6501747Y28266000D01*
X6494855Y28263145D01*
X6492000Y28256253D01*
X6492000Y28171686D01*
X25500Y28171686D01*
X25500Y28783747D01*
X6492000Y28783747D01*
X6494855Y28776855D01*
X6501747Y28774000D01*
X7236253Y28774000D01*
X7243145Y28776855D01*
X7246000Y28783747D01*
X7754000Y28783747D01*
X7756855Y28776855D01*
X7763747Y28774000D01*
X8498253Y28774000D01*
X8505145Y28776855D01*
X8508000Y28783747D01*
X15132000Y28783747D01*
X15134855Y28776855D01*
X15141747Y28774000D01*
X15876253Y28774000D01*
X15883145Y28776855D01*
X15886000Y28783747D01*
X16394000Y28783747D01*
X16396855Y28776855D01*
X16403747Y28774000D01*
X17138253Y28774000D01*
X17145145Y28776855D01*
X17148000Y28783747D01*
X17148000Y28868314D01*
X17147882Y28870717D01*
X17133651Y29015211D01*
X17132717Y29019904D01*
X17076477Y29205301D01*
X17074638Y29209740D01*
X16983312Y29380599D01*
X16980649Y29384584D01*
X16857736Y29534355D01*
X16854355Y29537736D01*
X16704584Y29660649D01*
X16700599Y29663312D01*
X16529740Y29754638D01*
X16525301Y29756477D01*
X16403327Y29793478D01*
X16395903Y29792746D01*
X16394000Y29790427D01*
X16394000Y28783747D01*
X15886000Y28783747D01*
X15886000Y29786560D01*
X15883145Y29793452D01*
X15880373Y29794600D01*
X15754699Y29756477D01*
X15750260Y29754638D01*
X15579401Y29663312D01*
X15575416Y29660649D01*
X15425645Y29537736D01*
X15422264Y29534355D01*
X15299351Y29384584D01*
X15296688Y29380599D01*
X15205362Y29209740D01*
X15203523Y29205301D01*
X15147283Y29019904D01*
X15146349Y29015211D01*
X15132118Y28870717D01*
X15132000Y28868314D01*
X15132000Y28783747D01*
X8508000Y28783747D01*
X8508000Y28868314D01*
X8507882Y28870717D01*
X8493651Y29015211D01*
X8492717Y29019904D01*
X8436477Y29205301D01*
X8434638Y29209740D01*
X8343312Y29380599D01*
X8340649Y29384584D01*
X8217736Y29534355D01*
X8214355Y29537736D01*
X8064584Y29660649D01*
X8060599Y29663312D01*
X7889740Y29754638D01*
X7885301Y29756477D01*
X7763327Y29793478D01*
X7755903Y29792746D01*
X7754000Y29790427D01*
X7754000Y28783747D01*
X7246000Y28783747D01*
X7246000Y29786560D01*
X7243145Y29793452D01*
X7240373Y29794600D01*
X7114699Y29756477D01*
X7110260Y29754638D01*
X6939401Y29663312D01*
X6935416Y29660649D01*
X6785645Y29537736D01*
X6782264Y29534355D01*
X6659351Y29384584D01*
X6656688Y29380599D01*
X6565362Y29209740D01*
X6563523Y29205301D01*
X6507283Y29019904D01*
X6506349Y29015211D01*
X6492118Y28870717D01*
X6492000Y28868314D01*
X6492000Y28783747D01*
X25500Y28783747D01*
X25500Y30405500D01*
X39852Y30440148D01*
X74500Y30454500D01*
X29495500Y30454500D01*
X29530148Y30440148D01*
G37*
G04 #@! TD.AperFunction*
D16*
X1667462Y-1320D02*
G75*
G03*
X1667462Y-1320I-1666666J0D01*
G01*
X-2499204Y-1320D02*
X2500796Y-1320D01*
X796Y2498680D02*
X796Y-2501320D01*
X0Y0D02*
X0Y30480000D01*
X29570000Y30480000D02*
X29570000Y0D01*
X0Y30480000D02*
X29570000Y30480000D01*
X29570000Y0D02*
X0Y0D01*
M02*
