M48
; DRILL file {KiCad (6.99.0-1917-g23fb4c7433)} date Tuesday, 21 June 2022 at 02:10:21 pm
; FORMAT={-:-/ absolute / metric / decimal}
; #@! TF.CreationDate,2022-06-21T14:10:21+10:00
; #@! TF.GenerationSoftware,Kicad,Pcbnew,(6.99.0-1917-g23fb4c7433)
; #@! TF.FileFunction,Plated,1,2,PTH
FMAT,2
METRIC
; #@! TA.AperFunction,Plated,PTH,ViaDrill
T1C0.250
; #@! TA.AperFunction,Plated,PTH,ComponentDrill
T2C0.600
; #@! TA.AperFunction,Plated,PTH,ComponentDrill
T3C1.000
%
G90
G05
T1
X1.97Y1.22
X2.57Y29.22
X5.963Y4.946
X6.57Y22.22
X7.191Y12.373
X7.226Y15.001
X8.107Y9.572
X8.263Y18.458
X9.248Y14.949
X9.266Y12.459
X9.87Y9.52
X11.286Y10.348
X11.795Y24.995
X11.795Y21.22
X11.82Y29.22
X13.465Y6.816
X15.27Y9.52
X15.422Y17.719
X15.492Y14.845
X16.464Y5.266
X18.116Y8.616
X18.57Y26.22
X19.192Y5.266
X19.862Y14.985
X20.587Y18.117
X20.827Y11.327
X22.57Y4.62
X23.861Y17.023
X23.878Y18.972
X23.878Y14.938
X24.261Y28.94
X24.328Y27.22
X24.57Y3.22
X25.07Y10.52
X25.436Y12.999
X25.519Y21.638
X26.229Y16.905
X26.27Y7.02
X26.854Y1.77
X27.859Y7.02
X27.992Y21.033
X28.67Y27.32
X28.681Y16.869
T3
X1.27Y26.67
X1.27Y24.13
X1.27Y21.59
X1.27Y19.05
X1.27Y16.51
X1.27Y13.97
X1.27Y11.43
X1.27Y8.89
X1.27Y6.35
X1.27Y3.81
X3.81Y26.67
X3.81Y24.13
X3.81Y21.59
X3.81Y19.05
X3.81Y16.51
X3.81Y13.97
X3.81Y11.43
X3.81Y8.89
X3.81Y6.35
X3.81Y3.81
X7.69Y2.13
X10.23Y2.13
X12.77Y2.13
X15.31Y2.13
X17.85Y2.13
X20.39Y2.13
T2
G00X7.5Y28.22
M15
G01X7.5Y28.82
M16
G05
G00X7.5Y23.79
M15
G01X7.5Y24.89
M16
G05
G00X16.14Y28.22
M15
G01X16.14Y28.82
M16
G05
G00X16.14Y23.79
M15
G01X16.14Y24.89
M16
G05
T0
M30
