G04 #@! TF.GenerationSoftware,KiCad,Pcbnew,(6.99.0-1917-g23fb4c7433)*
G04 #@! TF.CreationDate,2022-06-21T14:10:18+10:00*
G04 #@! TF.ProjectId,JtagArm20Adapter,4a746167-4172-46d3-9230-416461707465,rev?*
G04 #@! TF.SameCoordinates,PX8404630PY68290a0*
G04 #@! TF.FileFunction,Legend,Bot*
G04 #@! TF.FilePolarity,Positive*
%FSLAX46Y46*%
G04 Gerber Fmt 4.6, Leading zero omitted, Abs format (unit mm)*
G04 Created by KiCad (PCBNEW (6.99.0-1917-g23fb4c7433)) date 2022-06-21 14:10:18*
%MOMM*%
%LPD*%
G01*
G04 APERTURE LIST*
%ADD10C,0.200000*%
G04 #@! TA.AperFunction,Profile*
%ADD11C,0.050000*%
G04 #@! TD*
G04 APERTURE END LIST*
D10*
X25667916Y3858096D02*
X25667916Y4453334D01*
X25310773Y3739048D02*
X26560773Y4155715D01*
X26560773Y4155715D02*
X25310773Y4572381D01*
X25370297Y5524763D02*
X25310773Y5405715D01*
X25310773Y5405715D02*
X25310773Y5167620D01*
X25310773Y5167620D02*
X25370297Y5048572D01*
X25370297Y5048572D02*
X25429821Y4989049D01*
X25429821Y4989049D02*
X25548869Y4929525D01*
X25548869Y4929525D02*
X25906011Y4929525D01*
X25906011Y4929525D02*
X26025059Y4989049D01*
X26025059Y4989049D02*
X26084583Y5048572D01*
X26084583Y5048572D02*
X26144107Y5167620D01*
X26144107Y5167620D02*
X26144107Y5405715D01*
X26144107Y5405715D02*
X26084583Y5524763D01*
X25370297Y6536668D02*
X25310773Y6417620D01*
X25310773Y6417620D02*
X25310773Y6179525D01*
X25310773Y6179525D02*
X25370297Y6060478D01*
X25370297Y6060478D02*
X25489345Y6000954D01*
X25489345Y6000954D02*
X25965535Y6000954D01*
X25965535Y6000954D02*
X26084583Y6060478D01*
X26084583Y6060478D02*
X26144107Y6179525D01*
X26144107Y6179525D02*
X26144107Y6417620D01*
X26144107Y6417620D02*
X26084583Y6536668D01*
X26084583Y6536668D02*
X25965535Y6596192D01*
X25965535Y6596192D02*
X25846488Y6596192D01*
X25846488Y6596192D02*
X25727440Y6000954D01*
X26560773Y7191430D02*
X26322678Y7072383D01*
X25370297Y7667621D02*
X25310773Y7786668D01*
X25310773Y7786668D02*
X25310773Y8024764D01*
X25310773Y8024764D02*
X25370297Y8143811D01*
X25370297Y8143811D02*
X25489345Y8203335D01*
X25489345Y8203335D02*
X25548869Y8203335D01*
X25548869Y8203335D02*
X25667916Y8143811D01*
X25667916Y8143811D02*
X25727440Y8024764D01*
X25727440Y8024764D02*
X25727440Y7846192D01*
X25727440Y7846192D02*
X25786964Y7727145D01*
X25786964Y7727145D02*
X25906011Y7667621D01*
X25906011Y7667621D02*
X25965535Y7667621D01*
X25965535Y7667621D02*
X26084583Y7727145D01*
X26084583Y7727145D02*
X26144107Y7846192D01*
X26144107Y7846192D02*
X26144107Y8024764D01*
X26144107Y8024764D02*
X26084583Y8143811D01*
X25965535Y9489050D02*
X25965535Y9905716D01*
X25310773Y10084288D02*
X25310773Y9489050D01*
X25310773Y9489050D02*
X26560773Y9489050D01*
X26560773Y9489050D02*
X26560773Y10084288D01*
X25310773Y10798573D02*
X25370297Y10679525D01*
X25370297Y10679525D02*
X25489345Y10620002D01*
X25489345Y10620002D02*
X26560773Y10620002D01*
X25370297Y11750954D02*
X25310773Y11631906D01*
X25310773Y11631906D02*
X25310773Y11393811D01*
X25310773Y11393811D02*
X25370297Y11274764D01*
X25370297Y11274764D02*
X25489345Y11215240D01*
X25489345Y11215240D02*
X25965535Y11215240D01*
X25965535Y11215240D02*
X26084583Y11274764D01*
X26084583Y11274764D02*
X26144107Y11393811D01*
X26144107Y11393811D02*
X26144107Y11631906D01*
X26144107Y11631906D02*
X26084583Y11750954D01*
X26084583Y11750954D02*
X25965535Y11810478D01*
X25965535Y11810478D02*
X25846488Y11810478D01*
X25846488Y11810478D02*
X25727440Y11215240D01*
X25370297Y12881907D02*
X25310773Y12762859D01*
X25310773Y12762859D02*
X25310773Y12524764D01*
X25310773Y12524764D02*
X25370297Y12405716D01*
X25370297Y12405716D02*
X25429821Y12346193D01*
X25429821Y12346193D02*
X25548869Y12286669D01*
X25548869Y12286669D02*
X25906011Y12286669D01*
X25906011Y12286669D02*
X26025059Y12346193D01*
X26025059Y12346193D02*
X26084583Y12405716D01*
X26084583Y12405716D02*
X26144107Y12524764D01*
X26144107Y12524764D02*
X26144107Y12762859D01*
X26144107Y12762859D02*
X26084583Y12881907D01*
X26144107Y13239050D02*
X26144107Y13715241D01*
X26560773Y13417622D02*
X25489345Y13417622D01*
X25489345Y13417622D02*
X25370297Y13477145D01*
X25370297Y13477145D02*
X25310773Y13596193D01*
X25310773Y13596193D02*
X25310773Y13715241D01*
X25310773Y14131908D02*
X26144107Y14131908D01*
X25906011Y14131908D02*
X26025059Y14191431D01*
X26025059Y14191431D02*
X26084583Y14250955D01*
X26084583Y14250955D02*
X26144107Y14370003D01*
X26144107Y14370003D02*
X26144107Y14489050D01*
X25310773Y15084289D02*
X25370297Y14965241D01*
X25370297Y14965241D02*
X25429821Y14905718D01*
X25429821Y14905718D02*
X25548869Y14846194D01*
X25548869Y14846194D02*
X25906011Y14846194D01*
X25906011Y14846194D02*
X26025059Y14905718D01*
X26025059Y14905718D02*
X26084583Y14965241D01*
X26084583Y14965241D02*
X26144107Y15084289D01*
X26144107Y15084289D02*
X26144107Y15262860D01*
X26144107Y15262860D02*
X26084583Y15381908D01*
X26084583Y15381908D02*
X26025059Y15441432D01*
X26025059Y15441432D02*
X25906011Y15500956D01*
X25906011Y15500956D02*
X25548869Y15500956D01*
X25548869Y15500956D02*
X25429821Y15441432D01*
X25429821Y15441432D02*
X25370297Y15381908D01*
X25370297Y15381908D02*
X25310773Y15262860D01*
X25310773Y15262860D02*
X25310773Y15084289D01*
X26144107Y16036670D02*
X25310773Y16036670D01*
X26025059Y16036670D02*
X26084583Y16096193D01*
X26084583Y16096193D02*
X26144107Y16215241D01*
X26144107Y16215241D02*
X26144107Y16393812D01*
X26144107Y16393812D02*
X26084583Y16512860D01*
X26084583Y16512860D02*
X25965535Y16572384D01*
X25965535Y16572384D02*
X25310773Y16572384D01*
X25310773Y17167622D02*
X26144107Y17167622D01*
X26560773Y17167622D02*
X26501250Y17108098D01*
X26501250Y17108098D02*
X26441726Y17167622D01*
X26441726Y17167622D02*
X26501250Y17227145D01*
X26501250Y17227145D02*
X26560773Y17167622D01*
X26560773Y17167622D02*
X26441726Y17167622D01*
X25370297Y18298574D02*
X25310773Y18179526D01*
X25310773Y18179526D02*
X25310773Y17941431D01*
X25310773Y17941431D02*
X25370297Y17822383D01*
X25370297Y17822383D02*
X25429821Y17762860D01*
X25429821Y17762860D02*
X25548869Y17703336D01*
X25548869Y17703336D02*
X25906011Y17703336D01*
X25906011Y17703336D02*
X26025059Y17762860D01*
X26025059Y17762860D02*
X26084583Y17822383D01*
X26084583Y17822383D02*
X26144107Y17941431D01*
X26144107Y17941431D02*
X26144107Y18179526D01*
X26144107Y18179526D02*
X26084583Y18298574D01*
X25370297Y18774765D02*
X25310773Y18893812D01*
X25310773Y18893812D02*
X25310773Y19131908D01*
X25310773Y19131908D02*
X25370297Y19250955D01*
X25370297Y19250955D02*
X25489345Y19310479D01*
X25489345Y19310479D02*
X25548869Y19310479D01*
X25548869Y19310479D02*
X25667916Y19250955D01*
X25667916Y19250955D02*
X25727440Y19131908D01*
X25727440Y19131908D02*
X25727440Y18953336D01*
X25727440Y18953336D02*
X25786964Y18834289D01*
X25786964Y18834289D02*
X25906011Y18774765D01*
X25906011Y18774765D02*
X25965535Y18774765D01*
X25965535Y18774765D02*
X26084583Y18834289D01*
X26084583Y18834289D02*
X26144107Y18953336D01*
X26144107Y18953336D02*
X26144107Y19131908D01*
X26144107Y19131908D02*
X26084583Y19250955D01*
X24535773Y4274762D02*
X23642916Y4274762D01*
X23642916Y4274762D02*
X23464345Y4215239D01*
X23464345Y4215239D02*
X23345297Y4096191D01*
X23345297Y4096191D02*
X23285773Y3917620D01*
X23285773Y3917620D02*
X23285773Y3798572D01*
X23285773Y5465239D02*
X23285773Y4870001D01*
X23285773Y4870001D02*
X24535773Y4870001D01*
X23285773Y5881906D02*
X24119107Y5881906D01*
X24535773Y5881906D02*
X24476250Y5822382D01*
X24476250Y5822382D02*
X24416726Y5881906D01*
X24416726Y5881906D02*
X24476250Y5941429D01*
X24476250Y5941429D02*
X24535773Y5881906D01*
X24535773Y5881906D02*
X24416726Y5881906D01*
X24119107Y6477144D02*
X23285773Y6477144D01*
X24000059Y6477144D02*
X24059583Y6536667D01*
X24059583Y6536667D02*
X24119107Y6655715D01*
X24119107Y6655715D02*
X24119107Y6834286D01*
X24119107Y6834286D02*
X24059583Y6953334D01*
X24059583Y6953334D02*
X23940535Y7012858D01*
X23940535Y7012858D02*
X23285773Y7012858D01*
X23285773Y7608096D02*
X24535773Y7608096D01*
X23761964Y7727143D02*
X23285773Y8084286D01*
X24119107Y8084286D02*
X23642916Y7608096D01*
X23345297Y9310477D02*
X23285773Y9489048D01*
X23285773Y9489048D02*
X23285773Y9786667D01*
X23285773Y9786667D02*
X23345297Y9905715D01*
X23345297Y9905715D02*
X23404821Y9965239D01*
X23404821Y9965239D02*
X23523869Y10024762D01*
X23523869Y10024762D02*
X23642916Y10024762D01*
X23642916Y10024762D02*
X23761964Y9965239D01*
X23761964Y9965239D02*
X23821488Y9905715D01*
X23821488Y9905715D02*
X23881011Y9786667D01*
X23881011Y9786667D02*
X23940535Y9548572D01*
X23940535Y9548572D02*
X24000059Y9429524D01*
X24000059Y9429524D02*
X24059583Y9370001D01*
X24059583Y9370001D02*
X24178630Y9310477D01*
X24178630Y9310477D02*
X24297678Y9310477D01*
X24297678Y9310477D02*
X24416726Y9370001D01*
X24416726Y9370001D02*
X24476250Y9429524D01*
X24476250Y9429524D02*
X24535773Y9548572D01*
X24535773Y9548572D02*
X24535773Y9846191D01*
X24535773Y9846191D02*
X24476250Y10024762D01*
X24535773Y10441429D02*
X23285773Y10739048D01*
X23285773Y10739048D02*
X24178630Y10977143D01*
X24178630Y10977143D02*
X23285773Y11215238D01*
X23285773Y11215238D02*
X24535773Y11512857D01*
X23285773Y11989048D02*
X24535773Y11989048D01*
X24535773Y11989048D02*
X24535773Y12286667D01*
X24535773Y12286667D02*
X24476250Y12465238D01*
X24476250Y12465238D02*
X24357202Y12584286D01*
X24357202Y12584286D02*
X24238154Y12643809D01*
X24238154Y12643809D02*
X24000059Y12703333D01*
X24000059Y12703333D02*
X23821488Y12703333D01*
X23821488Y12703333D02*
X23583392Y12643809D01*
X23583392Y12643809D02*
X23464345Y12584286D01*
X23464345Y12584286D02*
X23345297Y12465238D01*
X23345297Y12465238D02*
X23285773Y12286667D01*
X23285773Y12286667D02*
X23285773Y11989048D01*
X23642916Y13929524D02*
X23642916Y14524762D01*
X23285773Y13810476D02*
X24535773Y14227143D01*
X24535773Y14227143D02*
X23285773Y14643809D01*
X23285773Y15596191D02*
X24535773Y15596191D01*
X23345297Y15596191D02*
X23285773Y15477143D01*
X23285773Y15477143D02*
X23285773Y15239048D01*
X23285773Y15239048D02*
X23345297Y15120000D01*
X23345297Y15120000D02*
X23404821Y15060477D01*
X23404821Y15060477D02*
X23523869Y15000953D01*
X23523869Y15000953D02*
X23881011Y15000953D01*
X23881011Y15000953D02*
X24000059Y15060477D01*
X24000059Y15060477D02*
X24059583Y15120000D01*
X24059583Y15120000D02*
X24119107Y15239048D01*
X24119107Y15239048D02*
X24119107Y15477143D01*
X24119107Y15477143D02*
X24059583Y15596191D01*
X23285773Y16727143D02*
X23940535Y16727143D01*
X23940535Y16727143D02*
X24059583Y16667619D01*
X24059583Y16667619D02*
X24119107Y16548571D01*
X24119107Y16548571D02*
X24119107Y16310476D01*
X24119107Y16310476D02*
X24059583Y16191429D01*
X23345297Y16727143D02*
X23285773Y16608095D01*
X23285773Y16608095D02*
X23285773Y16310476D01*
X23285773Y16310476D02*
X23345297Y16191429D01*
X23345297Y16191429D02*
X23464345Y16131905D01*
X23464345Y16131905D02*
X23583392Y16131905D01*
X23583392Y16131905D02*
X23702440Y16191429D01*
X23702440Y16191429D02*
X23761964Y16310476D01*
X23761964Y16310476D02*
X23761964Y16608095D01*
X23761964Y16608095D02*
X23821488Y16727143D01*
X24119107Y17322381D02*
X22869107Y17322381D01*
X24059583Y17322381D02*
X24119107Y17441428D01*
X24119107Y17441428D02*
X24119107Y17679523D01*
X24119107Y17679523D02*
X24059583Y17798571D01*
X24059583Y17798571D02*
X24000059Y17858095D01*
X24000059Y17858095D02*
X23881011Y17917619D01*
X23881011Y17917619D02*
X23523869Y17917619D01*
X23523869Y17917619D02*
X23404821Y17858095D01*
X23404821Y17858095D02*
X23345297Y17798571D01*
X23345297Y17798571D02*
X23285773Y17679523D01*
X23285773Y17679523D02*
X23285773Y17441428D01*
X23285773Y17441428D02*
X23345297Y17322381D01*
X24119107Y18274761D02*
X24119107Y18750952D01*
X24535773Y18453333D02*
X23464345Y18453333D01*
X23464345Y18453333D02*
X23345297Y18512856D01*
X23345297Y18512856D02*
X23285773Y18631904D01*
X23285773Y18631904D02*
X23285773Y18750952D01*
X23345297Y19643809D02*
X23285773Y19524761D01*
X23285773Y19524761D02*
X23285773Y19286666D01*
X23285773Y19286666D02*
X23345297Y19167619D01*
X23345297Y19167619D02*
X23464345Y19108095D01*
X23464345Y19108095D02*
X23940535Y19108095D01*
X23940535Y19108095D02*
X24059583Y19167619D01*
X24059583Y19167619D02*
X24119107Y19286666D01*
X24119107Y19286666D02*
X24119107Y19524761D01*
X24119107Y19524761D02*
X24059583Y19643809D01*
X24059583Y19643809D02*
X23940535Y19703333D01*
X23940535Y19703333D02*
X23821488Y19703333D01*
X23821488Y19703333D02*
X23702440Y19108095D01*
X23285773Y20239048D02*
X24119107Y20239048D01*
X23881011Y20239048D02*
X24000059Y20298571D01*
X24000059Y20298571D02*
X24059583Y20358095D01*
X24059583Y20358095D02*
X24119107Y20477143D01*
X24119107Y20477143D02*
X24119107Y20596190D01*
X21260773Y4631905D02*
X21856011Y4215239D01*
X21260773Y3917620D02*
X22510773Y3917620D01*
X22510773Y3917620D02*
X22510773Y4393810D01*
X22510773Y4393810D02*
X22451250Y4512858D01*
X22451250Y4512858D02*
X22391726Y4572381D01*
X22391726Y4572381D02*
X22272678Y4631905D01*
X22272678Y4631905D02*
X22094107Y4631905D01*
X22094107Y4631905D02*
X21975059Y4572381D01*
X21975059Y4572381D02*
X21915535Y4512858D01*
X21915535Y4512858D02*
X21856011Y4393810D01*
X21856011Y4393810D02*
X21856011Y3917620D01*
X21915535Y5167620D02*
X21915535Y5584286D01*
X21260773Y5762858D02*
X21260773Y5167620D01*
X21260773Y5167620D02*
X22510773Y5167620D01*
X22510773Y5167620D02*
X22510773Y5762858D01*
X22510773Y6120000D02*
X21260773Y6536667D01*
X21260773Y6536667D02*
X22510773Y6953333D01*
X22510773Y8358096D02*
X22510773Y8477143D01*
X22510773Y8477143D02*
X22451250Y8596191D01*
X22451250Y8596191D02*
X22391726Y8655715D01*
X22391726Y8655715D02*
X22272678Y8715239D01*
X22272678Y8715239D02*
X22034583Y8774762D01*
X22034583Y8774762D02*
X21736964Y8774762D01*
X21736964Y8774762D02*
X21498869Y8715239D01*
X21498869Y8715239D02*
X21379821Y8655715D01*
X21379821Y8655715D02*
X21320297Y8596191D01*
X21320297Y8596191D02*
X21260773Y8477143D01*
X21260773Y8477143D02*
X21260773Y8358096D01*
X21260773Y8358096D02*
X21320297Y8239048D01*
X21320297Y8239048D02*
X21379821Y8179524D01*
X21379821Y8179524D02*
X21498869Y8120001D01*
X21498869Y8120001D02*
X21736964Y8060477D01*
X21736964Y8060477D02*
X22034583Y8060477D01*
X22034583Y8060477D02*
X22272678Y8120001D01*
X22272678Y8120001D02*
X22391726Y8179524D01*
X22391726Y8179524D02*
X22451250Y8239048D01*
X22451250Y8239048D02*
X22510773Y8358096D01*
X21379821Y9310477D02*
X21320297Y9370000D01*
X21320297Y9370000D02*
X21260773Y9310477D01*
X21260773Y9310477D02*
X21320297Y9250953D01*
X21320297Y9250953D02*
X21379821Y9310477D01*
X21379821Y9310477D02*
X21260773Y9310477D01*
X22391726Y9846191D02*
X22451250Y9905715D01*
X22451250Y9905715D02*
X22510773Y10024762D01*
X22510773Y10024762D02*
X22510773Y10322381D01*
X22510773Y10322381D02*
X22451250Y10441429D01*
X22451250Y10441429D02*
X22391726Y10500953D01*
X22391726Y10500953D02*
X22272678Y10560476D01*
X22272678Y10560476D02*
X22153630Y10560476D01*
X22153630Y10560476D02*
X21975059Y10500953D01*
X21975059Y10500953D02*
X21260773Y9786667D01*
X21260773Y9786667D02*
X21260773Y10560476D01*
X19295297Y3858096D02*
X19235773Y3977143D01*
X19235773Y3977143D02*
X19235773Y4215239D01*
X19235773Y4215239D02*
X19295297Y4334286D01*
X19295297Y4334286D02*
X19414345Y4393810D01*
X19414345Y4393810D02*
X19473869Y4393810D01*
X19473869Y4393810D02*
X19592916Y4334286D01*
X19592916Y4334286D02*
X19652440Y4215239D01*
X19652440Y4215239D02*
X19652440Y4036667D01*
X19652440Y4036667D02*
X19711964Y3917620D01*
X19711964Y3917620D02*
X19831011Y3858096D01*
X19831011Y3858096D02*
X19890535Y3858096D01*
X19890535Y3858096D02*
X20009583Y3917620D01*
X20009583Y3917620D02*
X20069107Y4036667D01*
X20069107Y4036667D02*
X20069107Y4215239D01*
X20069107Y4215239D02*
X20009583Y4334286D01*
X19235773Y4929525D02*
X20485773Y4929525D01*
X19235773Y5465239D02*
X19890535Y5465239D01*
X19890535Y5465239D02*
X20009583Y5405715D01*
X20009583Y5405715D02*
X20069107Y5286667D01*
X20069107Y5286667D02*
X20069107Y5108096D01*
X20069107Y5108096D02*
X20009583Y4989048D01*
X20009583Y4989048D02*
X19950059Y4929525D01*
X19235773Y6239048D02*
X19295297Y6120000D01*
X19295297Y6120000D02*
X19354821Y6060477D01*
X19354821Y6060477D02*
X19473869Y6000953D01*
X19473869Y6000953D02*
X19831011Y6000953D01*
X19831011Y6000953D02*
X19950059Y6060477D01*
X19950059Y6060477D02*
X20009583Y6120000D01*
X20009583Y6120000D02*
X20069107Y6239048D01*
X20069107Y6239048D02*
X20069107Y6417619D01*
X20069107Y6417619D02*
X20009583Y6536667D01*
X20009583Y6536667D02*
X19950059Y6596191D01*
X19950059Y6596191D02*
X19831011Y6655715D01*
X19831011Y6655715D02*
X19473869Y6655715D01*
X19473869Y6655715D02*
X19354821Y6596191D01*
X19354821Y6596191D02*
X19295297Y6536667D01*
X19295297Y6536667D02*
X19235773Y6417619D01*
X19235773Y6417619D02*
X19235773Y6239048D01*
X19235773Y7191429D02*
X20069107Y7191429D01*
X19831011Y7191429D02*
X19950059Y7250952D01*
X19950059Y7250952D02*
X20009583Y7310476D01*
X20009583Y7310476D02*
X20069107Y7429524D01*
X20069107Y7429524D02*
X20069107Y7548571D01*
X20069107Y7786667D02*
X20069107Y8262858D01*
X20485773Y7965239D02*
X19414345Y7965239D01*
X19414345Y7965239D02*
X19295297Y8024762D01*
X19295297Y8024762D02*
X19235773Y8143810D01*
X19235773Y8143810D02*
X19235773Y8262858D01*
X20069107Y9215239D02*
X19235773Y9215239D01*
X20069107Y8679525D02*
X19414345Y8679525D01*
X19414345Y8679525D02*
X19295297Y8739048D01*
X19295297Y8739048D02*
X19235773Y8858096D01*
X19235773Y8858096D02*
X19235773Y9036667D01*
X19235773Y9036667D02*
X19295297Y9155715D01*
X19295297Y9155715D02*
X19354821Y9215239D01*
X19235773Y9810477D02*
X20069107Y9810477D01*
X19831011Y9810477D02*
X19950059Y9870000D01*
X19950059Y9870000D02*
X20009583Y9929524D01*
X20009583Y9929524D02*
X20069107Y10048572D01*
X20069107Y10048572D02*
X20069107Y10167619D01*
X19235773Y10762858D02*
X19295297Y10643810D01*
X19295297Y10643810D02*
X19414345Y10584287D01*
X19414345Y10584287D02*
X20485773Y10584287D01*
X19354821Y11239049D02*
X19295297Y11298572D01*
X19295297Y11298572D02*
X19235773Y11239049D01*
X19235773Y11239049D02*
X19295297Y11179525D01*
X19295297Y11179525D02*
X19354821Y11239049D01*
X19354821Y11239049D02*
X19235773Y11239049D01*
X19235773Y12370001D02*
X19890535Y12370001D01*
X19890535Y12370001D02*
X20009583Y12310477D01*
X20009583Y12310477D02*
X20069107Y12191429D01*
X20069107Y12191429D02*
X20069107Y11953334D01*
X20069107Y11953334D02*
X20009583Y11834287D01*
X19295297Y12370001D02*
X19235773Y12250953D01*
X19235773Y12250953D02*
X19235773Y11953334D01*
X19235773Y11953334D02*
X19295297Y11834287D01*
X19295297Y11834287D02*
X19414345Y11774763D01*
X19414345Y11774763D02*
X19533392Y11774763D01*
X19533392Y11774763D02*
X19652440Y11834287D01*
X19652440Y11834287D02*
X19711964Y11953334D01*
X19711964Y11953334D02*
X19711964Y12250953D01*
X19711964Y12250953D02*
X19771488Y12370001D01*
X20069107Y12786667D02*
X20069107Y13262858D01*
X20485773Y12965239D02*
X19414345Y12965239D01*
X19414345Y12965239D02*
X19295297Y13024762D01*
X19295297Y13024762D02*
X19235773Y13143810D01*
X19235773Y13143810D02*
X19235773Y13262858D01*
X20545297Y14572382D02*
X18938154Y13500953D01*
X19295297Y15465239D02*
X19235773Y15346191D01*
X19235773Y15346191D02*
X19235773Y15108096D01*
X19235773Y15108096D02*
X19295297Y14989049D01*
X19295297Y14989049D02*
X19414345Y14929525D01*
X19414345Y14929525D02*
X19890535Y14929525D01*
X19890535Y14929525D02*
X20009583Y14989049D01*
X20009583Y14989049D02*
X20069107Y15108096D01*
X20069107Y15108096D02*
X20069107Y15346191D01*
X20069107Y15346191D02*
X20009583Y15465239D01*
X20009583Y15465239D02*
X19890535Y15524763D01*
X19890535Y15524763D02*
X19771488Y15524763D01*
X19771488Y15524763D02*
X19652440Y14929525D01*
X19235773Y16655716D02*
X19235773Y16060478D01*
X19235773Y16060478D02*
X20485773Y16060478D01*
X20485773Y16953335D02*
X19235773Y17250954D01*
X19235773Y17250954D02*
X20128630Y17489049D01*
X20128630Y17489049D02*
X19235773Y17727144D01*
X19235773Y17727144D02*
X20485773Y18024763D01*
X20485773Y19096192D02*
X20485773Y18500954D01*
X20485773Y18500954D02*
X19890535Y18441430D01*
X19890535Y18441430D02*
X19950059Y18500954D01*
X19950059Y18500954D02*
X20009583Y18620001D01*
X20009583Y18620001D02*
X20009583Y18917620D01*
X20009583Y18917620D02*
X19950059Y19036668D01*
X19950059Y19036668D02*
X19890535Y19096192D01*
X19890535Y19096192D02*
X19771488Y19155715D01*
X19771488Y19155715D02*
X19473869Y19155715D01*
X19473869Y19155715D02*
X19354821Y19096192D01*
X19354821Y19096192D02*
X19295297Y19036668D01*
X19295297Y19036668D02*
X19235773Y18917620D01*
X19235773Y18917620D02*
X19235773Y18620001D01*
X19235773Y18620001D02*
X19295297Y18500954D01*
X19295297Y18500954D02*
X19354821Y18441430D01*
X19950059Y19870001D02*
X20009583Y19750953D01*
X20009583Y19750953D02*
X20069107Y19691430D01*
X20069107Y19691430D02*
X20188154Y19631906D01*
X20188154Y19631906D02*
X20247678Y19631906D01*
X20247678Y19631906D02*
X20366726Y19691430D01*
X20366726Y19691430D02*
X20426250Y19750953D01*
X20426250Y19750953D02*
X20485773Y19870001D01*
X20485773Y19870001D02*
X20485773Y20108096D01*
X20485773Y20108096D02*
X20426250Y20227144D01*
X20426250Y20227144D02*
X20366726Y20286668D01*
X20366726Y20286668D02*
X20247678Y20346191D01*
X20247678Y20346191D02*
X20188154Y20346191D01*
X20188154Y20346191D02*
X20069107Y20286668D01*
X20069107Y20286668D02*
X20009583Y20227144D01*
X20009583Y20227144D02*
X19950059Y20108096D01*
X19950059Y20108096D02*
X19950059Y19870001D01*
X19950059Y19870001D02*
X19890535Y19750953D01*
X19890535Y19750953D02*
X19831011Y19691430D01*
X19831011Y19691430D02*
X19711964Y19631906D01*
X19711964Y19631906D02*
X19473869Y19631906D01*
X19473869Y19631906D02*
X19354821Y19691430D01*
X19354821Y19691430D02*
X19295297Y19750953D01*
X19295297Y19750953D02*
X19235773Y19870001D01*
X19235773Y19870001D02*
X19235773Y20108096D01*
X19235773Y20108096D02*
X19295297Y20227144D01*
X19295297Y20227144D02*
X19354821Y20286668D01*
X19354821Y20286668D02*
X19473869Y20346191D01*
X19473869Y20346191D02*
X19711964Y20346191D01*
X19711964Y20346191D02*
X19831011Y20286668D01*
X19831011Y20286668D02*
X19890535Y20227144D01*
X19890535Y20227144D02*
X19950059Y20108096D01*
X16435773Y3739048D02*
X15185773Y4155715D01*
X15185773Y4155715D02*
X16435773Y4572381D01*
X16435773Y4810477D02*
X16435773Y5524763D01*
X15185773Y5167620D02*
X16435773Y5167620D01*
X15185773Y5941430D02*
X16019107Y5941430D01*
X15781011Y5941430D02*
X15900059Y6000953D01*
X15900059Y6000953D02*
X15959583Y6060477D01*
X15959583Y6060477D02*
X16019107Y6179525D01*
X16019107Y6179525D02*
X16019107Y6298572D01*
X15245297Y7191430D02*
X15185773Y7072382D01*
X15185773Y7072382D02*
X15185773Y6834287D01*
X15185773Y6834287D02*
X15245297Y6715240D01*
X15245297Y6715240D02*
X15364345Y6655716D01*
X15364345Y6655716D02*
X15840535Y6655716D01*
X15840535Y6655716D02*
X15959583Y6715240D01*
X15959583Y6715240D02*
X16019107Y6834287D01*
X16019107Y6834287D02*
X16019107Y7072382D01*
X16019107Y7072382D02*
X15959583Y7191430D01*
X15959583Y7191430D02*
X15840535Y7250954D01*
X15840535Y7250954D02*
X15721488Y7250954D01*
X15721488Y7250954D02*
X15602440Y6655716D01*
X16019107Y7608097D02*
X16019107Y8084288D01*
X15185773Y7786669D02*
X16257202Y7786669D01*
X16257202Y7786669D02*
X16376250Y7846192D01*
X16376250Y7846192D02*
X16435773Y7965240D01*
X16435773Y7965240D02*
X16435773Y8084288D01*
X16435773Y9608097D02*
X15542916Y9608097D01*
X15542916Y9608097D02*
X15364345Y9548574D01*
X15364345Y9548574D02*
X15245297Y9429526D01*
X15245297Y9429526D02*
X15185773Y9250955D01*
X15185773Y9250955D02*
X15185773Y9131907D01*
X16019107Y10739050D02*
X15185773Y10739050D01*
X16019107Y10203336D02*
X15364345Y10203336D01*
X15364345Y10203336D02*
X15245297Y10262859D01*
X15245297Y10262859D02*
X15185773Y10381907D01*
X15185773Y10381907D02*
X15185773Y10560478D01*
X15185773Y10560478D02*
X15245297Y10679526D01*
X15245297Y10679526D02*
X15304821Y10739050D01*
X15185773Y11334288D02*
X16019107Y11334288D01*
X15900059Y11334288D02*
X15959583Y11393811D01*
X15959583Y11393811D02*
X16019107Y11512859D01*
X16019107Y11512859D02*
X16019107Y11691430D01*
X16019107Y11691430D02*
X15959583Y11810478D01*
X15959583Y11810478D02*
X15840535Y11870002D01*
X15840535Y11870002D02*
X15185773Y11870002D01*
X15840535Y11870002D02*
X15959583Y11929526D01*
X15959583Y11929526D02*
X16019107Y12048573D01*
X16019107Y12048573D02*
X16019107Y12227145D01*
X16019107Y12227145D02*
X15959583Y12346192D01*
X15959583Y12346192D02*
X15840535Y12405716D01*
X15840535Y12405716D02*
X15185773Y12405716D01*
X16019107Y13000955D02*
X14769107Y13000955D01*
X15959583Y13000955D02*
X16019107Y13120002D01*
X16019107Y13120002D02*
X16019107Y13358097D01*
X16019107Y13358097D02*
X15959583Y13477145D01*
X15959583Y13477145D02*
X15900059Y13536669D01*
X15900059Y13536669D02*
X15781011Y13596193D01*
X15781011Y13596193D02*
X15423869Y13596193D01*
X15423869Y13596193D02*
X15304821Y13536669D01*
X15304821Y13536669D02*
X15245297Y13477145D01*
X15245297Y13477145D02*
X15185773Y13358097D01*
X15185773Y13358097D02*
X15185773Y13120002D01*
X15185773Y13120002D02*
X15245297Y13000955D01*
X15245297Y14608097D02*
X15185773Y14489049D01*
X15185773Y14489049D02*
X15185773Y14250954D01*
X15185773Y14250954D02*
X15245297Y14131907D01*
X15245297Y14131907D02*
X15364345Y14072383D01*
X15364345Y14072383D02*
X15840535Y14072383D01*
X15840535Y14072383D02*
X15959583Y14131907D01*
X15959583Y14131907D02*
X16019107Y14250954D01*
X16019107Y14250954D02*
X16019107Y14489049D01*
X16019107Y14489049D02*
X15959583Y14608097D01*
X15959583Y14608097D02*
X15840535Y14667621D01*
X15840535Y14667621D02*
X15721488Y14667621D01*
X15721488Y14667621D02*
X15602440Y14072383D01*
X15185773Y15203336D02*
X16019107Y15203336D01*
X15781011Y15203336D02*
X15900059Y15262859D01*
X15900059Y15262859D02*
X15959583Y15322383D01*
X15959583Y15322383D02*
X16019107Y15441431D01*
X16019107Y15441431D02*
X16019107Y15560478D01*
X15304821Y15977146D02*
X15245297Y16036669D01*
X15245297Y16036669D02*
X15185773Y15977146D01*
X15185773Y15977146D02*
X15245297Y15917622D01*
X15245297Y15917622D02*
X15304821Y15977146D01*
X15304821Y15977146D02*
X15185773Y15977146D01*
X15959583Y15977146D02*
X15900059Y16036669D01*
X15900059Y16036669D02*
X15840535Y15977146D01*
X15840535Y15977146D02*
X15900059Y15917622D01*
X15900059Y15917622D02*
X15959583Y15977146D01*
X15959583Y15977146D02*
X15840535Y15977146D01*
X13160773Y3917620D02*
X14410773Y3917620D01*
X14410773Y3917620D02*
X14410773Y4215239D01*
X14410773Y4215239D02*
X14351250Y4393810D01*
X14351250Y4393810D02*
X14232202Y4512858D01*
X14232202Y4512858D02*
X14113154Y4572381D01*
X14113154Y4572381D02*
X13875059Y4631905D01*
X13875059Y4631905D02*
X13696488Y4631905D01*
X13696488Y4631905D02*
X13458392Y4572381D01*
X13458392Y4572381D02*
X13339345Y4512858D01*
X13339345Y4512858D02*
X13220297Y4393810D01*
X13220297Y4393810D02*
X13160773Y4215239D01*
X13160773Y4215239D02*
X13160773Y3917620D01*
X13815535Y5167620D02*
X13815535Y5584286D01*
X13160773Y5762858D02*
X13160773Y5167620D01*
X13160773Y5167620D02*
X14410773Y5167620D01*
X14410773Y5167620D02*
X14410773Y5762858D01*
X14410773Y6120000D02*
X13160773Y6536667D01*
X13160773Y6536667D02*
X14410773Y6953333D01*
X13279821Y7370001D02*
X13220297Y7429524D01*
X13220297Y7429524D02*
X13160773Y7370001D01*
X13160773Y7370001D02*
X13220297Y7310477D01*
X13220297Y7310477D02*
X13279821Y7370001D01*
X13279821Y7370001D02*
X13160773Y7370001D01*
X13934583Y7370001D02*
X13875059Y7429524D01*
X13875059Y7429524D02*
X13815535Y7370001D01*
X13815535Y7370001D02*
X13875059Y7310477D01*
X13875059Y7310477D02*
X13934583Y7370001D01*
X13934583Y7370001D02*
X13815535Y7370001D01*
X13160773Y9250953D02*
X14410773Y9250953D01*
X13220297Y9250953D02*
X13160773Y9131905D01*
X13160773Y9131905D02*
X13160773Y8893810D01*
X13160773Y8893810D02*
X13220297Y8774762D01*
X13220297Y8774762D02*
X13279821Y8715239D01*
X13279821Y8715239D02*
X13398869Y8655715D01*
X13398869Y8655715D02*
X13756011Y8655715D01*
X13756011Y8655715D02*
X13875059Y8715239D01*
X13875059Y8715239D02*
X13934583Y8774762D01*
X13934583Y8774762D02*
X13994107Y8893810D01*
X13994107Y8893810D02*
X13994107Y9131905D01*
X13994107Y9131905D02*
X13934583Y9250953D01*
X13220297Y10322381D02*
X13160773Y10203333D01*
X13160773Y10203333D02*
X13160773Y9965238D01*
X13160773Y9965238D02*
X13220297Y9846191D01*
X13220297Y9846191D02*
X13339345Y9786667D01*
X13339345Y9786667D02*
X13815535Y9786667D01*
X13815535Y9786667D02*
X13934583Y9846191D01*
X13934583Y9846191D02*
X13994107Y9965238D01*
X13994107Y9965238D02*
X13994107Y10203333D01*
X13994107Y10203333D02*
X13934583Y10322381D01*
X13934583Y10322381D02*
X13815535Y10381905D01*
X13815535Y10381905D02*
X13696488Y10381905D01*
X13696488Y10381905D02*
X13577440Y9786667D01*
X13994107Y10798572D02*
X13160773Y11096191D01*
X13160773Y11096191D02*
X13994107Y11393810D01*
X13160773Y11870001D02*
X13994107Y11870001D01*
X14410773Y11870001D02*
X14351250Y11810477D01*
X14351250Y11810477D02*
X14291726Y11870001D01*
X14291726Y11870001D02*
X14351250Y11929524D01*
X14351250Y11929524D02*
X14410773Y11870001D01*
X14410773Y11870001D02*
X14291726Y11870001D01*
X13220297Y13000953D02*
X13160773Y12881905D01*
X13160773Y12881905D02*
X13160773Y12643810D01*
X13160773Y12643810D02*
X13220297Y12524762D01*
X13220297Y12524762D02*
X13279821Y12465239D01*
X13279821Y12465239D02*
X13398869Y12405715D01*
X13398869Y12405715D02*
X13756011Y12405715D01*
X13756011Y12405715D02*
X13875059Y12465239D01*
X13875059Y12465239D02*
X13934583Y12524762D01*
X13934583Y12524762D02*
X13994107Y12643810D01*
X13994107Y12643810D02*
X13994107Y12881905D01*
X13994107Y12881905D02*
X13934583Y13000953D01*
X13220297Y14012858D02*
X13160773Y13893810D01*
X13160773Y13893810D02*
X13160773Y13655715D01*
X13160773Y13655715D02*
X13220297Y13536668D01*
X13220297Y13536668D02*
X13339345Y13477144D01*
X13339345Y13477144D02*
X13815535Y13477144D01*
X13815535Y13477144D02*
X13934583Y13536668D01*
X13934583Y13536668D02*
X13994107Y13655715D01*
X13994107Y13655715D02*
X13994107Y13893810D01*
X13994107Y13893810D02*
X13934583Y14012858D01*
X13934583Y14012858D02*
X13815535Y14072382D01*
X13815535Y14072382D02*
X13696488Y14072382D01*
X13696488Y14072382D02*
X13577440Y13477144D01*
X13220297Y14548573D02*
X13160773Y14667620D01*
X13160773Y14667620D02*
X13160773Y14905716D01*
X13160773Y14905716D02*
X13220297Y15024763D01*
X13220297Y15024763D02*
X13339345Y15084287D01*
X13339345Y15084287D02*
X13398869Y15084287D01*
X13398869Y15084287D02*
X13517916Y15024763D01*
X13517916Y15024763D02*
X13577440Y14905716D01*
X13577440Y14905716D02*
X13577440Y14727144D01*
X13577440Y14727144D02*
X13636964Y14608097D01*
X13636964Y14608097D02*
X13756011Y14548573D01*
X13756011Y14548573D02*
X13815535Y14548573D01*
X13815535Y14548573D02*
X13934583Y14608097D01*
X13934583Y14608097D02*
X13994107Y14727144D01*
X13994107Y14727144D02*
X13994107Y14905716D01*
X13994107Y14905716D02*
X13934583Y15024763D01*
X14410773Y15679525D02*
X14172678Y15560478D01*
X13220297Y16155716D02*
X13160773Y16274763D01*
X13160773Y16274763D02*
X13160773Y16512859D01*
X13160773Y16512859D02*
X13220297Y16631906D01*
X13220297Y16631906D02*
X13339345Y16691430D01*
X13339345Y16691430D02*
X13398869Y16691430D01*
X13398869Y16691430D02*
X13517916Y16631906D01*
X13517916Y16631906D02*
X13577440Y16512859D01*
X13577440Y16512859D02*
X13577440Y16334287D01*
X13577440Y16334287D02*
X13636964Y16215240D01*
X13636964Y16215240D02*
X13756011Y16155716D01*
X13756011Y16155716D02*
X13815535Y16155716D01*
X13815535Y16155716D02*
X13934583Y16215240D01*
X13934583Y16215240D02*
X13994107Y16334287D01*
X13994107Y16334287D02*
X13994107Y16512859D01*
X13994107Y16512859D02*
X13934583Y16631906D01*
X14410773Y17798573D02*
X13160773Y18215240D01*
X13160773Y18215240D02*
X14410773Y18631906D01*
X14410773Y18870002D02*
X14410773Y19584288D01*
X13160773Y19227145D02*
X14410773Y19227145D01*
X13160773Y20000955D02*
X13994107Y20000955D01*
X13756011Y20000955D02*
X13875059Y20060478D01*
X13875059Y20060478D02*
X13934583Y20120002D01*
X13934583Y20120002D02*
X13994107Y20239050D01*
X13994107Y20239050D02*
X13994107Y20358097D01*
X13220297Y21250955D02*
X13160773Y21131907D01*
X13160773Y21131907D02*
X13160773Y20893812D01*
X13160773Y20893812D02*
X13220297Y20774765D01*
X13220297Y20774765D02*
X13339345Y20715241D01*
X13339345Y20715241D02*
X13815535Y20715241D01*
X13815535Y20715241D02*
X13934583Y20774765D01*
X13934583Y20774765D02*
X13994107Y20893812D01*
X13994107Y20893812D02*
X13994107Y21131907D01*
X13994107Y21131907D02*
X13934583Y21250955D01*
X13934583Y21250955D02*
X13815535Y21310479D01*
X13815535Y21310479D02*
X13696488Y21310479D01*
X13696488Y21310479D02*
X13577440Y20715241D01*
X13994107Y21667622D02*
X13994107Y22143813D01*
X13160773Y21846194D02*
X14232202Y21846194D01*
X14232202Y21846194D02*
X14351250Y21905717D01*
X14351250Y21905717D02*
X14410773Y22024765D01*
X14410773Y22024765D02*
X14410773Y22143813D01*
X12385773Y3798572D02*
X12385773Y4572381D01*
X12385773Y4572381D02*
X11909583Y4155715D01*
X11909583Y4155715D02*
X11909583Y4334286D01*
X11909583Y4334286D02*
X11850059Y4453334D01*
X11850059Y4453334D02*
X11790535Y4512858D01*
X11790535Y4512858D02*
X11671488Y4572381D01*
X11671488Y4572381D02*
X11373869Y4572381D01*
X11373869Y4572381D02*
X11254821Y4512858D01*
X11254821Y4512858D02*
X11195297Y4453334D01*
X11195297Y4453334D02*
X11135773Y4334286D01*
X11135773Y4334286D02*
X11135773Y3977143D01*
X11135773Y3977143D02*
X11195297Y3858096D01*
X11195297Y3858096D02*
X11254821Y3798572D01*
X12385773Y4929524D02*
X11135773Y5346191D01*
X11135773Y5346191D02*
X12385773Y5762857D01*
X12385773Y6060477D02*
X12385773Y6834286D01*
X12385773Y6834286D02*
X11909583Y6417620D01*
X11909583Y6417620D02*
X11909583Y6596191D01*
X11909583Y6596191D02*
X11850059Y6715239D01*
X11850059Y6715239D02*
X11790535Y6774763D01*
X11790535Y6774763D02*
X11671488Y6834286D01*
X11671488Y6834286D02*
X11373869Y6834286D01*
X11373869Y6834286D02*
X11254821Y6774763D01*
X11254821Y6774763D02*
X11195297Y6715239D01*
X11195297Y6715239D02*
X11135773Y6596191D01*
X11135773Y6596191D02*
X11135773Y6239048D01*
X11135773Y6239048D02*
X11195297Y6120001D01*
X11195297Y6120001D02*
X11254821Y6060477D01*
X11254821Y7370001D02*
X11195297Y7429524D01*
X11195297Y7429524D02*
X11135773Y7370001D01*
X11135773Y7370001D02*
X11195297Y7310477D01*
X11195297Y7310477D02*
X11254821Y7370001D01*
X11254821Y7370001D02*
X11135773Y7370001D01*
X11909583Y7370001D02*
X11850059Y7429524D01*
X11850059Y7429524D02*
X11790535Y7370001D01*
X11790535Y7370001D02*
X11850059Y7310477D01*
X11850059Y7310477D02*
X11909583Y7370001D01*
X11909583Y7370001D02*
X11790535Y7370001D01*
X11195297Y8655715D02*
X11135773Y8774762D01*
X11135773Y8774762D02*
X11135773Y9012858D01*
X11135773Y9012858D02*
X11195297Y9131905D01*
X11195297Y9131905D02*
X11314345Y9191429D01*
X11314345Y9191429D02*
X11373869Y9191429D01*
X11373869Y9191429D02*
X11492916Y9131905D01*
X11492916Y9131905D02*
X11552440Y9012858D01*
X11552440Y9012858D02*
X11552440Y8834286D01*
X11552440Y8834286D02*
X11611964Y8715239D01*
X11611964Y8715239D02*
X11731011Y8655715D01*
X11731011Y8655715D02*
X11790535Y8655715D01*
X11790535Y8655715D02*
X11909583Y8715239D01*
X11909583Y8715239D02*
X11969107Y8834286D01*
X11969107Y8834286D02*
X11969107Y9012858D01*
X11969107Y9012858D02*
X11909583Y9131905D01*
X11195297Y10203334D02*
X11135773Y10084286D01*
X11135773Y10084286D02*
X11135773Y9846191D01*
X11135773Y9846191D02*
X11195297Y9727144D01*
X11195297Y9727144D02*
X11314345Y9667620D01*
X11314345Y9667620D02*
X11790535Y9667620D01*
X11790535Y9667620D02*
X11909583Y9727144D01*
X11909583Y9727144D02*
X11969107Y9846191D01*
X11969107Y9846191D02*
X11969107Y10084286D01*
X11969107Y10084286D02*
X11909583Y10203334D01*
X11909583Y10203334D02*
X11790535Y10262858D01*
X11790535Y10262858D02*
X11671488Y10262858D01*
X11671488Y10262858D02*
X11552440Y9667620D01*
X11969107Y10620001D02*
X11969107Y11096192D01*
X12385773Y10798573D02*
X11314345Y10798573D01*
X11314345Y10798573D02*
X11195297Y10858096D01*
X11195297Y10858096D02*
X11135773Y10977144D01*
X11135773Y10977144D02*
X11135773Y11096192D01*
X12385773Y12084287D02*
X11135773Y12500954D01*
X11135773Y12500954D02*
X12385773Y12917620D01*
X12385773Y13155716D02*
X12385773Y13870002D01*
X11135773Y13512859D02*
X12385773Y13512859D01*
X11135773Y14286669D02*
X11969107Y14286669D01*
X11731011Y14286669D02*
X11850059Y14346192D01*
X11850059Y14346192D02*
X11909583Y14405716D01*
X11909583Y14405716D02*
X11969107Y14524764D01*
X11969107Y14524764D02*
X11969107Y14643811D01*
X11790535Y15060479D02*
X11790535Y15477145D01*
X11135773Y15655717D02*
X11135773Y15060479D01*
X11135773Y15060479D02*
X12385773Y15060479D01*
X12385773Y15060479D02*
X12385773Y15655717D01*
X11790535Y16608097D02*
X11790535Y16191431D01*
X11135773Y16191431D02*
X12385773Y16191431D01*
X12385773Y16191431D02*
X12385773Y16786669D01*
X11969107Y17834288D02*
X11969107Y18310479D01*
X12385773Y18012860D02*
X11314345Y18012860D01*
X11314345Y18012860D02*
X11195297Y18072383D01*
X11195297Y18072383D02*
X11135773Y18191431D01*
X11135773Y18191431D02*
X11135773Y18310479D01*
X11135773Y18905717D02*
X11195297Y18786669D01*
X11195297Y18786669D02*
X11254821Y18727146D01*
X11254821Y18727146D02*
X11373869Y18667622D01*
X11373869Y18667622D02*
X11731011Y18667622D01*
X11731011Y18667622D02*
X11850059Y18727146D01*
X11850059Y18727146D02*
X11909583Y18786669D01*
X11909583Y18786669D02*
X11969107Y18905717D01*
X11969107Y18905717D02*
X11969107Y19084288D01*
X11969107Y19084288D02*
X11909583Y19203336D01*
X11909583Y19203336D02*
X11850059Y19262860D01*
X11850059Y19262860D02*
X11731011Y19322384D01*
X11731011Y19322384D02*
X11373869Y19322384D01*
X11373869Y19322384D02*
X11254821Y19262860D01*
X11254821Y19262860D02*
X11195297Y19203336D01*
X11195297Y19203336D02*
X11135773Y19084288D01*
X11135773Y19084288D02*
X11135773Y18905717D01*
X12385773Y20489050D02*
X12385773Y21262859D01*
X12385773Y21262859D02*
X11909583Y20846193D01*
X11909583Y20846193D02*
X11909583Y21024764D01*
X11909583Y21024764D02*
X11850059Y21143812D01*
X11850059Y21143812D02*
X11790535Y21203336D01*
X11790535Y21203336D02*
X11671488Y21262859D01*
X11671488Y21262859D02*
X11373869Y21262859D01*
X11373869Y21262859D02*
X11254821Y21203336D01*
X11254821Y21203336D02*
X11195297Y21143812D01*
X11195297Y21143812D02*
X11135773Y21024764D01*
X11135773Y21024764D02*
X11135773Y20667621D01*
X11135773Y20667621D02*
X11195297Y20548574D01*
X11195297Y20548574D02*
X11254821Y20489050D01*
X11969107Y21679526D02*
X11135773Y21977145D01*
X11135773Y21977145D02*
X11969107Y22274764D01*
X12385773Y22631907D02*
X12385773Y23405716D01*
X12385773Y23405716D02*
X11909583Y22989050D01*
X11909583Y22989050D02*
X11909583Y23167621D01*
X11909583Y23167621D02*
X11850059Y23286669D01*
X11850059Y23286669D02*
X11790535Y23346193D01*
X11790535Y23346193D02*
X11671488Y23405716D01*
X11671488Y23405716D02*
X11373869Y23405716D01*
X11373869Y23405716D02*
X11254821Y23346193D01*
X11254821Y23346193D02*
X11195297Y23286669D01*
X11195297Y23286669D02*
X11135773Y23167621D01*
X11135773Y23167621D02*
X11135773Y22810478D01*
X11135773Y22810478D02*
X11195297Y22691431D01*
X11195297Y22691431D02*
X11254821Y22631907D01*
X9110773Y4572381D02*
X9110773Y3858096D01*
X9110773Y4215239D02*
X10360773Y4215239D01*
X10360773Y4215239D02*
X10182202Y4096191D01*
X10182202Y4096191D02*
X10063154Y3977143D01*
X10063154Y3977143D02*
X10003630Y3858096D01*
X10360773Y4929524D02*
X9110773Y5346191D01*
X9110773Y5346191D02*
X10360773Y5762857D01*
X9825059Y6358096D02*
X9884583Y6239048D01*
X9884583Y6239048D02*
X9944107Y6179525D01*
X9944107Y6179525D02*
X10063154Y6120001D01*
X10063154Y6120001D02*
X10122678Y6120001D01*
X10122678Y6120001D02*
X10241726Y6179525D01*
X10241726Y6179525D02*
X10301250Y6239048D01*
X10301250Y6239048D02*
X10360773Y6358096D01*
X10360773Y6358096D02*
X10360773Y6596191D01*
X10360773Y6596191D02*
X10301250Y6715239D01*
X10301250Y6715239D02*
X10241726Y6774763D01*
X10241726Y6774763D02*
X10122678Y6834286D01*
X10122678Y6834286D02*
X10063154Y6834286D01*
X10063154Y6834286D02*
X9944107Y6774763D01*
X9944107Y6774763D02*
X9884583Y6715239D01*
X9884583Y6715239D02*
X9825059Y6596191D01*
X9825059Y6596191D02*
X9825059Y6358096D01*
X9825059Y6358096D02*
X9765535Y6239048D01*
X9765535Y6239048D02*
X9706011Y6179525D01*
X9706011Y6179525D02*
X9586964Y6120001D01*
X9586964Y6120001D02*
X9348869Y6120001D01*
X9348869Y6120001D02*
X9229821Y6179525D01*
X9229821Y6179525D02*
X9170297Y6239048D01*
X9170297Y6239048D02*
X9110773Y6358096D01*
X9110773Y6358096D02*
X9110773Y6596191D01*
X9110773Y6596191D02*
X9170297Y6715239D01*
X9170297Y6715239D02*
X9229821Y6774763D01*
X9229821Y6774763D02*
X9348869Y6834286D01*
X9348869Y6834286D02*
X9586964Y6834286D01*
X9586964Y6834286D02*
X9706011Y6774763D01*
X9706011Y6774763D02*
X9765535Y6715239D01*
X9765535Y6715239D02*
X9825059Y6596191D01*
X9229821Y7370001D02*
X9170297Y7429524D01*
X9170297Y7429524D02*
X9110773Y7370001D01*
X9110773Y7370001D02*
X9170297Y7310477D01*
X9170297Y7310477D02*
X9229821Y7370001D01*
X9229821Y7370001D02*
X9110773Y7370001D01*
X9884583Y7370001D02*
X9825059Y7429524D01*
X9825059Y7429524D02*
X9765535Y7370001D01*
X9765535Y7370001D02*
X9825059Y7310477D01*
X9825059Y7310477D02*
X9884583Y7370001D01*
X9884583Y7370001D02*
X9765535Y7370001D01*
X9170297Y8655715D02*
X9110773Y8774762D01*
X9110773Y8774762D02*
X9110773Y9012858D01*
X9110773Y9012858D02*
X9170297Y9131905D01*
X9170297Y9131905D02*
X9289345Y9191429D01*
X9289345Y9191429D02*
X9348869Y9191429D01*
X9348869Y9191429D02*
X9467916Y9131905D01*
X9467916Y9131905D02*
X9527440Y9012858D01*
X9527440Y9012858D02*
X9527440Y8834286D01*
X9527440Y8834286D02*
X9586964Y8715239D01*
X9586964Y8715239D02*
X9706011Y8655715D01*
X9706011Y8655715D02*
X9765535Y8655715D01*
X9765535Y8655715D02*
X9884583Y8715239D01*
X9884583Y8715239D02*
X9944107Y8834286D01*
X9944107Y8834286D02*
X9944107Y9012858D01*
X9944107Y9012858D02*
X9884583Y9131905D01*
X9170297Y10203334D02*
X9110773Y10084286D01*
X9110773Y10084286D02*
X9110773Y9846191D01*
X9110773Y9846191D02*
X9170297Y9727144D01*
X9170297Y9727144D02*
X9289345Y9667620D01*
X9289345Y9667620D02*
X9765535Y9667620D01*
X9765535Y9667620D02*
X9884583Y9727144D01*
X9884583Y9727144D02*
X9944107Y9846191D01*
X9944107Y9846191D02*
X9944107Y10084286D01*
X9944107Y10084286D02*
X9884583Y10203334D01*
X9884583Y10203334D02*
X9765535Y10262858D01*
X9765535Y10262858D02*
X9646488Y10262858D01*
X9646488Y10262858D02*
X9527440Y9667620D01*
X9944107Y10620001D02*
X9944107Y11096192D01*
X10360773Y10798573D02*
X9289345Y10798573D01*
X9289345Y10798573D02*
X9170297Y10858096D01*
X9170297Y10858096D02*
X9110773Y10977144D01*
X9110773Y10977144D02*
X9110773Y11096192D01*
X10360773Y12084287D02*
X9110773Y12500954D01*
X9110773Y12500954D02*
X10360773Y12917620D01*
X10360773Y13155716D02*
X10360773Y13870002D01*
X9110773Y13512859D02*
X10360773Y13512859D01*
X9110773Y14286669D02*
X9944107Y14286669D01*
X9706011Y14286669D02*
X9825059Y14346192D01*
X9825059Y14346192D02*
X9884583Y14405716D01*
X9884583Y14405716D02*
X9944107Y14524764D01*
X9944107Y14524764D02*
X9944107Y14643811D01*
X9170297Y15536669D02*
X9110773Y15417621D01*
X9110773Y15417621D02*
X9110773Y15179526D01*
X9110773Y15179526D02*
X9170297Y15060479D01*
X9170297Y15060479D02*
X9289345Y15000955D01*
X9289345Y15000955D02*
X9765535Y15000955D01*
X9765535Y15000955D02*
X9884583Y15060479D01*
X9884583Y15060479D02*
X9944107Y15179526D01*
X9944107Y15179526D02*
X9944107Y15417621D01*
X9944107Y15417621D02*
X9884583Y15536669D01*
X9884583Y15536669D02*
X9765535Y15596193D01*
X9765535Y15596193D02*
X9646488Y15596193D01*
X9646488Y15596193D02*
X9527440Y15000955D01*
X9944107Y15953336D02*
X9944107Y16429527D01*
X9110773Y16131908D02*
X10182202Y16131908D01*
X10182202Y16131908D02*
X10301250Y16191431D01*
X10301250Y16191431D02*
X10360773Y16310479D01*
X10360773Y16310479D02*
X10360773Y16429527D01*
X9944107Y17417622D02*
X9944107Y17893813D01*
X10360773Y17596194D02*
X9289345Y17596194D01*
X9289345Y17596194D02*
X9170297Y17655717D01*
X9170297Y17655717D02*
X9110773Y17774765D01*
X9110773Y17774765D02*
X9110773Y17893813D01*
X9110773Y18489051D02*
X9170297Y18370003D01*
X9170297Y18370003D02*
X9229821Y18310480D01*
X9229821Y18310480D02*
X9348869Y18250956D01*
X9348869Y18250956D02*
X9706011Y18250956D01*
X9706011Y18250956D02*
X9825059Y18310480D01*
X9825059Y18310480D02*
X9884583Y18370003D01*
X9884583Y18370003D02*
X9944107Y18489051D01*
X9944107Y18489051D02*
X9944107Y18667622D01*
X9944107Y18667622D02*
X9884583Y18786670D01*
X9884583Y18786670D02*
X9825059Y18846194D01*
X9825059Y18846194D02*
X9706011Y18905718D01*
X9706011Y18905718D02*
X9348869Y18905718D01*
X9348869Y18905718D02*
X9229821Y18846194D01*
X9229821Y18846194D02*
X9170297Y18786670D01*
X9170297Y18786670D02*
X9110773Y18667622D01*
X9110773Y18667622D02*
X9110773Y18489051D01*
X9110773Y20846193D02*
X9110773Y20131908D01*
X9110773Y20489051D02*
X10360773Y20489051D01*
X10360773Y20489051D02*
X10182202Y20370003D01*
X10182202Y20370003D02*
X10063154Y20250955D01*
X10063154Y20250955D02*
X10003630Y20131908D01*
X10360773Y21203336D02*
X9110773Y21620003D01*
X9110773Y21620003D02*
X10360773Y22036669D01*
X9825059Y22631908D02*
X9884583Y22512860D01*
X9884583Y22512860D02*
X9944107Y22453337D01*
X9944107Y22453337D02*
X10063154Y22393813D01*
X10063154Y22393813D02*
X10122678Y22393813D01*
X10122678Y22393813D02*
X10241726Y22453337D01*
X10241726Y22453337D02*
X10301250Y22512860D01*
X10301250Y22512860D02*
X10360773Y22631908D01*
X10360773Y22631908D02*
X10360773Y22870003D01*
X10360773Y22870003D02*
X10301250Y22989051D01*
X10301250Y22989051D02*
X10241726Y23048575D01*
X10241726Y23048575D02*
X10122678Y23108098D01*
X10122678Y23108098D02*
X10063154Y23108098D01*
X10063154Y23108098D02*
X9944107Y23048575D01*
X9944107Y23048575D02*
X9884583Y22989051D01*
X9884583Y22989051D02*
X9825059Y22870003D01*
X9825059Y22870003D02*
X9825059Y22631908D01*
X9825059Y22631908D02*
X9765535Y22512860D01*
X9765535Y22512860D02*
X9706011Y22453337D01*
X9706011Y22453337D02*
X9586964Y22393813D01*
X9586964Y22393813D02*
X9348869Y22393813D01*
X9348869Y22393813D02*
X9229821Y22453337D01*
X9229821Y22453337D02*
X9170297Y22512860D01*
X9170297Y22512860D02*
X9110773Y22631908D01*
X9110773Y22631908D02*
X9110773Y22870003D01*
X9110773Y22870003D02*
X9170297Y22989051D01*
X9170297Y22989051D02*
X9229821Y23048575D01*
X9229821Y23048575D02*
X9348869Y23108098D01*
X9348869Y23108098D02*
X9586964Y23108098D01*
X9586964Y23108098D02*
X9706011Y23048575D01*
X9706011Y23048575D02*
X9765535Y22989051D01*
X9765535Y22989051D02*
X9825059Y22870003D01*
G36*
X25397629Y25566903D02*
G01*
X25403271Y24732735D01*
X25307422Y24718362D01*
X25282228Y24715583D01*
X25203133Y24712070D01*
X25103821Y24712162D01*
X24999912Y24715981D01*
X24922347Y24719171D01*
X24809142Y24722143D01*
X24668987Y24724739D01*
X24510010Y24726831D01*
X24340335Y24728292D01*
X24168091Y24728995D01*
X23547931Y24730017D01*
X23553575Y25565544D01*
X23559219Y26401070D01*
X25391986Y26401070D01*
X25397629Y25566903D01*
G37*
G36*
X20281799Y24719236D02*
G01*
X19386978Y24717914D01*
X19177394Y24718042D01*
X18977978Y24719141D01*
X18806838Y24721174D01*
X18666942Y24724078D01*
X18561260Y24727789D01*
X18492759Y24732246D01*
X18464408Y24737385D01*
X18463380Y24738286D01*
X18456248Y24754281D01*
X18450602Y24788699D01*
X18446350Y24845067D01*
X18443402Y24926913D01*
X18441668Y25037764D01*
X18441057Y25181148D01*
X18441480Y25360593D01*
X18442846Y25579625D01*
X18449032Y26401070D01*
X19371057Y26406692D01*
X20293081Y26412314D01*
X20281799Y24719236D01*
G37*
G36*
X22723817Y24614376D02*
G01*
X22729333Y22827682D01*
X22950218Y22836681D01*
X23012204Y22840097D01*
X23148092Y22857288D01*
X23255379Y22889347D01*
X23343720Y22939865D01*
X23422771Y23012432D01*
X23457209Y23054775D01*
X23489806Y23111312D01*
X23513936Y23179925D01*
X23530731Y23266804D01*
X23541323Y23378141D01*
X23546848Y23520128D01*
X23548438Y23698956D01*
X23548438Y24104720D01*
X25409453Y24104720D01*
X25395699Y23817941D01*
X25386672Y23672781D01*
X25342593Y23303754D01*
X25268686Y22963653D01*
X25163744Y22649764D01*
X25026556Y22359371D01*
X24855916Y22089760D01*
X24650614Y21838215D01*
X24409443Y21602021D01*
X24249976Y21469671D01*
X24042683Y21326233D01*
X23827902Y21212393D01*
X23594349Y21122381D01*
X23330743Y21050429D01*
X23063293Y20989016D01*
X21985195Y20989016D01*
X21814200Y20989045D01*
X21596167Y20989268D01*
X21413866Y20989852D01*
X21262901Y20990961D01*
X21138871Y20992755D01*
X21037380Y20995398D01*
X20954028Y20999053D01*
X20884416Y21003883D01*
X20824147Y21010049D01*
X20768822Y21017715D01*
X20714042Y21027044D01*
X20655409Y21038198D01*
X20565952Y21056058D01*
X20423631Y21087159D01*
X20306446Y21117793D01*
X20202897Y21151490D01*
X20101486Y21191777D01*
X19990713Y21242184D01*
X19905716Y21284407D01*
X19755085Y21371029D01*
X19612654Y21471191D01*
X19468030Y21592543D01*
X19310822Y21742737D01*
X19094709Y21977111D01*
X18903346Y22229205D01*
X18749342Y22489445D01*
X18630444Y22763068D01*
X18544401Y23055311D01*
X18488959Y23371411D01*
X18461866Y23716605D01*
X18458873Y23801507D01*
X18455708Y23911528D01*
X18453984Y24001064D01*
X18453833Y24062582D01*
X18455386Y24088549D01*
X18462943Y24090506D01*
X18507589Y24093806D01*
X18588361Y24096814D01*
X18700785Y24099451D01*
X18840384Y24101638D01*
X19002682Y24103298D01*
X19183202Y24104352D01*
X19377469Y24104720D01*
X20292580Y24104720D01*
X20292580Y23730329D01*
X20293161Y23640537D01*
X20295936Y23511577D01*
X20300606Y23395776D01*
X20306735Y23303120D01*
X20313885Y23243597D01*
X20314256Y23241660D01*
X20361498Y23105650D01*
X20444995Y22991852D01*
X20562105Y22903880D01*
X20605634Y22881001D01*
X20655316Y22861284D01*
X20710078Y22850066D01*
X20782593Y22844986D01*
X20885534Y22843688D01*
X21101154Y22843345D01*
X21111935Y24622208D01*
X21122716Y26401070D01*
X22718302Y26401070D01*
X22723817Y24614376D01*
G37*
G36*
X21458481Y29928353D02*
G01*
X21804667Y29928197D01*
X22188000Y29927935D01*
X22610471Y29927588D01*
X23074074Y29927179D01*
X23210781Y29927045D01*
X23644075Y29926463D01*
X24058315Y29925667D01*
X24451648Y29924667D01*
X24822224Y29923474D01*
X25168190Y29922102D01*
X25487696Y29920560D01*
X25778889Y29918862D01*
X26039919Y29917017D01*
X26268934Y29915038D01*
X26464082Y29912937D01*
X26623513Y29910724D01*
X26745374Y29908412D01*
X26827814Y29906011D01*
X26868981Y29903534D01*
X26923629Y29896564D01*
X27032311Y29881658D01*
X27116596Y29867536D01*
X27189590Y29851471D01*
X27264398Y29830737D01*
X27354125Y29802608D01*
X27517614Y29740558D01*
X27760906Y29613809D01*
X27996048Y29450458D01*
X28217643Y29254419D01*
X28420292Y29029607D01*
X28453023Y28988141D01*
X28596703Y28781143D01*
X28710583Y28566932D01*
X28799915Y28334321D01*
X28869955Y28072123D01*
X28924847Y27824160D01*
X28933310Y25259128D01*
X28933400Y25232035D01*
X28934675Y24835700D01*
X28935707Y24479942D01*
X28936428Y24162367D01*
X28936771Y23880582D01*
X28936668Y23632197D01*
X28936054Y23414816D01*
X28934860Y23226049D01*
X28933020Y23063502D01*
X28930466Y22924783D01*
X28927132Y22807499D01*
X28922949Y22709258D01*
X28917852Y22627666D01*
X28911773Y22560332D01*
X28904644Y22504862D01*
X28896400Y22458864D01*
X28886972Y22419945D01*
X28876293Y22385713D01*
X28864297Y22353775D01*
X28850916Y22321738D01*
X28827835Y22272055D01*
X28726384Y22112937D01*
X28597582Y21979753D01*
X28447248Y21875255D01*
X28281200Y21802198D01*
X28105255Y21763336D01*
X27925233Y21761422D01*
X27746951Y21799211D01*
X27619603Y21848736D01*
X27452012Y21944219D01*
X27316028Y22066212D01*
X27207715Y22218537D01*
X27123135Y22405018D01*
X27073820Y22541477D01*
X27052258Y27285111D01*
X27003780Y27404853D01*
X26949958Y27516894D01*
X26832288Y27687021D01*
X26683661Y27835045D01*
X26510481Y27955016D01*
X26319151Y28040983D01*
X26290221Y28050618D01*
X26226987Y28069756D01*
X26167550Y28083242D01*
X26102528Y28092136D01*
X26022535Y28097498D01*
X25918187Y28100386D01*
X25780102Y28101862D01*
X25413548Y28104466D01*
X25402767Y27565416D01*
X25391986Y27026367D01*
X23559219Y27026367D01*
X23548438Y27394618D01*
X23548150Y27404441D01*
X23544036Y27536270D01*
X23539767Y27633278D01*
X23534091Y27703253D01*
X23525757Y27753983D01*
X23513515Y27793254D01*
X23496113Y27828856D01*
X23472300Y27868574D01*
X23416070Y27945533D01*
X23308714Y28038331D01*
X23179184Y28094412D01*
X23161323Y28097378D01*
X23095795Y28102124D01*
X22988877Y28105938D01*
X22841686Y28108806D01*
X22655341Y28110713D01*
X22430959Y28111647D01*
X22169656Y28111593D01*
X21872551Y28110537D01*
X21849962Y28110426D01*
X21584232Y28109148D01*
X21357851Y28107876D01*
X21167321Y28106234D01*
X21009143Y28103845D01*
X20879820Y28100333D01*
X20775853Y28095322D01*
X20693743Y28088435D01*
X20629991Y28079296D01*
X20581100Y28067528D01*
X20543572Y28052755D01*
X20513907Y28034600D01*
X20488607Y28012687D01*
X20464174Y27986639D01*
X20437109Y27956081D01*
X20401664Y27914429D01*
X20365700Y27862216D01*
X20339622Y27805283D01*
X20321571Y27735949D01*
X20309690Y27646536D01*
X20302123Y27529362D01*
X20297011Y27376749D01*
X20287604Y27015586D01*
X18462677Y27015586D01*
X18452802Y27074882D01*
X18451799Y27085878D01*
X18449915Y27138505D01*
X18448362Y27227099D01*
X18447173Y27346809D01*
X18446378Y27492783D01*
X18446008Y27660171D01*
X18446093Y27844120D01*
X18446665Y28039780D01*
X18450405Y28945382D01*
X18508996Y29112887D01*
X18558551Y29241188D01*
X18614057Y29349984D01*
X18683798Y29450833D01*
X18777921Y29560628D01*
X18805218Y29589126D01*
X18949593Y29709579D01*
X19119382Y29811372D01*
X19300730Y29885887D01*
X19307724Y29888100D01*
X19325991Y29893588D01*
X19345540Y29898578D01*
X19368363Y29903090D01*
X19396452Y29907147D01*
X19431800Y29910771D01*
X19476400Y29913983D01*
X19532244Y29916805D01*
X19601324Y29919259D01*
X19685633Y29921367D01*
X19787164Y29923150D01*
X19907908Y29924631D01*
X20049859Y29925831D01*
X20215009Y29926772D01*
X20405351Y29927475D01*
X20622876Y29927963D01*
X20869578Y29928258D01*
X21147449Y29928380D01*
X21458481Y29928353D01*
G37*
D11*
X1667462Y-1320D02*
G75*
G03*
X1667462Y-1320I-1666666J0D01*
G01*
X-2499204Y-1320D02*
X2500796Y-1320D01*
X796Y2498680D02*
X796Y-2501320D01*
X0Y0D02*
X0Y30480000D01*
X29570000Y30480000D02*
X29570000Y0D01*
X0Y30480000D02*
X29570000Y30480000D01*
X29570000Y0D02*
X0Y0D01*
M02*
