G04 #@! TF.GenerationSoftware,KiCad,Pcbnew,(6.99.0-1917-g23fb4c7433)*
G04 #@! TF.CreationDate,2022-06-21T14:10:18+10:00*
G04 #@! TF.ProjectId,JtagArm20Adapter,4a746167-4172-46d3-9230-416461707465,rev?*
G04 #@! TF.SameCoordinates,PX8404630PY68290a0*
G04 #@! TF.FileFunction,Legend,Top*
G04 #@! TF.FilePolarity,Positive*
%FSLAX46Y46*%
G04 Gerber Fmt 4.6, Leading zero omitted, Abs format (unit mm)*
G04 Created by KiCad (PCBNEW (6.99.0-1917-g23fb4c7433)) date 2022-06-21 14:10:18*
%MOMM*%
%LPD*%
G01*
G04 APERTURE LIST*
%ADD10C,0.160000*%
%ADD11C,0.150000*%
%ADD12C,0.300000*%
%ADD13C,0.120000*%
G04 #@! TA.AperFunction,Profile*
%ADD14C,0.050000*%
G04 #@! TD*
G04 APERTURE END LIST*
D10*
X9165238Y19102620D02*
X9498571Y18102620D01*
X9498571Y18102620D02*
X9831904Y19102620D01*
X10022381Y19102620D02*
X10593809Y19102620D01*
X10308095Y18102620D02*
X10308095Y19102620D01*
X10927143Y18102620D02*
X10927143Y18769286D01*
X10927143Y18578810D02*
X10974762Y18674048D01*
X10974762Y18674048D02*
X11022381Y18721667D01*
X11022381Y18721667D02*
X11117619Y18769286D01*
X11117619Y18769286D02*
X11212857Y18769286D01*
X11927143Y18150239D02*
X11831905Y18102620D01*
X11831905Y18102620D02*
X11641429Y18102620D01*
X11641429Y18102620D02*
X11546191Y18150239D01*
X11546191Y18150239D02*
X11498572Y18245477D01*
X11498572Y18245477D02*
X11498572Y18626429D01*
X11498572Y18626429D02*
X11546191Y18721667D01*
X11546191Y18721667D02*
X11641429Y18769286D01*
X11641429Y18769286D02*
X11831905Y18769286D01*
X11831905Y18769286D02*
X11927143Y18721667D01*
X11927143Y18721667D02*
X11974762Y18626429D01*
X11974762Y18626429D02*
X11974762Y18531191D01*
X11974762Y18531191D02*
X11498572Y18435953D01*
X12260477Y18769286D02*
X12641429Y18769286D01*
X12403334Y18102620D02*
X12403334Y18959762D01*
X12403334Y18959762D02*
X12450953Y19055000D01*
X12450953Y19055000D02*
X12546191Y19102620D01*
X12546191Y19102620D02*
X12641429Y19102620D01*
X1077142Y30157726D02*
X672380Y30157726D01*
X672380Y30157726D02*
X631904Y29752964D01*
X631904Y29752964D02*
X672380Y29793440D01*
X672380Y29793440D02*
X753333Y29833916D01*
X753333Y29833916D02*
X955714Y29833916D01*
X955714Y29833916D02*
X1036666Y29793440D01*
X1036666Y29793440D02*
X1077142Y29752964D01*
X1077142Y29752964D02*
X1117619Y29672011D01*
X1117619Y29672011D02*
X1117619Y29469630D01*
X1117619Y29469630D02*
X1077142Y29388678D01*
X1077142Y29388678D02*
X1036666Y29348202D01*
X1036666Y29348202D02*
X955714Y29307726D01*
X955714Y29307726D02*
X753333Y29307726D01*
X753333Y29307726D02*
X672380Y29348202D01*
X672380Y29348202D02*
X631904Y29388678D01*
X1481904Y29388678D02*
X1522381Y29348202D01*
X1522381Y29348202D02*
X1481904Y29307726D01*
X1481904Y29307726D02*
X1441428Y29348202D01*
X1441428Y29348202D02*
X1481904Y29388678D01*
X1481904Y29388678D02*
X1481904Y29307726D01*
X2291428Y30157726D02*
X1886666Y30157726D01*
X1886666Y30157726D02*
X1846190Y29752964D01*
X1846190Y29752964D02*
X1886666Y29793440D01*
X1886666Y29793440D02*
X1967619Y29833916D01*
X1967619Y29833916D02*
X2170000Y29833916D01*
X2170000Y29833916D02*
X2250952Y29793440D01*
X2250952Y29793440D02*
X2291428Y29752964D01*
X2291428Y29752964D02*
X2331905Y29672011D01*
X2331905Y29672011D02*
X2331905Y29469630D01*
X2331905Y29469630D02*
X2291428Y29388678D01*
X2291428Y29388678D02*
X2250952Y29348202D01*
X2250952Y29348202D02*
X2170000Y29307726D01*
X2170000Y29307726D02*
X1967619Y29307726D01*
X1967619Y29307726D02*
X1886666Y29348202D01*
X1886666Y29348202D02*
X1846190Y29388678D01*
X2574762Y30157726D02*
X2858095Y29307726D01*
X2858095Y29307726D02*
X3141429Y30157726D01*
X3934761Y29307726D02*
X3934761Y30157726D01*
X3934761Y30157726D02*
X4218095Y29550583D01*
X4218095Y29550583D02*
X4501428Y30157726D01*
X4501428Y30157726D02*
X4501428Y29307726D01*
X4865714Y29550583D02*
X5270476Y29550583D01*
X4784762Y29307726D02*
X5068095Y30157726D01*
X5068095Y30157726D02*
X5351429Y29307726D01*
X5553809Y30157726D02*
X6120476Y29307726D01*
X6120476Y30157726D02*
X5553809Y29307726D01*
D11*
X28337380Y22305715D02*
X28337380Y21734287D01*
X28337380Y22020001D02*
X27337380Y22020001D01*
X27337380Y22020001D02*
X27480238Y21924763D01*
X27480238Y21924763D02*
X27575476Y21829525D01*
X27575476Y21829525D02*
X27623095Y21734287D01*
D10*
X23760476Y11900239D02*
X23903333Y11852620D01*
X23903333Y11852620D02*
X24141428Y11852620D01*
X24141428Y11852620D02*
X24236666Y11900239D01*
X24236666Y11900239D02*
X24284285Y11947858D01*
X24284285Y11947858D02*
X24331904Y12043096D01*
X24331904Y12043096D02*
X24331904Y12138334D01*
X24331904Y12138334D02*
X24284285Y12233572D01*
X24284285Y12233572D02*
X24236666Y12281191D01*
X24236666Y12281191D02*
X24141428Y12328810D01*
X24141428Y12328810D02*
X23950952Y12376429D01*
X23950952Y12376429D02*
X23855714Y12424048D01*
X23855714Y12424048D02*
X23808095Y12471667D01*
X23808095Y12471667D02*
X23760476Y12566905D01*
X23760476Y12566905D02*
X23760476Y12662143D01*
X23760476Y12662143D02*
X23808095Y12757381D01*
X23808095Y12757381D02*
X23855714Y12805000D01*
X23855714Y12805000D02*
X23950952Y12852620D01*
X23950952Y12852620D02*
X24189047Y12852620D01*
X24189047Y12852620D02*
X24331904Y12805000D01*
X24665238Y12852620D02*
X24903333Y11852620D01*
X24903333Y11852620D02*
X25093809Y12566905D01*
X25093809Y12566905D02*
X25284285Y11852620D01*
X25284285Y11852620D02*
X25522381Y12852620D01*
X25903333Y11852620D02*
X25903333Y12852620D01*
X25903333Y12852620D02*
X26141428Y12852620D01*
X26141428Y12852620D02*
X26284285Y12805000D01*
X26284285Y12805000D02*
X26379523Y12709762D01*
X26379523Y12709762D02*
X26427142Y12614524D01*
X26427142Y12614524D02*
X26474761Y12424048D01*
X26474761Y12424048D02*
X26474761Y12281191D01*
X26474761Y12281191D02*
X26427142Y12090715D01*
X26427142Y12090715D02*
X26379523Y11995477D01*
X26379523Y11995477D02*
X26284285Y11900239D01*
X26284285Y11900239D02*
X26141428Y11852620D01*
X26141428Y11852620D02*
X25903333Y11852620D01*
X16831904Y15852620D02*
X16260476Y15852620D01*
X16546190Y15852620D02*
X16546190Y16852620D01*
X16546190Y16852620D02*
X16450952Y16709762D01*
X16450952Y16709762D02*
X16355714Y16614524D01*
X16355714Y16614524D02*
X16260476Y16566905D01*
X17117619Y16852620D02*
X17450952Y15852620D01*
X17450952Y15852620D02*
X17784285Y16852620D01*
X18260476Y16424048D02*
X18165238Y16471667D01*
X18165238Y16471667D02*
X18117619Y16519286D01*
X18117619Y16519286D02*
X18070000Y16614524D01*
X18070000Y16614524D02*
X18070000Y16662143D01*
X18070000Y16662143D02*
X18117619Y16757381D01*
X18117619Y16757381D02*
X18165238Y16805000D01*
X18165238Y16805000D02*
X18260476Y16852620D01*
X18260476Y16852620D02*
X18450952Y16852620D01*
X18450952Y16852620D02*
X18546190Y16805000D01*
X18546190Y16805000D02*
X18593809Y16757381D01*
X18593809Y16757381D02*
X18641428Y16662143D01*
X18641428Y16662143D02*
X18641428Y16614524D01*
X18641428Y16614524D02*
X18593809Y16519286D01*
X18593809Y16519286D02*
X18546190Y16471667D01*
X18546190Y16471667D02*
X18450952Y16424048D01*
X18450952Y16424048D02*
X18260476Y16424048D01*
X18260476Y16424048D02*
X18165238Y16376429D01*
X18165238Y16376429D02*
X18117619Y16328810D01*
X18117619Y16328810D02*
X18070000Y16233572D01*
X18070000Y16233572D02*
X18070000Y16043096D01*
X18070000Y16043096D02*
X18117619Y15947858D01*
X18117619Y15947858D02*
X18165238Y15900239D01*
X18165238Y15900239D02*
X18260476Y15852620D01*
X18260476Y15852620D02*
X18450952Y15852620D01*
X18450952Y15852620D02*
X18546190Y15900239D01*
X18546190Y15900239D02*
X18593809Y15947858D01*
X18593809Y15947858D02*
X18641428Y16043096D01*
X18641428Y16043096D02*
X18641428Y16233572D01*
X18641428Y16233572D02*
X18593809Y16328810D01*
X18593809Y16328810D02*
X18546190Y16376429D01*
X18546190Y16376429D02*
X18450952Y16424048D01*
X15539761Y4180477D02*
X15587380Y4323334D01*
X15587380Y4323334D02*
X15587380Y4561429D01*
X15587380Y4561429D02*
X15539761Y4656667D01*
X15539761Y4656667D02*
X15492142Y4704286D01*
X15492142Y4704286D02*
X15396904Y4751905D01*
X15396904Y4751905D02*
X15301666Y4751905D01*
X15301666Y4751905D02*
X15206428Y4704286D01*
X15206428Y4704286D02*
X15158809Y4656667D01*
X15158809Y4656667D02*
X15111190Y4561429D01*
X15111190Y4561429D02*
X15063571Y4370953D01*
X15063571Y4370953D02*
X15015952Y4275715D01*
X15015952Y4275715D02*
X14968333Y4228096D01*
X14968333Y4228096D02*
X14873095Y4180477D01*
X14873095Y4180477D02*
X14777857Y4180477D01*
X14777857Y4180477D02*
X14682619Y4228096D01*
X14682619Y4228096D02*
X14635000Y4275715D01*
X14635000Y4275715D02*
X14587380Y4370953D01*
X14587380Y4370953D02*
X14587380Y4609048D01*
X14587380Y4609048D02*
X14635000Y4751905D01*
X14587380Y5085239D02*
X15587380Y5323334D01*
X15587380Y5323334D02*
X14873095Y5513810D01*
X14873095Y5513810D02*
X15587380Y5704286D01*
X15587380Y5704286D02*
X14587380Y5942381D01*
X15587380Y6323334D02*
X14587380Y6323334D01*
X14587380Y6323334D02*
X14587380Y6561429D01*
X14587380Y6561429D02*
X14635000Y6704286D01*
X14635000Y6704286D02*
X14730238Y6799524D01*
X14730238Y6799524D02*
X14825476Y6847143D01*
X14825476Y6847143D02*
X15015952Y6894762D01*
X15015952Y6894762D02*
X15158809Y6894762D01*
X15158809Y6894762D02*
X15349285Y6847143D01*
X15349285Y6847143D02*
X15444523Y6799524D01*
X15444523Y6799524D02*
X15539761Y6704286D01*
X15539761Y6704286D02*
X15587380Y6561429D01*
X15587380Y6561429D02*
X15587380Y6323334D01*
X15587380Y7323334D02*
X14587380Y7323334D01*
X14587380Y7990000D02*
X14587380Y8180476D01*
X14587380Y8180476D02*
X14635000Y8275714D01*
X14635000Y8275714D02*
X14730238Y8370952D01*
X14730238Y8370952D02*
X14920714Y8418571D01*
X14920714Y8418571D02*
X15254047Y8418571D01*
X15254047Y8418571D02*
X15444523Y8370952D01*
X15444523Y8370952D02*
X15539761Y8275714D01*
X15539761Y8275714D02*
X15587380Y8180476D01*
X15587380Y8180476D02*
X15587380Y7990000D01*
X15587380Y7990000D02*
X15539761Y7894762D01*
X15539761Y7894762D02*
X15444523Y7799524D01*
X15444523Y7799524D02*
X15254047Y7751905D01*
X15254047Y7751905D02*
X14920714Y7751905D01*
X14920714Y7751905D02*
X14730238Y7799524D01*
X14730238Y7799524D02*
X14635000Y7894762D01*
X14635000Y7894762D02*
X14587380Y7990000D01*
X10549761Y4160477D02*
X10597380Y4303334D01*
X10597380Y4303334D02*
X10597380Y4541429D01*
X10597380Y4541429D02*
X10549761Y4636667D01*
X10549761Y4636667D02*
X10502142Y4684286D01*
X10502142Y4684286D02*
X10406904Y4731905D01*
X10406904Y4731905D02*
X10311666Y4731905D01*
X10311666Y4731905D02*
X10216428Y4684286D01*
X10216428Y4684286D02*
X10168809Y4636667D01*
X10168809Y4636667D02*
X10121190Y4541429D01*
X10121190Y4541429D02*
X10073571Y4350953D01*
X10073571Y4350953D02*
X10025952Y4255715D01*
X10025952Y4255715D02*
X9978333Y4208096D01*
X9978333Y4208096D02*
X9883095Y4160477D01*
X9883095Y4160477D02*
X9787857Y4160477D01*
X9787857Y4160477D02*
X9692619Y4208096D01*
X9692619Y4208096D02*
X9645000Y4255715D01*
X9645000Y4255715D02*
X9597380Y4350953D01*
X9597380Y4350953D02*
X9597380Y4589048D01*
X9597380Y4589048D02*
X9645000Y4731905D01*
X9597380Y5065239D02*
X10597380Y5303334D01*
X10597380Y5303334D02*
X9883095Y5493810D01*
X9883095Y5493810D02*
X10597380Y5684286D01*
X10597380Y5684286D02*
X9597380Y5922381D01*
X10502142Y6874762D02*
X10549761Y6827143D01*
X10549761Y6827143D02*
X10597380Y6684286D01*
X10597380Y6684286D02*
X10597380Y6589048D01*
X10597380Y6589048D02*
X10549761Y6446191D01*
X10549761Y6446191D02*
X10454523Y6350953D01*
X10454523Y6350953D02*
X10359285Y6303334D01*
X10359285Y6303334D02*
X10168809Y6255715D01*
X10168809Y6255715D02*
X10025952Y6255715D01*
X10025952Y6255715D02*
X9835476Y6303334D01*
X9835476Y6303334D02*
X9740238Y6350953D01*
X9740238Y6350953D02*
X9645000Y6446191D01*
X9645000Y6446191D02*
X9597380Y6589048D01*
X9597380Y6589048D02*
X9597380Y6684286D01*
X9597380Y6684286D02*
X9645000Y6827143D01*
X9645000Y6827143D02*
X9692619Y6874762D01*
X10597380Y7779524D02*
X10597380Y7303334D01*
X10597380Y7303334D02*
X9597380Y7303334D01*
X10597380Y8112858D02*
X9597380Y8112858D01*
X10597380Y8684286D02*
X10025952Y8255715D01*
X9597380Y8684286D02*
X10168809Y8112858D01*
X16308095Y10602620D02*
X16308095Y11602620D01*
X16308095Y11602620D02*
X16689047Y11602620D01*
X16689047Y11602620D02*
X16784285Y11555000D01*
X16784285Y11555000D02*
X16831904Y11507381D01*
X16831904Y11507381D02*
X16879523Y11412143D01*
X16879523Y11412143D02*
X16879523Y11269286D01*
X16879523Y11269286D02*
X16831904Y11174048D01*
X16831904Y11174048D02*
X16784285Y11126429D01*
X16784285Y11126429D02*
X16689047Y11078810D01*
X16689047Y11078810D02*
X16308095Y11078810D01*
X17260476Y10888334D02*
X17736666Y10888334D01*
X17165238Y10602620D02*
X17498571Y11602620D01*
X17498571Y11602620D02*
X17831904Y10602620D01*
X18117619Y10650239D02*
X18260476Y10602620D01*
X18260476Y10602620D02*
X18498571Y10602620D01*
X18498571Y10602620D02*
X18593809Y10650239D01*
X18593809Y10650239D02*
X18641428Y10697858D01*
X18641428Y10697858D02*
X18689047Y10793096D01*
X18689047Y10793096D02*
X18689047Y10888334D01*
X18689047Y10888334D02*
X18641428Y10983572D01*
X18641428Y10983572D02*
X18593809Y11031191D01*
X18593809Y11031191D02*
X18498571Y11078810D01*
X18498571Y11078810D02*
X18308095Y11126429D01*
X18308095Y11126429D02*
X18212857Y11174048D01*
X18212857Y11174048D02*
X18165238Y11221667D01*
X18165238Y11221667D02*
X18117619Y11316905D01*
X18117619Y11316905D02*
X18117619Y11412143D01*
X18117619Y11412143D02*
X18165238Y11507381D01*
X18165238Y11507381D02*
X18212857Y11555000D01*
X18212857Y11555000D02*
X18308095Y11602620D01*
X18308095Y11602620D02*
X18546190Y11602620D01*
X18546190Y11602620D02*
X18689047Y11555000D01*
X19070000Y10650239D02*
X19212857Y10602620D01*
X19212857Y10602620D02*
X19450952Y10602620D01*
X19450952Y10602620D02*
X19546190Y10650239D01*
X19546190Y10650239D02*
X19593809Y10697858D01*
X19593809Y10697858D02*
X19641428Y10793096D01*
X19641428Y10793096D02*
X19641428Y10888334D01*
X19641428Y10888334D02*
X19593809Y10983572D01*
X19593809Y10983572D02*
X19546190Y11031191D01*
X19546190Y11031191D02*
X19450952Y11078810D01*
X19450952Y11078810D02*
X19260476Y11126429D01*
X19260476Y11126429D02*
X19165238Y11174048D01*
X19165238Y11174048D02*
X19117619Y11221667D01*
X19117619Y11221667D02*
X19070000Y11316905D01*
X19070000Y11316905D02*
X19070000Y11412143D01*
X19070000Y11412143D02*
X19117619Y11507381D01*
X19117619Y11507381D02*
X19165238Y11555000D01*
X19165238Y11555000D02*
X19260476Y11602620D01*
X19260476Y11602620D02*
X19498571Y11602620D01*
X19498571Y11602620D02*
X19641428Y11555000D01*
X25779523Y21839762D02*
X25636666Y21887381D01*
X25636666Y21887381D02*
X25398571Y21887381D01*
X25398571Y21887381D02*
X25303333Y21839762D01*
X25303333Y21839762D02*
X25255714Y21792143D01*
X25255714Y21792143D02*
X25208095Y21696905D01*
X25208095Y21696905D02*
X25208095Y21601667D01*
X25208095Y21601667D02*
X25255714Y21506429D01*
X25255714Y21506429D02*
X25303333Y21458810D01*
X25303333Y21458810D02*
X25398571Y21411191D01*
X25398571Y21411191D02*
X25589047Y21363572D01*
X25589047Y21363572D02*
X25684285Y21315953D01*
X25684285Y21315953D02*
X25731904Y21268334D01*
X25731904Y21268334D02*
X25779523Y21173096D01*
X25779523Y21173096D02*
X25779523Y21077858D01*
X25779523Y21077858D02*
X25731904Y20982620D01*
X25731904Y20982620D02*
X25684285Y20935000D01*
X25684285Y20935000D02*
X25589047Y20887381D01*
X25589047Y20887381D02*
X25350952Y20887381D01*
X25350952Y20887381D02*
X25208095Y20935000D01*
X24874761Y20887381D02*
X24636666Y21887381D01*
X24636666Y21887381D02*
X24446190Y21173096D01*
X24446190Y21173096D02*
X24255714Y21887381D01*
X24255714Y21887381D02*
X24017619Y20887381D01*
X23636666Y21887381D02*
X23636666Y20887381D01*
X23636666Y20887381D02*
X23398571Y20887381D01*
X23398571Y20887381D02*
X23255714Y20935000D01*
X23255714Y20935000D02*
X23160476Y21030239D01*
X23160476Y21030239D02*
X23112857Y21125477D01*
X23112857Y21125477D02*
X23065238Y21315953D01*
X23065238Y21315953D02*
X23065238Y21458810D01*
X23065238Y21458810D02*
X23112857Y21649286D01*
X23112857Y21649286D02*
X23160476Y21744524D01*
X23160476Y21744524D02*
X23255714Y21839762D01*
X23255714Y21839762D02*
X23398571Y21887381D01*
X23398571Y21887381D02*
X23636666Y21887381D01*
D11*
X28037380Y4805715D02*
X28037380Y4234287D01*
X28037380Y4520001D02*
X27037380Y4520001D01*
X27037380Y4520001D02*
X27180238Y4424763D01*
X27180238Y4424763D02*
X27275476Y4329525D01*
X27275476Y4329525D02*
X27323095Y4234287D01*
D10*
X20689761Y4160477D02*
X20737380Y4303334D01*
X20737380Y4303334D02*
X20737380Y4541429D01*
X20737380Y4541429D02*
X20689761Y4636667D01*
X20689761Y4636667D02*
X20642142Y4684286D01*
X20642142Y4684286D02*
X20546904Y4731905D01*
X20546904Y4731905D02*
X20451666Y4731905D01*
X20451666Y4731905D02*
X20356428Y4684286D01*
X20356428Y4684286D02*
X20308809Y4636667D01*
X20308809Y4636667D02*
X20261190Y4541429D01*
X20261190Y4541429D02*
X20213571Y4350953D01*
X20213571Y4350953D02*
X20165952Y4255715D01*
X20165952Y4255715D02*
X20118333Y4208096D01*
X20118333Y4208096D02*
X20023095Y4160477D01*
X20023095Y4160477D02*
X19927857Y4160477D01*
X19927857Y4160477D02*
X19832619Y4208096D01*
X19832619Y4208096D02*
X19785000Y4255715D01*
X19785000Y4255715D02*
X19737380Y4350953D01*
X19737380Y4350953D02*
X19737380Y4589048D01*
X19737380Y4589048D02*
X19785000Y4731905D01*
X19737380Y5065239D02*
X20737380Y5303334D01*
X20737380Y5303334D02*
X20023095Y5493810D01*
X20023095Y5493810D02*
X20737380Y5684286D01*
X20737380Y5684286D02*
X19737380Y5922381D01*
X19737380Y6493810D02*
X19737380Y6684286D01*
X19737380Y6684286D02*
X19785000Y6779524D01*
X19785000Y6779524D02*
X19880238Y6874762D01*
X19880238Y6874762D02*
X20070714Y6922381D01*
X20070714Y6922381D02*
X20404047Y6922381D01*
X20404047Y6922381D02*
X20594523Y6874762D01*
X20594523Y6874762D02*
X20689761Y6779524D01*
X20689761Y6779524D02*
X20737380Y6684286D01*
X20737380Y6684286D02*
X20737380Y6493810D01*
X20737380Y6493810D02*
X20689761Y6398572D01*
X20689761Y6398572D02*
X20594523Y6303334D01*
X20594523Y6303334D02*
X20404047Y6255715D01*
X20404047Y6255715D02*
X20070714Y6255715D01*
X20070714Y6255715D02*
X19880238Y6303334D01*
X19880238Y6303334D02*
X19785000Y6398572D01*
X19785000Y6398572D02*
X19737380Y6493810D01*
X16212857Y14102620D02*
X16831904Y14102620D01*
X16831904Y14102620D02*
X16498571Y13721667D01*
X16498571Y13721667D02*
X16641428Y13721667D01*
X16641428Y13721667D02*
X16736666Y13674048D01*
X16736666Y13674048D02*
X16784285Y13626429D01*
X16784285Y13626429D02*
X16831904Y13531191D01*
X16831904Y13531191D02*
X16831904Y13293096D01*
X16831904Y13293096D02*
X16784285Y13197858D01*
X16784285Y13197858D02*
X16736666Y13150239D01*
X16736666Y13150239D02*
X16641428Y13102620D01*
X16641428Y13102620D02*
X16355714Y13102620D01*
X16355714Y13102620D02*
X16260476Y13150239D01*
X16260476Y13150239D02*
X16212857Y13197858D01*
X17117619Y14102620D02*
X17450952Y13102620D01*
X17450952Y13102620D02*
X17784285Y14102620D01*
X18022381Y14102620D02*
X18641428Y14102620D01*
X18641428Y14102620D02*
X18308095Y13721667D01*
X18308095Y13721667D02*
X18450952Y13721667D01*
X18450952Y13721667D02*
X18546190Y13674048D01*
X18546190Y13674048D02*
X18593809Y13626429D01*
X18593809Y13626429D02*
X18641428Y13531191D01*
X18641428Y13531191D02*
X18641428Y13293096D01*
X18641428Y13293096D02*
X18593809Y13197858D01*
X18593809Y13197858D02*
X18546190Y13150239D01*
X18546190Y13150239D02*
X18450952Y13102620D01*
X18450952Y13102620D02*
X18165238Y13102620D01*
X18165238Y13102620D02*
X18070000Y13150239D01*
X18070000Y13150239D02*
X18022381Y13197858D01*
X12215000Y4751905D02*
X12167380Y4656667D01*
X12167380Y4656667D02*
X12167380Y4513810D01*
X12167380Y4513810D02*
X12215000Y4370953D01*
X12215000Y4370953D02*
X12310238Y4275715D01*
X12310238Y4275715D02*
X12405476Y4228096D01*
X12405476Y4228096D02*
X12595952Y4180477D01*
X12595952Y4180477D02*
X12738809Y4180477D01*
X12738809Y4180477D02*
X12929285Y4228096D01*
X12929285Y4228096D02*
X13024523Y4275715D01*
X13024523Y4275715D02*
X13119761Y4370953D01*
X13119761Y4370953D02*
X13167380Y4513810D01*
X13167380Y4513810D02*
X13167380Y4609048D01*
X13167380Y4609048D02*
X13119761Y4751905D01*
X13119761Y4751905D02*
X13072142Y4799524D01*
X13072142Y4799524D02*
X12738809Y4799524D01*
X12738809Y4799524D02*
X12738809Y4609048D01*
X13167380Y5228096D02*
X12167380Y5228096D01*
X12167380Y5228096D02*
X13167380Y5799524D01*
X13167380Y5799524D02*
X12167380Y5799524D01*
X13167380Y6275715D02*
X12167380Y6275715D01*
X12167380Y6275715D02*
X12167380Y6513810D01*
X12167380Y6513810D02*
X12215000Y6656667D01*
X12215000Y6656667D02*
X12310238Y6751905D01*
X12310238Y6751905D02*
X12405476Y6799524D01*
X12405476Y6799524D02*
X12595952Y6847143D01*
X12595952Y6847143D02*
X12738809Y6847143D01*
X12738809Y6847143D02*
X12929285Y6799524D01*
X12929285Y6799524D02*
X13024523Y6751905D01*
X13024523Y6751905D02*
X13119761Y6656667D01*
X13119761Y6656667D02*
X13167380Y6513810D01*
X13167380Y6513810D02*
X13167380Y6275715D01*
X18207380Y4779524D02*
X17731190Y4446191D01*
X18207380Y4208096D02*
X17207380Y4208096D01*
X17207380Y4208096D02*
X17207380Y4589048D01*
X17207380Y4589048D02*
X17255000Y4684286D01*
X17255000Y4684286D02*
X17302619Y4731905D01*
X17302619Y4731905D02*
X17397857Y4779524D01*
X17397857Y4779524D02*
X17540714Y4779524D01*
X17540714Y4779524D02*
X17635952Y4731905D01*
X17635952Y4731905D02*
X17683571Y4684286D01*
X17683571Y4684286D02*
X17731190Y4589048D01*
X17731190Y4589048D02*
X17731190Y4208096D01*
X18159761Y5160477D02*
X18207380Y5303334D01*
X18207380Y5303334D02*
X18207380Y5541429D01*
X18207380Y5541429D02*
X18159761Y5636667D01*
X18159761Y5636667D02*
X18112142Y5684286D01*
X18112142Y5684286D02*
X18016904Y5731905D01*
X18016904Y5731905D02*
X17921666Y5731905D01*
X17921666Y5731905D02*
X17826428Y5684286D01*
X17826428Y5684286D02*
X17778809Y5636667D01*
X17778809Y5636667D02*
X17731190Y5541429D01*
X17731190Y5541429D02*
X17683571Y5350953D01*
X17683571Y5350953D02*
X17635952Y5255715D01*
X17635952Y5255715D02*
X17588333Y5208096D01*
X17588333Y5208096D02*
X17493095Y5160477D01*
X17493095Y5160477D02*
X17397857Y5160477D01*
X17397857Y5160477D02*
X17302619Y5208096D01*
X17302619Y5208096D02*
X17255000Y5255715D01*
X17255000Y5255715D02*
X17207380Y5350953D01*
X17207380Y5350953D02*
X17207380Y5589048D01*
X17207380Y5589048D02*
X17255000Y5731905D01*
X17207380Y6017620D02*
X17207380Y6589048D01*
X18207380Y6303334D02*
X17207380Y6303334D01*
X7117380Y4195239D02*
X8117380Y4528572D01*
X8117380Y4528572D02*
X7117380Y4861905D01*
X7117380Y5052382D02*
X7117380Y5623810D01*
X8117380Y5338096D02*
X7117380Y5338096D01*
X8117380Y5957144D02*
X7450714Y5957144D01*
X7641190Y5957144D02*
X7545952Y6004763D01*
X7545952Y6004763D02*
X7498333Y6052382D01*
X7498333Y6052382D02*
X7450714Y6147620D01*
X7450714Y6147620D02*
X7450714Y6242858D01*
X8069761Y6957144D02*
X8117380Y6861906D01*
X8117380Y6861906D02*
X8117380Y6671430D01*
X8117380Y6671430D02*
X8069761Y6576192D01*
X8069761Y6576192D02*
X7974523Y6528573D01*
X7974523Y6528573D02*
X7593571Y6528573D01*
X7593571Y6528573D02*
X7498333Y6576192D01*
X7498333Y6576192D02*
X7450714Y6671430D01*
X7450714Y6671430D02*
X7450714Y6861906D01*
X7450714Y6861906D02*
X7498333Y6957144D01*
X7498333Y6957144D02*
X7593571Y7004763D01*
X7593571Y7004763D02*
X7688809Y7004763D01*
X7688809Y7004763D02*
X7784047Y6528573D01*
X7450714Y7290478D02*
X7450714Y7671430D01*
X8117380Y7433335D02*
X7260238Y7433335D01*
X7260238Y7433335D02*
X7165000Y7480954D01*
X7165000Y7480954D02*
X7117380Y7576192D01*
X7117380Y7576192D02*
X7117380Y7671430D01*
D12*
G36*
X91054720Y-64501562D02*
G01*
X90648956Y-64501562D01*
X90470128Y-64503152D01*
X90328141Y-64508677D01*
X90216804Y-64519269D01*
X90129925Y-64536064D01*
X90061312Y-64560194D01*
X90004775Y-64592791D01*
X89962432Y-64627229D01*
X89889865Y-64706280D01*
X89839347Y-64794621D01*
X89807288Y-64901908D01*
X89790097Y-65037796D01*
X89786681Y-65099782D01*
X89777682Y-65320667D01*
X91564376Y-65326183D01*
X93351070Y-65331698D01*
X93351070Y-66927284D01*
X91572208Y-66938065D01*
X89793345Y-66948846D01*
X89793688Y-67164466D01*
X89794986Y-67267407D01*
X89800066Y-67339922D01*
X89811284Y-67394684D01*
X89831001Y-67444366D01*
X89853880Y-67487895D01*
X89941852Y-67605005D01*
X90055650Y-67688502D01*
X90191660Y-67735744D01*
X90193597Y-67736115D01*
X90253120Y-67743265D01*
X90345776Y-67749394D01*
X90461577Y-67754064D01*
X90590537Y-67756839D01*
X90680329Y-67757420D01*
X91054720Y-67757420D01*
X91054720Y-68672531D01*
X91054352Y-68866798D01*
X91053298Y-69047318D01*
X91051638Y-69209616D01*
X91049451Y-69349215D01*
X91046814Y-69461639D01*
X91043806Y-69542411D01*
X91040506Y-69587057D01*
X91038549Y-69594614D01*
X91012582Y-69596167D01*
X90951064Y-69596016D01*
X90861528Y-69594292D01*
X90751507Y-69591127D01*
X90666605Y-69588134D01*
X90321411Y-69561041D01*
X90005311Y-69505599D01*
X89713068Y-69419556D01*
X89439445Y-69300658D01*
X89179205Y-69146654D01*
X88927111Y-68955291D01*
X88692737Y-68739178D01*
X88542543Y-68581970D01*
X88421191Y-68437346D01*
X88321029Y-68294915D01*
X88234407Y-68144284D01*
X88192184Y-68059287D01*
X88141777Y-67948514D01*
X88101490Y-67847103D01*
X88067793Y-67743554D01*
X88037159Y-67626369D01*
X88006058Y-67484048D01*
X87988198Y-67394591D01*
X87977044Y-67335958D01*
X87967715Y-67281178D01*
X87960049Y-67225853D01*
X87953883Y-67165584D01*
X87949053Y-67095972D01*
X87945398Y-67012620D01*
X87942755Y-66911129D01*
X87940961Y-66787099D01*
X87939852Y-66636134D01*
X87939268Y-66453833D01*
X87939045Y-66235800D01*
X87939016Y-66064805D01*
X87939016Y-64986707D01*
X88000429Y-64719257D01*
X88072381Y-64455651D01*
X88162393Y-64222098D01*
X88276233Y-64007317D01*
X88419671Y-63800024D01*
X88552021Y-63640557D01*
X88788215Y-63399386D01*
X89039760Y-63194084D01*
X89309371Y-63023444D01*
X89599764Y-62886256D01*
X89913653Y-62781314D01*
X90253754Y-62707407D01*
X90622781Y-62663328D01*
X90767941Y-62654301D01*
X91054720Y-62640547D01*
X91054720Y-64501562D01*
G37*
G36*
X93356692Y-68678943D02*
G01*
X93351070Y-69600968D01*
X92529625Y-69607154D01*
X92310593Y-69608520D01*
X92131148Y-69608943D01*
X91987764Y-69608332D01*
X91876913Y-69606598D01*
X91795067Y-69603650D01*
X91738699Y-69599398D01*
X91704281Y-69593752D01*
X91688286Y-69586620D01*
X91687385Y-69585592D01*
X91682246Y-69557241D01*
X91677789Y-69488740D01*
X91674078Y-69383058D01*
X91671174Y-69243162D01*
X91669141Y-69072022D01*
X91668042Y-68872606D01*
X91667914Y-68663022D01*
X91669236Y-67768201D01*
X93362314Y-67756919D01*
X93356692Y-68678943D01*
G37*
G36*
X91112367Y-59113572D02*
G01*
X91429942Y-59114293D01*
X91785700Y-59115325D01*
X92182035Y-59116600D01*
X92209128Y-59116690D01*
X94774160Y-59125153D01*
X95022123Y-59180045D01*
X95284321Y-59250085D01*
X95516932Y-59339417D01*
X95731143Y-59453297D01*
X95938141Y-59596977D01*
X95979607Y-59629708D01*
X96204419Y-59832357D01*
X96400458Y-60053952D01*
X96563809Y-60289094D01*
X96690558Y-60532386D01*
X96752608Y-60695875D01*
X96780737Y-60785602D01*
X96801471Y-60860410D01*
X96817536Y-60933404D01*
X96831658Y-61017689D01*
X96846564Y-61126371D01*
X96853534Y-61181019D01*
X96856011Y-61222186D01*
X96858412Y-61304626D01*
X96860724Y-61426487D01*
X96862937Y-61585918D01*
X96865038Y-61781066D01*
X96867017Y-62010081D01*
X96868862Y-62271111D01*
X96870560Y-62562304D01*
X96872102Y-62881810D01*
X96873474Y-63227776D01*
X96874667Y-63598352D01*
X96875667Y-63991685D01*
X96876463Y-64405925D01*
X96877045Y-64839219D01*
X96877179Y-64975926D01*
X96877588Y-65439529D01*
X96877935Y-65862000D01*
X96878197Y-66245333D01*
X96878353Y-66591519D01*
X96878380Y-66902551D01*
X96878258Y-67180422D01*
X96877963Y-67427124D01*
X96877475Y-67644649D01*
X96876772Y-67834991D01*
X96875831Y-68000141D01*
X96874631Y-68142092D01*
X96873150Y-68262836D01*
X96871367Y-68364367D01*
X96869259Y-68448676D01*
X96866805Y-68517756D01*
X96863983Y-68573600D01*
X96860771Y-68618200D01*
X96857147Y-68653548D01*
X96853090Y-68681637D01*
X96848578Y-68704460D01*
X96843588Y-68724009D01*
X96838100Y-68742276D01*
X96835887Y-68749270D01*
X96761372Y-68930618D01*
X96659579Y-69100407D01*
X96539126Y-69244782D01*
X96510628Y-69272079D01*
X96400833Y-69366202D01*
X96299984Y-69435943D01*
X96191188Y-69491449D01*
X96062887Y-69541004D01*
X95895382Y-69599595D01*
X94989780Y-69603335D01*
X94794120Y-69603907D01*
X94610171Y-69603992D01*
X94442783Y-69603622D01*
X94296809Y-69602827D01*
X94177099Y-69601638D01*
X94088505Y-69600085D01*
X94035878Y-69598201D01*
X94024882Y-69597198D01*
X93965586Y-69587323D01*
X93965586Y-67762396D01*
X94326749Y-67752989D01*
X94479362Y-67747877D01*
X94596536Y-67740310D01*
X94685949Y-67728429D01*
X94755283Y-67710378D01*
X94812216Y-67684300D01*
X94864429Y-67648336D01*
X94906081Y-67612891D01*
X94936639Y-67585826D01*
X94962687Y-67561393D01*
X94984600Y-67536093D01*
X95002755Y-67506428D01*
X95017528Y-67468900D01*
X95029296Y-67420009D01*
X95038435Y-67356257D01*
X95045322Y-67274147D01*
X95050333Y-67170180D01*
X95053845Y-67040857D01*
X95056234Y-66882679D01*
X95057876Y-66692149D01*
X95059148Y-66465768D01*
X95060426Y-66200038D01*
X95060537Y-66177449D01*
X95061593Y-65880344D01*
X95061647Y-65619041D01*
X95060713Y-65394659D01*
X95058806Y-65208314D01*
X95055938Y-65061123D01*
X95052124Y-64954205D01*
X95047378Y-64888677D01*
X95044412Y-64870816D01*
X94988331Y-64741286D01*
X94895533Y-64633930D01*
X94818574Y-64577700D01*
X94778856Y-64553887D01*
X94743254Y-64536485D01*
X94703983Y-64524243D01*
X94653253Y-64515909D01*
X94583278Y-64510233D01*
X94486270Y-64505964D01*
X94354441Y-64501850D01*
X94344618Y-64501562D01*
X93976367Y-64490781D01*
X93976367Y-62658014D01*
X94515416Y-62647233D01*
X95054466Y-62636452D01*
X95051862Y-62269898D01*
X95050386Y-62131813D01*
X95047498Y-62027465D01*
X95042136Y-61947472D01*
X95033242Y-61882450D01*
X95019756Y-61823013D01*
X95000618Y-61759779D01*
X94990983Y-61730849D01*
X94905016Y-61539519D01*
X94785045Y-61366339D01*
X94637021Y-61217712D01*
X94466894Y-61100042D01*
X94354853Y-61046220D01*
X94235111Y-60997742D01*
X89491477Y-60976180D01*
X89355018Y-60926865D01*
X89168537Y-60842285D01*
X89016212Y-60733972D01*
X88894219Y-60597988D01*
X88798736Y-60430397D01*
X88749211Y-60303049D01*
X88711422Y-60124767D01*
X88713336Y-59944745D01*
X88752198Y-59768800D01*
X88825255Y-59602752D01*
X88929753Y-59452418D01*
X89062937Y-59323616D01*
X89222055Y-59222165D01*
X89271738Y-59199084D01*
X89303775Y-59185703D01*
X89335713Y-59173707D01*
X89369945Y-59163028D01*
X89408864Y-59153600D01*
X89454862Y-59145356D01*
X89510332Y-59138227D01*
X89577666Y-59132148D01*
X89659258Y-59127051D01*
X89757499Y-59122868D01*
X89874783Y-59119534D01*
X90013502Y-59116980D01*
X90176049Y-59115140D01*
X90364816Y-59113946D01*
X90582197Y-59113332D01*
X90830582Y-59113229D01*
X91112367Y-59113572D01*
G37*
G36*
X92516903Y-62652371D02*
G01*
X93351070Y-62658014D01*
X93351070Y-64490781D01*
X92515544Y-64496425D01*
X91680017Y-64502069D01*
X91678995Y-63881909D01*
X91678292Y-63709665D01*
X91676831Y-63539990D01*
X91674739Y-63381013D01*
X91672143Y-63240858D01*
X91669171Y-63127653D01*
X91665981Y-63050088D01*
X91662162Y-62946179D01*
X91662070Y-62846867D01*
X91665583Y-62767772D01*
X91668362Y-62742578D01*
X91682735Y-62646729D01*
X92516903Y-62652371D01*
G37*
D13*
X28160000Y5050000D02*
X26835000Y5050000D01*
X26835000Y4985000D02*
X26835000Y5050000D01*
X26835000Y4985000D02*
X23305000Y4985000D01*
X26835000Y11390000D02*
X26835000Y11455000D01*
X26835000Y11455000D02*
X23305000Y11455000D01*
X23305000Y4985000D02*
X23305000Y5050000D01*
X23305000Y11390000D02*
X23305000Y11455000D01*
X-8820000Y28000000D02*
X-8820000Y2480000D01*
X-8820000Y28000000D02*
X-190000Y28000000D01*
X-8820000Y27880000D02*
X-190000Y27880000D01*
X-8820000Y27761905D02*
X-190000Y27761905D01*
X-8820000Y27643810D02*
X-190000Y27643810D01*
X-8820000Y27525715D02*
X-190000Y27525715D01*
X-8820000Y27407620D02*
X-190000Y27407620D01*
X-8820000Y27289525D02*
X-190000Y27289525D01*
X-8820000Y27171430D02*
X-190000Y27171430D01*
X-8820000Y27053335D02*
X-190000Y27053335D01*
X-8820000Y26935240D02*
X-190000Y26935240D01*
X-8820000Y26817145D02*
X-190000Y26817145D01*
X-8820000Y26699050D02*
X-190000Y26699050D01*
X-8820000Y26580955D02*
X-190000Y26580955D01*
X-8820000Y26462860D02*
X-190000Y26462860D01*
X-8820000Y26344765D02*
X-190000Y26344765D01*
X-8820000Y26226670D02*
X-190000Y26226670D01*
X-8820000Y26108575D02*
X-190000Y26108575D01*
X-8820000Y25990480D02*
X-190000Y25990480D01*
X-8820000Y25872385D02*
X-190000Y25872385D01*
X-8820000Y25754290D02*
X-190000Y25754290D01*
X-8820000Y25636195D02*
X-190000Y25636195D01*
X-8820000Y25518100D02*
X-190000Y25518100D01*
X-8820000Y25400000D02*
X-190000Y25400000D01*
X-8820000Y22860000D02*
X-190000Y22860000D01*
X-8820000Y20320000D02*
X-190000Y20320000D01*
X-8820000Y17780000D02*
X-190000Y17780000D01*
X-8820000Y15240000D02*
X-190000Y15240000D01*
X-8820000Y12700000D02*
X-190000Y12700000D01*
X-8820000Y10160000D02*
X-190000Y10160000D01*
X-8820000Y7620000D02*
X-190000Y7620000D01*
X-8820000Y5080000D02*
X-190000Y5080000D01*
X-8820000Y2480000D02*
X-190000Y2480000D01*
X-190000Y28000000D02*
X-190000Y2480000D01*
X-190000Y27030000D02*
X220000Y27030000D01*
X-190000Y26310000D02*
X220000Y26310000D01*
X-190000Y24490000D02*
X220000Y24490000D01*
X-190000Y23770000D02*
X220000Y23770000D01*
X-190000Y21950000D02*
X220000Y21950000D01*
X-190000Y21230000D02*
X220000Y21230000D01*
X-190000Y19410000D02*
X220000Y19410000D01*
X-190000Y18690000D02*
X220000Y18690000D01*
X-190000Y16870000D02*
X220000Y16870000D01*
X-190000Y16150000D02*
X220000Y16150000D01*
X-190000Y14330000D02*
X220000Y14330000D01*
X-190000Y13610000D02*
X220000Y13610000D01*
X-190000Y11790000D02*
X220000Y11790000D01*
X-190000Y11070000D02*
X220000Y11070000D01*
X-190000Y9250000D02*
X220000Y9250000D01*
X-190000Y8530000D02*
X220000Y8530000D01*
X-190000Y6710000D02*
X220000Y6710000D01*
X-190000Y5990000D02*
X220000Y5990000D01*
X-190000Y4170000D02*
X220000Y4170000D01*
X-190000Y3450000D02*
X220000Y3450000D01*
X2320000Y27030000D02*
X2700000Y27030000D01*
X2320000Y26310000D02*
X2700000Y26310000D01*
X2320000Y24490000D02*
X2760000Y24490000D01*
X2320000Y23770000D02*
X2760000Y23770000D01*
X2320000Y21950000D02*
X2760000Y21950000D01*
X2320000Y21230000D02*
X2760000Y21230000D01*
X2320000Y19410000D02*
X2760000Y19410000D01*
X2320000Y18690000D02*
X2760000Y18690000D01*
X2320000Y16870000D02*
X2760000Y16870000D01*
X2320000Y16150000D02*
X2760000Y16150000D01*
X2320000Y14330000D02*
X2760000Y14330000D01*
X2320000Y13610000D02*
X2760000Y13610000D01*
X2320000Y11790000D02*
X2760000Y11790000D01*
X2320000Y11070000D02*
X2760000Y11070000D01*
X2320000Y9250000D02*
X2760000Y9250000D01*
X2320000Y8530000D02*
X2760000Y8530000D01*
X2320000Y6710000D02*
X2760000Y6710000D01*
X2320000Y5990000D02*
X2760000Y5990000D01*
X2320000Y4170000D02*
X2760000Y4170000D01*
X2320000Y3450000D02*
X2760000Y3450000D01*
X3810000Y28000000D02*
X4920000Y28000000D01*
X4920000Y28000000D02*
X4920000Y26670000D01*
X6360000Y800000D02*
X6360000Y2130000D01*
X7690000Y800000D02*
X6360000Y800000D01*
X8960000Y800000D02*
X21720000Y800000D01*
X8960000Y800000D02*
X8960000Y3460000D01*
X21720000Y800000D02*
X21720000Y3460000D01*
X8960000Y3460000D02*
X21720000Y3460000D01*
X21560000Y14829420D02*
X21560000Y15110580D01*
X22580000Y14829420D02*
X22580000Y15110580D01*
X9082742Y21492500D02*
X9557258Y21492500D01*
X9082742Y20447500D02*
X9557258Y20447500D01*
X14307258Y20447500D02*
X13832742Y20447500D01*
X14307258Y21492500D02*
X13832742Y21492500D01*
X14860000Y10420000D02*
X13420000Y10420000D01*
X13420000Y9850000D02*
X13420000Y10420000D01*
X13420000Y9850000D02*
X8220000Y9850000D01*
X13420000Y11940000D02*
X13420000Y12960000D01*
X13420000Y14480000D02*
X13420000Y15500000D01*
X13420000Y17020000D02*
X13420000Y17590000D01*
X13420000Y17590000D02*
X8220000Y17590000D01*
X8220000Y9850000D02*
X8220000Y10420000D01*
X8220000Y11940000D02*
X8220000Y12960000D01*
X8220000Y14480000D02*
X8220000Y15500000D01*
X8220000Y17020000D02*
X8220000Y17590000D01*
G36*
X25313243Y3157452D02*
G01*
X25313243Y2516228D01*
X25020921Y2514254D01*
X24728598Y2512279D01*
X24728240Y2729252D01*
X24727994Y2789515D01*
X24727483Y2848878D01*
X24726751Y2904499D01*
X24725843Y2953534D01*
X24724803Y2993141D01*
X24723687Y3020278D01*
X24722351Y3056633D01*
X24722319Y3091378D01*
X24723548Y3119051D01*
X24724520Y3127866D01*
X24729549Y3161400D01*
X25313243Y3157452D01*
G37*
G36*
X25315210Y1050931D02*
G01*
X25313243Y728346D01*
X25025847Y726182D01*
X24949215Y725704D01*
X24886433Y725556D01*
X24836268Y725769D01*
X24797485Y726376D01*
X24768850Y727407D01*
X24749129Y728895D01*
X24737087Y730871D01*
X24731491Y733366D01*
X24731176Y733725D01*
X24729378Y743644D01*
X24727818Y767610D01*
X24726520Y804585D01*
X24725504Y853530D01*
X24724793Y913406D01*
X24724408Y983175D01*
X24724363Y1056501D01*
X24724826Y1369569D01*
X25021002Y1371543D01*
X25317177Y1373517D01*
X25315210Y1050931D01*
G37*
G36*
X24509828Y2512456D02*
G01*
X24367864Y2512456D01*
X24305298Y2511900D01*
X24255622Y2509967D01*
X24216669Y2506261D01*
X24186273Y2500385D01*
X24162268Y2491943D01*
X24142487Y2480538D01*
X24127673Y2468490D01*
X24102284Y2440833D01*
X24084609Y2409925D01*
X24073393Y2372389D01*
X24067378Y2324846D01*
X24066183Y2303159D01*
X24063035Y2225879D01*
X24688139Y2223949D01*
X25313243Y2222020D01*
X25313243Y1663778D01*
X24068515Y1656234D01*
X24068635Y1580796D01*
X24069089Y1544780D01*
X24070866Y1519410D01*
X24074791Y1500251D01*
X24081689Y1482868D01*
X24089694Y1467639D01*
X24120472Y1426666D01*
X24160287Y1397453D01*
X24207872Y1380925D01*
X24208549Y1380795D01*
X24229375Y1378294D01*
X24261792Y1376149D01*
X24302307Y1374515D01*
X24347425Y1373545D01*
X24378841Y1373341D01*
X24509828Y1373341D01*
X24509828Y1053175D01*
X24509699Y985207D01*
X24509330Y922049D01*
X24508749Y865267D01*
X24507984Y816426D01*
X24507061Y777092D01*
X24506009Y748833D01*
X24504854Y733213D01*
X24504170Y730569D01*
X24495085Y730025D01*
X24473562Y730078D01*
X24442236Y730681D01*
X24403744Y731789D01*
X24374039Y732836D01*
X24253267Y742315D01*
X24142674Y761712D01*
X24040429Y791816D01*
X23944697Y833414D01*
X23853648Y887295D01*
X23765449Y954247D01*
X23683449Y1029857D01*
X23630901Y1084859D01*
X23588444Y1135458D01*
X23553401Y1185290D01*
X23523095Y1237990D01*
X23508323Y1267728D01*
X23490687Y1306484D01*
X23476592Y1341964D01*
X23464802Y1378192D01*
X23454085Y1419191D01*
X23443203Y1468985D01*
X23436954Y1500283D01*
X23433052Y1520797D01*
X23429788Y1539962D01*
X23427106Y1559319D01*
X23424949Y1580405D01*
X23423259Y1604759D01*
X23421980Y1633922D01*
X23421056Y1669430D01*
X23420428Y1712824D01*
X23420040Y1765642D01*
X23419836Y1829422D01*
X23419757Y1905705D01*
X23419747Y1965530D01*
X23419747Y2342721D01*
X23441234Y2436292D01*
X23466408Y2528519D01*
X23497900Y2610231D01*
X23537728Y2685376D01*
X23587913Y2757901D01*
X23634217Y2813693D01*
X23716854Y2898071D01*
X23804861Y2969899D01*
X23899189Y3029600D01*
X24000787Y3077597D01*
X24110607Y3114313D01*
X24229596Y3140171D01*
X24358707Y3155593D01*
X24409493Y3158751D01*
X24509828Y3163563D01*
X24509828Y2512456D01*
G37*
G36*
X24529996Y4397533D02*
G01*
X24641105Y4397280D01*
X24765573Y4396919D01*
X24904237Y4396473D01*
X24913716Y4396442D01*
X25811134Y4393481D01*
X25897888Y4374276D01*
X25989623Y4349772D01*
X26071005Y4318517D01*
X26145951Y4278675D01*
X26218372Y4228406D01*
X26232880Y4216954D01*
X26311534Y4146054D01*
X26380121Y4068525D01*
X26437272Y3986257D01*
X26481618Y3901137D01*
X26503327Y3843938D01*
X26513168Y3812546D01*
X26520422Y3786373D01*
X26526043Y3760835D01*
X26530984Y3731346D01*
X26536199Y3693322D01*
X26538637Y3674203D01*
X26539504Y3659800D01*
X26540344Y3630957D01*
X26541153Y3588322D01*
X26541927Y3532542D01*
X26542662Y3464266D01*
X26543355Y3384142D01*
X26544000Y3292816D01*
X26544594Y3190937D01*
X26545134Y3079153D01*
X26545614Y2958111D01*
X26546031Y2828459D01*
X26546381Y2690845D01*
X26546660Y2545917D01*
X26546863Y2394322D01*
X26546910Y2346493D01*
X26547053Y2184293D01*
X26547175Y2036485D01*
X26547266Y1902370D01*
X26547321Y1781251D01*
X26547330Y1672431D01*
X26547287Y1575213D01*
X26547184Y1488901D01*
X26547014Y1412796D01*
X26546767Y1346202D01*
X26546438Y1288421D01*
X26546019Y1238758D01*
X26545500Y1196513D01*
X26544877Y1160991D01*
X26544139Y1131494D01*
X26543281Y1107325D01*
X26542293Y1087787D01*
X26541169Y1072183D01*
X26539902Y1059816D01*
X26538482Y1049989D01*
X26536903Y1042004D01*
X26535158Y1035164D01*
X26533238Y1028773D01*
X26532463Y1026326D01*
X26506393Y962879D01*
X26470779Y903475D01*
X26428637Y852963D01*
X26418666Y843413D01*
X26380253Y810483D01*
X26344969Y786082D01*
X26306905Y766663D01*
X26262017Y749325D01*
X26203412Y728826D01*
X25886572Y727518D01*
X25818118Y727318D01*
X25753760Y727288D01*
X25695197Y727417D01*
X25644125Y727696D01*
X25602243Y728112D01*
X25571247Y728655D01*
X25552834Y729314D01*
X25548987Y729665D01*
X25528242Y733120D01*
X25528242Y1371600D01*
X25654600Y1374891D01*
X25707995Y1376680D01*
X25748990Y1379328D01*
X25780272Y1383484D01*
X25804530Y1389800D01*
X25824449Y1398924D01*
X25842716Y1411506D01*
X25857289Y1423907D01*
X25867980Y1433376D01*
X25877094Y1441924D01*
X25884760Y1450776D01*
X25891112Y1461155D01*
X25896281Y1474285D01*
X25900398Y1491390D01*
X25903595Y1513694D01*
X25906005Y1542422D01*
X25907758Y1578797D01*
X25908987Y1624043D01*
X25909822Y1679384D01*
X25910397Y1746044D01*
X25910842Y1825247D01*
X25911289Y1918217D01*
X25911328Y1926120D01*
X25911697Y2030067D01*
X25911716Y2121488D01*
X25911390Y2199992D01*
X25910722Y2265188D01*
X25909719Y2316685D01*
X25908385Y2354092D01*
X25906724Y2377018D01*
X25905686Y2383267D01*
X25886066Y2428585D01*
X25853599Y2466145D01*
X25826673Y2485818D01*
X25812777Y2494150D01*
X25800322Y2500238D01*
X25786582Y2504521D01*
X25768833Y2507437D01*
X25744351Y2509423D01*
X25710411Y2510916D01*
X25664289Y2512356D01*
X25660852Y2512456D01*
X25532014Y2516228D01*
X25532014Y3157452D01*
X25909204Y3164996D01*
X25908293Y3293240D01*
X25907777Y3341552D01*
X25906766Y3378060D01*
X25904890Y3406046D01*
X25901779Y3428796D01*
X25897060Y3449590D01*
X25890364Y3471714D01*
X25886994Y3481836D01*
X25856916Y3548775D01*
X25814943Y3609365D01*
X25763154Y3661365D01*
X25703632Y3702534D01*
X25664433Y3721364D01*
X25622539Y3738325D01*
X24792720Y3742097D01*
X23962902Y3745869D01*
X23915159Y3763123D01*
X23849915Y3792714D01*
X23796622Y3830609D01*
X23753941Y3878186D01*
X23720535Y3936820D01*
X23703207Y3981375D01*
X23689986Y4043750D01*
X23690656Y4106733D01*
X23704253Y4168290D01*
X23729813Y4226385D01*
X23766373Y4278982D01*
X23812970Y4324046D01*
X23868640Y4359540D01*
X23886022Y4367615D01*
X23897231Y4372297D01*
X23908405Y4376494D01*
X23920381Y4380230D01*
X23933998Y4383528D01*
X23950091Y4386413D01*
X23969498Y4388907D01*
X23993056Y4391034D01*
X24021602Y4392817D01*
X24055974Y4394280D01*
X24097007Y4395447D01*
X24145541Y4396340D01*
X24202410Y4396984D01*
X24268453Y4397402D01*
X24344507Y4397617D01*
X24431409Y4397653D01*
X24529996Y4397533D01*
G37*
X24820000Y20530000D02*
X23145000Y20530000D01*
X24820000Y20530000D02*
X25470000Y20530000D01*
X24820000Y17410000D02*
X24170000Y17410000D01*
X24820000Y17410000D02*
X25470000Y17410000D01*
X28360000Y22820000D02*
X26920000Y22820000D01*
X26920000Y22250000D02*
X26920000Y22820000D01*
X26920000Y22250000D02*
X21720000Y22250000D01*
X26920000Y24340000D02*
X26920000Y25360000D01*
X26920000Y26880000D02*
X26920000Y27900000D01*
X26920000Y29420000D02*
X26920000Y29990000D01*
X26920000Y29990000D02*
X21720000Y29990000D01*
X21720000Y22250000D02*
X21720000Y22820000D01*
X21720000Y24340000D02*
X21720000Y25360000D01*
X21720000Y26880000D02*
X21720000Y27900000D01*
X21720000Y29420000D02*
X21720000Y29990000D01*
X28330000Y18860580D02*
X28330000Y18579420D01*
X27310000Y18860580D02*
X27310000Y18579420D01*
X27310000Y14829420D02*
X27310000Y15110580D01*
X28330000Y14829420D02*
X28330000Y15110580D01*
X16520000Y25570000D02*
X16520000Y27570000D01*
X16520000Y29470000D02*
X16520000Y31370000D01*
X16520000Y31370000D02*
X7120000Y31370000D01*
X7120000Y25570000D02*
X7120000Y27570000D01*
X7120000Y29470000D02*
X7120000Y31370000D01*
X24820000Y16530000D02*
X23145000Y16530000D01*
X24820000Y16530000D02*
X25470000Y16530000D01*
X24820000Y13410000D02*
X24170000Y13410000D01*
X24820000Y13410000D02*
X25470000Y13410000D01*
X21560000Y18829420D02*
X21560000Y19110580D01*
X22580000Y18829420D02*
X22580000Y19110580D01*
D14*
X1667462Y-1320D02*
G75*
G03*
X1667462Y-1320I-1666666J0D01*
G01*
X-2499204Y-1320D02*
X2500796Y-1320D01*
X796Y2498680D02*
X796Y-2501320D01*
X0Y0D02*
X0Y30480000D01*
X29570000Y30480000D02*
X29570000Y0D01*
X0Y30480000D02*
X29570000Y30480000D01*
X29570000Y0D02*
X0Y0D01*
M02*
